<?xml version="1.0" encoding="UTF-8" standalone="no"?>
<!-- Generator: Adobe Illustrator 16.0.0, SVG Export Plug-In . SVG Version: 6.00 Build 0)  -->

<svg
   xmlns:dc="http://purl.org/dc/elements/1.1/"
   xmlns:cc="http://creativecommons.org/ns#"
   xmlns:rdf="http://www.w3.org/1999/02/22-rdf-syntax-ns#"
   xmlns:svg="http://www.w3.org/2000/svg"
   xmlns="http://www.w3.org/2000/svg"
   xmlns:sodipodi="http://sodipodi.sourceforge.net/DTD/sodipodi-0.dtd"
   xmlns:inkscape="http://www.inkscape.org/namespaces/inkscape"
   version="1.1"
   x="0px"
   y="0px"
   width="2834.65px"
   height="2834.65px"
   viewBox="0 0 2834.65 2834.65"
   enable-background="new 0 0 2834.65 2834.65"
   xml:space="preserve"
   id="svg6445"
   inkscape:version="0.48.3.1 r9886"
   sodipodi:docname="pievoskvadratas1.svg"><metadata
   id="metadata6873"><rdf:RDF><cc:Work
       rdf:about=""><dc:format>image/svg+xml</dc:format><dc:type
         rdf:resource="http://purl.org/dc/dcmitype/StillImage" /></cc:Work></rdf:RDF></metadata><defs
   id="defs6871"><inkscape:path-effect
     effect="vonkoch"
     id="path-effect3427"
     is_visible="true"
     ref_path="m 204.19088,1418.8263 2426.26812,0"
     generator="m 204.19088,2630.459 808.75602,0 m 808.7561,0 808.756,0"
     similar_only="false"
     nbgenerations="1"
     drawall="true"
     maxComplexity="1000" /><inkscape:path-effect
     effect="construct_grid"
     id="path-effect3425"
     is_visible="true"
     nr_x="5"
     nr_y="5" /></defs><sodipodi:namedview
   pagecolor="#ffffff"
   bordercolor="#666666"
   borderopacity="1"
   objecttolerance="10"
   gridtolerance="10"
   guidetolerance="10"
   inkscape:pageopacity="0"
   inkscape:pageshadow="2"
   inkscape:window-width="1366"
   inkscape:window-height="710"
   id="namedview6869"
   showgrid="true"
   inkscape:zoom="0.16"
   inkscape:cx="937.33906"
   inkscape:cy="1931.862"
   inkscape:window-x="0"
   inkscape:window-y="0"
   inkscape:window-maximized="1"
   inkscape:current-layer="svg6445"><inkscape:grid
     type="xygrid"
     id="grid3429"
     empspacing="5"
     visible="true"
     enabled="true"
     snapvisiblegridlinesonly="true"
     units="px"
     spacingx="15.58px"
     spacingy="15.58px"
     originx="287px"
     originy="287px"
     color="#fff120"
     opacity="0.1254902" /></sodipodi:namedview>
<g
   id="Layer_8">
	
		<rect
   x="0"
   y="0"
   stroke-miterlimit="10"
   width="2834.644"
   height="2834.647"
   id="rect6448"
   stroke-linejoin="round"
   stroke-linecap="round"
   stroke-width="3"
   stroke="#231F20"
   fill="#D7DECD" />
	
		<rect
   x="85.04"
   y="85.039"
   stroke-miterlimit="10"
   width="2664.565"
   height="2664.568"
   id="rect6450"
   stroke-dasharray="3"
   stroke-linejoin="round"
   stroke-linecap="round"
   stroke="#231F20"
   fill="none" />
	
		<rect
   x="141.732"
   y="141.732"
   stroke-miterlimit="10"
   width="2551.182"
   height="2551.182"
   id="rect6452"
   stroke-dasharray="3"
   stroke-linejoin="round"
   stroke-linecap="round"
   stroke="#231F20"
   fill="none" />
</g>

<g
   id="Layer_5"
   transform="translate(39.240093,-38.106007)">
	<path
   stroke-miterlimit="10"
   d="m 2428.721,405.552 c -20.497,-20.496 -53.684,-20.485 -74.148,0 -20.486,20.475 -20.508,53.66 0,74.146 20.486,20.497 53.662,20.485 74.148,0 20.475,-20.475 20.486,-53.661 0,-74.146 z M 2394,445 c -1.308,1.28 -3.416,1.28 -4.719,-0.011 -1.298,-1.303 -1.309,-3.416 -0.011,-4.719 1.313,-1.304 3.427,-1.304 4.729,0 1.299,1.303 1.31,3.417 0,4.73 z"
   id="path6614"
   inkscape:connector-curvature="0"
   style="fill:none;stroke:#231f20;stroke-width:4;stroke-linecap:round;stroke-linejoin:round;stroke-miterlimit:10" />
	<path
   stroke-miterlimit="10"
   d="m 2188.603,646.889 c -17.172,-17.168 -44.975,-17.168 -62.141,0 -17.149,17.146 -17.149,44.959 0.017,62.128 17.161,17.169 44.952,17.158 62.112,0 17.167,-17.169 17.179,-44.96 0.012,-62.128 z m -28.709,33.428 c -1.301,1.301 -3.418,1.301 -4.707,-0.011 -1.306,-1.29 -1.306,-3.42 -0.018,-4.71 1.307,-1.312 3.435,-1.312 4.725,0 1.305,1.291 1.305,3.41 0,4.721 z"
   id="path6616"
   inkscape:connector-curvature="0"
   style="fill:none;stroke:#231f20;stroke-width:4;stroke-linecap:round;stroke-linejoin:round;stroke-miterlimit:10" />
	<path
   stroke-miterlimit="10"
   d="m 1960.868,873.557 c -20.497,-20.496 -53.684,-20.485 -74.148,0 -20.486,20.475 -20.508,53.66 0,74.146 20.486,20.497 53.662,20.485 74.148,0 20.476,-20.475 20.486,-53.661 0,-74.146 z m -34.721,39.448 c -1.308,1.28 -3.416,1.28 -4.719,-0.011 -1.298,-1.303 -1.309,-3.416 -0.011,-4.719 1.313,-1.304 3.427,-1.304 4.729,0 1.299,1.304 1.31,3.417 10e-4,4.73 z"
   id="path6618"
   inkscape:connector-curvature="0"
   style="fill:none;stroke:#231f20;stroke-width:4;stroke-linecap:round;stroke-linejoin:round;stroke-miterlimit:10" />
	<path
   stroke-miterlimit="10"
   d="m 1723.559,1112.084 c -17.172,-17.168 -44.975,-17.168 -62.141,0 -17.149,17.146 -17.149,44.959 0.017,62.128 17.161,17.169 44.952,17.158 62.112,0 17.167,-17.169 17.179,-44.96 0.012,-62.128 z m -28.709,33.429 c -1.301,1.301 -3.418,1.301 -4.707,-0.011 -1.306,-1.29 -1.306,-3.42 -0.018,-4.71 1.307,-1.312 3.435,-1.312 4.725,0 1.305,1.291 1.305,3.41 0,4.721 z"
   id="path6620"
   inkscape:connector-curvature="0"
   style="fill:none;stroke:#231f20;stroke-width:4;stroke-linecap:round;stroke-linejoin:round;stroke-miterlimit:10" />
	<path
   stroke-miterlimit="10"
   d="m 1493.38,1342.197 c -20.497,-20.496 -53.684,-20.485 -74.148,0 -20.486,20.475 -20.508,53.66 0,74.146 20.486,20.498 53.662,20.486 74.148,0 20.475,-20.475 20.486,-53.661 0,-74.146 z m -34.721,39.448 c -1.308,1.28 -3.416,1.28 -4.719,-0.011 -1.298,-1.303 -1.309,-3.416 -0.011,-4.719 1.313,-1.304 3.427,-1.304 4.729,0 1.299,1.303 1.31,3.417 0,4.73 z"
   id="path6622"
   inkscape:connector-curvature="0"
   style="fill:none;stroke:#231f20;stroke-width:4;stroke-linecap:round;stroke-linejoin:round;stroke-miterlimit:10" />
	<path
   stroke-miterlimit="10"
   d="m 1255.511,1578.411 c -17.172,-17.168 -44.975,-17.168 -62.141,0 -17.149,17.146 -17.149,44.959 0.017,62.128 17.161,17.169 44.952,17.158 62.112,0 17.168,-17.169 17.179,-44.96 0.012,-62.128 z m -28.709,33.429 c -1.301,1.301 -3.418,1.301 -4.707,-0.011 -1.306,-1.29 -1.306,-3.42 -0.018,-4.71 1.307,-1.312 3.435,-1.312 4.725,0 1.306,1.29 1.306,3.409 0,4.721 z"
   id="path6624"
   inkscape:connector-curvature="0"
   style="fill:none;stroke:#231f20;stroke-width:4;stroke-linecap:round;stroke-linejoin:round;stroke-miterlimit:10" />
	<path
   stroke-miterlimit="10"
   d="m 1027.5,1808.144 c -20.497,-20.496 -53.684,-20.485 -74.148,0 -20.486,20.475 -20.508,53.66 0,74.146 20.486,20.497 53.662,20.485 74.148,0 20.475,-20.476 20.486,-53.661 0,-74.146 z m -34.721,39.448 c -1.308,1.28 -3.416,1.28 -4.719,-0.011 -1.298,-1.303 -1.309,-3.416 -0.011,-4.719 1.313,-1.304 3.427,-1.304 4.729,0 1.299,1.303 1.309,3.416 10e-4,4.73 z"
   id="path6626"
   inkscape:connector-curvature="0"
   style="fill:none;stroke:#231f20;stroke-width:4;stroke-linecap:round;stroke-linejoin:round;stroke-miterlimit:10" />
	<path
   stroke-miterlimit="10"
   d="m 787.464,2046.457 c -17.172,-17.168 -44.975,-17.168 -62.141,0 -17.15,17.146 -17.15,44.959 0.016,62.128 17.162,17.169 44.953,17.158 62.113,0 17.167,-17.169 17.178,-44.96 0.012,-62.128 z m -28.709,33.429 c -1.301,1.301 -3.418,1.301 -4.707,-0.011 -1.307,-1.29 -1.307,-3.42 -0.018,-4.71 1.307,-1.312 3.434,-1.312 4.725,0 1.305,1.29 1.305,3.409 0,4.721 z"
   id="path6628"
   inkscape:connector-curvature="0"
   style="fill:none;stroke:#231f20;stroke-width:4;stroke-linecap:round;stroke-linejoin:round;stroke-miterlimit:10" />
	<path
   stroke-miterlimit="10"
   d="m 556.957,2275.013 c -20.498,-20.496 -53.684,-20.485 -74.148,0 -20.486,20.475 -20.508,53.66 0,74.146 20.486,20.497 53.662,20.485 74.148,0 20.474,-20.475 20.486,-53.661 0,-74.146 z m -34.721,39.448 c -1.309,1.28 -3.416,1.28 -4.719,-0.011 -1.299,-1.303 -1.309,-3.416 -0.012,-4.719 1.314,-1.304 3.428,-1.304 4.73,0 1.298,1.303 1.309,3.416 10e-4,4.73 z"
   id="path6630"
   inkscape:connector-curvature="0"
   style="fill:none;stroke:#231f20;stroke-width:4;stroke-linecap:round;stroke-linejoin:round;stroke-miterlimit:10" />
	<path
   stroke-miterlimit="10"
   d="m 318.076,2511.515 c -17.172,-17.168 -44.975,-17.168 -62.141,0 -17.15,17.146 -17.15,44.959 0.016,62.128 17.162,17.169 44.953,17.158 62.113,0 17.166,-17.169 17.178,-44.96 0.012,-62.128 z m -28.709,33.428 c -1.301,1.301 -3.418,1.301 -4.707,-0.011 -1.307,-1.29 -1.307,-3.42 -0.018,-4.71 1.307,-1.312 3.434,-1.312 4.725,0 1.305,1.291 1.305,3.41 0,4.721 z"
   id="path6632"
   inkscape:connector-curvature="0"
   style="fill:none;stroke:#231f20;stroke-width:4;stroke-linecap:round;stroke-linejoin:round;stroke-miterlimit:10" />
	<path
   stroke-miterlimit="10"
   d="m 2112.559,256.287 c -17.172,-17.168 -44.975,-17.168 -62.141,0 -17.148,17.146 -17.148,44.959 0.018,62.128 17.16,17.169 44.951,17.158 62.111,0 17.168,-17.169 17.18,-44.96 0.012,-62.128 z m -28.709,33.429 c -1.301,1.301 -3.418,1.301 -4.707,-0.011 -1.305,-1.29 -1.305,-3.42 -0.018,-4.71 1.307,-1.312 3.436,-1.312 4.725,0 1.306,1.29 1.306,3.409 0,4.721 z"
   id="path6634"
   inkscape:connector-curvature="0"
   style="fill:none;stroke:#231f20;stroke-width:4;stroke-linecap:round;stroke-linejoin:round;stroke-miterlimit:10" />
	<path
   stroke-miterlimit="10"
   d="m 1881.268,483.793 c -20.496,-20.496 -53.684,-20.485 -74.148,0 -20.486,20.475 -20.508,53.66 0,74.146 20.486,20.497 53.662,20.485 74.148,0 20.476,-20.475 20.486,-53.66 0,-74.146 z m -34.721,39.449 c -1.307,1.28 -3.416,1.28 -4.719,-0.011 -1.297,-1.303 -1.309,-3.416 -0.01,-4.719 1.313,-1.304 3.426,-1.304 4.729,0 1.299,1.303 1.308,3.416 0,4.73 z"
   id="path6636"
   inkscape:connector-curvature="0"
   style="fill:none;stroke:#231f20;stroke-width:4;stroke-linecap:round;stroke-linejoin:round;stroke-miterlimit:10" />
	<path
   stroke-miterlimit="10"
   d="m 1641.15,723.732 c -17.172,-17.168 -44.975,-17.168 -62.141,0 -17.15,17.146 -17.15,44.959 0.016,62.128 17.162,17.169 44.953,17.158 62.113,0 17.167,-17.169 17.178,-44.96 0.012,-62.128 z m -28.709,33.429 c -1.301,1.301 -3.418,1.301 -4.707,-0.011 -1.307,-1.29 -1.307,-3.42 -0.018,-4.71 1.307,-1.312 3.434,-1.312 4.725,0 1.305,1.29 1.305,3.41 0,4.721 z"
   id="path6638"
   inkscape:connector-curvature="0"
   style="fill:none;stroke:#231f20;stroke-width:4;stroke-linecap:round;stroke-linejoin:round;stroke-miterlimit:10" />
	<path
   stroke-miterlimit="10"
   d="m 1416.139,950.465 c -20.497,-20.496 -53.684,-20.485 -74.148,0 -20.486,20.475 -20.508,53.66 0,74.146 20.486,20.497 53.662,20.485 74.148,0 20.476,-20.475 20.486,-53.661 0,-74.146 z m -34.721,39.448 c -1.308,1.28 -3.416,1.28 -4.719,-0.011 -1.298,-1.303 -1.309,-3.416 -0.011,-4.719 1.313,-1.304 3.427,-1.304 4.729,0 1.299,1.303 1.31,3.417 10e-4,4.73 z"
   id="path6640"
   inkscape:connector-curvature="0"
   style="fill:none;stroke:#231f20;stroke-width:4;stroke-linecap:round;stroke-linejoin:round;stroke-miterlimit:10" />
	<path
   stroke-miterlimit="10"
   d="m 1176.106,1193.5 c -17.172,-17.168 -44.975,-17.168 -62.141,0 -17.149,17.146 -17.149,44.959 0.017,62.128 17.161,17.169 44.952,17.158 62.112,0 17.167,-17.17 17.179,-44.961 0.012,-62.128 z m -28.709,33.428 c -1.301,1.301 -3.418,1.301 -4.707,-0.011 -1.306,-1.29 -1.306,-3.42 -0.018,-4.71 1.307,-1.312 3.435,-1.312 4.725,0 1.306,1.291 1.306,3.41 0,4.721 z"
   id="path6642"
   inkscape:connector-curvature="0"
   style="fill:none;stroke:#231f20;stroke-width:4;stroke-linecap:round;stroke-linejoin:round;stroke-miterlimit:10" />
	<path
   stroke-miterlimit="10"
   d="m 948.094,1419.783 c -20.497,-20.496 -53.684,-20.485 -74.148,0 -20.486,20.475 -20.508,53.66 0,74.146 20.486,20.497 53.662,20.485 74.148,0 20.476,-20.475 20.487,-53.66 0,-74.146 z m -34.72,39.448 c -1.308,1.28 -3.416,1.28 -4.719,-0.011 -1.298,-1.303 -1.309,-3.416 -0.011,-4.719 1.313,-1.304 3.427,-1.304 4.729,0 1.298,1.304 1.309,3.417 10e-4,4.73 z"
   id="path6644"
   inkscape:connector-curvature="0"
   style="fill:none;stroke:#231f20;stroke-width:4;stroke-linecap:round;stroke-linejoin:round;stroke-miterlimit:10" />
	<path
   stroke-miterlimit="10"
   d="m 708.059,1659.826 c -17.172,-17.168 -44.975,-17.168 -62.141,0 -17.15,17.146 -17.15,44.959 0.016,62.128 17.162,17.169 44.953,17.158 62.113,0 17.166,-17.169 17.178,-44.96 0.012,-62.128 z m -28.709,33.429 c -1.301,1.301 -3.418,1.301 -4.707,-0.011 -1.307,-1.29 -1.307,-3.42 -0.018,-4.71 1.307,-1.312 3.434,-1.312 4.725,0 1.305,1.29 1.305,3.409 0,4.721 z"
   id="path6646"
   inkscape:connector-curvature="0"
   style="fill:none;stroke:#231f20;stroke-width:4;stroke-linecap:round;stroke-linejoin:round;stroke-miterlimit:10" />
	<path
   stroke-miterlimit="10"
   d="m 480.047,1889.559 c -20.497,-20.496 -53.684,-20.485 -74.148,0 -20.486,20.475 -20.508,53.66 0,74.146 20.486,20.497 53.662,20.485 74.148,0 20.475,-20.476 20.486,-53.661 0,-74.146 z m -34.721,39.448 c -1.308,1.28 -3.416,1.28 -4.719,-0.011 -1.298,-1.303 -1.309,-3.416 -0.011,-4.719 1.313,-1.304 3.427,-1.304 4.729,0 1.299,1.303 1.31,3.416 0.001,4.73 z"
   id="path6648"
   inkscape:connector-curvature="0"
   style="fill:none;stroke:#231f20;stroke-width:4;stroke-linecap:round;stroke-linejoin:round;stroke-miterlimit:10" />
	<path
   stroke-miterlimit="10"
   d="m 240.012,2127.872 c -17.172,-17.168 -44.975,-17.168 -62.141,0 -17.15,17.146 -17.15,44.959 0.016,62.128 17.162,17.169 44.953,17.158 62.113,0 17.166,-17.169 17.178,-44.96 0.012,-62.128 z m -28.709,33.429 c -1.301,1.301 -3.418,1.301 -4.707,-0.011 -1.307,-1.29 -1.307,-3.42 -0.018,-4.71 1.307,-1.312 3.434,-1.312 4.725,0 1.304,1.29 1.304,3.409 0,4.721 z"
   id="path6650"
   inkscape:connector-curvature="0"
   style="fill:none;stroke:#231f20;stroke-width:4;stroke-linecap:round;stroke-linejoin:round;stroke-miterlimit:10" />
	<path
   stroke-miterlimit="10"
   d="m 319.967,177.993 c -17.172,-17.168 -44.975,-17.168 -62.141,0 -17.149,17.146 -17.149,44.959 0.017,62.128 17.161,17.169 44.952,17.158 62.112,0 17.167,-17.169 17.179,-44.96 0.012,-62.128 z m -28.709,33.428 c -1.301,1.301 -3.418,1.301 -4.707,-0.011 -1.306,-1.29 -1.306,-3.42 -0.018,-4.71 1.307,-1.312 3.435,-1.312 4.725,0 1.305,1.291 1.305,3.41 0,4.721 z"
   id="path6652"
   inkscape:connector-curvature="0"
   style="fill:none;stroke:#231f20;stroke-width:4;stroke-linecap:round;stroke-linejoin:round;stroke-miterlimit:10" />
	<path
   stroke-miterlimit="10"
   d="m 1493.38,407.106 c -20.497,-20.496 -53.684,-20.485 -74.148,0 -20.486,20.475 -20.508,53.66 0,74.146 20.486,20.497 53.662,20.485 74.148,0 20.475,-20.475 20.486,-53.66 0,-74.146 z m -34.721,39.449 c -1.308,1.28 -3.416,1.28 -4.719,-0.011 -1.298,-1.303 -1.309,-3.416 -0.011,-4.719 1.313,-1.304 3.427,-1.304 4.729,0 1.299,1.303 1.31,3.416 0,4.73 z"
   id="path6654"
   inkscape:connector-curvature="0"
   style="fill:none;stroke:#231f20;stroke-width:4;stroke-linecap:round;stroke-linejoin:round;stroke-miterlimit:10" />
	<path
   stroke-miterlimit="10"
   d="m 1253.51,645.71 c -17.172,-17.168 -44.975,-17.168 -62.141,0 -17.149,17.146 -17.149,44.959 0.017,62.128 17.161,17.169 44.952,17.158 62.112,0 17.167,-17.169 17.179,-44.96 0.012,-62.128 z m -28.709,33.429 c -1.301,1.301 -3.418,1.301 -4.707,-0.011 -1.306,-1.29 -1.306,-3.42 -0.018,-4.71 1.307,-1.312 3.435,-1.312 4.725,0 1.305,1.29 1.305,3.41 0,4.721 z"
   id="path6656"
   inkscape:connector-curvature="0"
   style="fill:none;stroke:#231f20;stroke-width:4;stroke-linecap:round;stroke-linejoin:round;stroke-miterlimit:10" />
	<path
   stroke-miterlimit="10"
   d="m 1025.001,873.557 c -20.497,-20.496 -53.684,-20.485 -74.148,0 -20.486,20.475 -20.508,53.66 0,74.146 20.486,20.497 53.662,20.485 74.148,0 20.476,-20.475 20.486,-53.661 0,-74.146 z m -34.721,39.448 c -1.308,1.28 -3.416,1.28 -4.719,-0.011 -1.298,-1.303 -1.309,-3.416 -0.011,-4.719 1.313,-1.304 3.427,-1.304 4.729,0 1.299,1.303 1.31,3.416 10e-4,4.73 z"
   id="path6658"
   inkscape:connector-curvature="0"
   style="fill:none;stroke:#231f20;stroke-width:4;stroke-linecap:round;stroke-linejoin:round;stroke-miterlimit:10" />
	<path
   stroke-miterlimit="10"
   d="m 784.968,1113.639 c -17.172,-17.168 -44.975,-17.168 -62.141,0 -17.149,17.146 -17.149,44.959 0.017,62.128 17.161,17.169 44.952,17.158 62.112,0 17.167,-17.169 17.179,-44.96 0.012,-62.128 z m -28.709,33.429 c -1.301,1.301 -3.418,1.301 -4.707,-0.011 -1.306,-1.29 -1.306,-3.42 -0.018,-4.71 1.307,-1.312 3.435,-1.312 4.725,0 1.305,1.29 1.305,3.409 0,4.721 z"
   id="path6660"
   inkscape:connector-curvature="0"
   style="fill:none;stroke:#231f20;stroke-width:4;stroke-linecap:round;stroke-linejoin:round;stroke-miterlimit:10" />
	<path
   stroke-miterlimit="10"
   d="m 556.956,1339.923 c -20.497,-20.496 -53.684,-20.485 -74.148,0 -20.486,20.475 -20.508,53.66 0,74.146 20.486,20.497 53.662,20.485 74.148,0 20.476,-20.475 20.486,-53.661 0,-74.146 z m -34.721,39.448 c -1.308,1.28 -3.416,1.28 -4.719,-0.011 -1.298,-1.303 -1.309,-3.416 -0.011,-4.719 1.313,-1.304 3.427,-1.304 4.729,0 1.299,1.303 1.31,3.417 10e-4,4.73 z"
   id="path6662"
   inkscape:connector-curvature="0"
   style="fill:none;stroke:#231f20;stroke-width:4;stroke-linecap:round;stroke-linejoin:round;stroke-miterlimit:10" />
	<path
   stroke-miterlimit="10"
   d="m 316.921,1579.966 c -17.172,-17.168 -44.975,-17.168 -62.141,0 -17.15,17.146 -17.15,44.959 0.016,62.128 17.162,17.169 44.953,17.158 62.113,0 17.166,-17.169 17.178,-44.96 0.012,-62.128 z m -28.709,33.429 c -1.301,1.301 -3.418,1.301 -4.707,-0.011 -1.307,-1.29 -1.307,-3.42 -0.018,-4.71 1.307,-1.312 3.434,-1.312 4.725,0 1.305,1.29 1.305,3.409 0,4.721 z"
   id="path6664"
   inkscape:connector-curvature="0"
   style="fill:none;stroke:#231f20;stroke-width:4;stroke-linecap:round;stroke-linejoin:round;stroke-miterlimit:10" />
	<path
   stroke-miterlimit="10"
   d="m 948.094,483.793 c -20.497,-20.496 -53.684,-20.485 -74.148,0 -20.486,20.475 -20.508,53.66 0,74.146 20.486,20.497 53.662,20.485 74.148,0 20.476,-20.475 20.487,-53.66 0,-74.146 z m -34.72,39.449 c -1.308,1.28 -3.416,1.28 -4.719,-0.011 -1.298,-1.303 -1.309,-3.416 -0.011,-4.719 1.313,-1.304 3.427,-1.304 4.729,0 1.298,1.303 1.309,3.416 10e-4,4.73 z"
   id="path6666"
   inkscape:connector-curvature="0"
   style="fill:none;stroke:#231f20;stroke-width:4;stroke-linecap:round;stroke-linejoin:round;stroke-miterlimit:10" />
	<path
   stroke-miterlimit="10"
   d="m 708.058,723.732 c -17.172,-17.168 -44.975,-17.168 -62.141,0 -17.149,17.146 -17.149,44.959 0.017,62.128 17.161,17.169 44.952,17.158 62.112,0 17.167,-17.169 17.179,-44.96 0.012,-62.128 z m -28.709,33.429 c -1.301,1.301 -3.418,1.301 -4.707,-0.011 -1.306,-1.29 -1.306,-3.42 -0.018,-4.71 1.307,-1.312 3.435,-1.312 4.725,0 1.306,1.29 1.306,3.41 0,4.721 z"
   id="path6668"
   inkscape:connector-curvature="0"
   style="fill:none;stroke:#231f20;stroke-width:4;stroke-linecap:round;stroke-linejoin:round;stroke-miterlimit:10" />
	<path
   stroke-miterlimit="10"
   d="m 479.996,953.083 c -20.497,-20.496 -53.684,-20.485 -74.148,0 -20.486,20.475 -20.508,53.66 0,74.146 20.486,20.497 53.662,20.485 74.148,0 20.475,-20.475 20.486,-53.661 0,-74.146 z m -34.721,39.448 c -1.308,1.28 -3.416,1.28 -4.719,-0.011 -1.298,-1.303 -1.309,-3.416 -0.011,-4.719 1.313,-1.304 3.427,-1.304 4.729,0 1.299,1.303 1.309,3.417 10e-4,4.73 z"
   id="path6670"
   inkscape:connector-curvature="0"
   style="fill:none;stroke:#231f20;stroke-width:4;stroke-linecap:round;stroke-linejoin:round;stroke-miterlimit:10" />
	<path
   stroke-miterlimit="10"
   d="m 240.122,1194.035 c -17.172,-17.168 -44.975,-17.168 -62.141,0 -17.149,17.146 -17.149,44.959 0.017,62.128 17.161,17.169 44.952,17.158 62.112,0 17.167,-17.169 17.179,-44.96 0.012,-62.128 z m -28.709,33.429 c -1.301,1.301 -3.418,1.301 -4.707,-0.011 -1.306,-1.29 -1.306,-3.42 -0.018,-4.71 1.307,-1.312 3.435,-1.312 4.725,0 1.306,1.29 1.306,3.409 0,4.721 z"
   id="path6672"
   inkscape:connector-curvature="0"
   style="fill:none;stroke:#231f20;stroke-width:4;stroke-linecap:round;stroke-linejoin:round;stroke-miterlimit:10" />
	<path
   stroke-miterlimit="10"
   d="m 2342.619,178.991 c -17.172,-17.168 -44.975,-17.168 -62.141,0 -17.148,17.146 -17.148,44.959 0.018,62.128 17.16,17.169 44.951,17.158 62.111,0 17.168,-17.169 17.18,-44.96 0.012,-62.128 z m -28.709,33.429 c -1.301,1.301 -3.418,1.301 -4.707,-0.011 -1.305,-1.29 -1.305,-3.42 -0.018,-4.71 1.307,-1.312 3.436,-1.312 4.725,0 1.307,1.29 1.307,3.409 0,4.721 z"
   id="path6674"
   inkscape:connector-curvature="0"
   style="fill:none;stroke:#231f20;stroke-width:4;stroke-linecap:round;stroke-linejoin:round;stroke-miterlimit:10" />
	<path
   stroke-miterlimit="10"
   d="m 1409.523,181.708 c -17.172,-17.168 -44.975,-17.168 -62.141,0 -17.148,17.146 -17.148,44.959 0.018,62.128 17.16,17.169 44.951,17.158 62.111,0 17.169,-17.169 17.18,-44.961 0.012,-62.128 z m -28.709,33.428 c -1.301,1.301 -3.418,1.301 -4.707,-0.011 -1.305,-1.29 -1.305,-3.42 -0.018,-4.71 1.307,-1.312 3.436,-1.312 4.725,0 1.307,1.291 1.307,3.41 0,4.721 z"
   id="path6676"
   inkscape:connector-curvature="0"
   style="fill:none;stroke:#231f20;stroke-width:4;stroke-linecap:round;stroke-linejoin:round;stroke-miterlimit:10" />
	<path
   stroke-miterlimit="10"
   d="m 557.947,403.854 c -20.496,-20.496 -53.683,-20.485 -74.148,0 -20.486,20.475 -20.508,53.66 0,74.146 20.486,20.497 53.662,20.485 74.148,0 20.477,-20.475 20.487,-53.66 0,-74.146 z m -34.72,39.449 c -1.308,1.28 -3.416,1.28 -4.719,-0.011 -1.298,-1.303 -1.309,-3.416 -0.011,-4.719 1.313,-1.304 3.427,-1.304 4.729,0 1.299,1.303 1.31,3.416 10e-4,4.73 z"
   id="path6678"
   inkscape:connector-curvature="0"
   style="fill:none;stroke:#231f20;stroke-width:4;stroke-linecap:round;stroke-linejoin:round;stroke-miterlimit:10" />
	<path
   stroke-miterlimit="10"
   d="m 316.921,646.889 c -17.172,-17.168 -44.975,-17.168 -62.141,0 -17.149,17.146 -17.149,44.959 0.017,62.128 17.161,17.169 44.952,17.158 62.112,0 17.167,-17.169 17.179,-44.96 0.012,-62.128 z m -28.709,33.429 c -1.301,1.301 -3.418,1.301 -4.707,-0.011 -1.306,-1.29 -1.306,-3.42 -0.018,-4.71 1.307,-1.312 3.435,-1.312 4.725,0 1.306,1.29 1.306,3.409 0,4.721 z"
   id="path6680"
   inkscape:connector-curvature="0"
   style="fill:none;stroke:#231f20;stroke-width:4;stroke-linecap:round;stroke-linejoin:round;stroke-miterlimit:10" />
	<path
   stroke-miterlimit="10"
   d="m 722.243,2579.838 c 17.172,17.168 44.975,17.168 62.141,0 17.148,-17.146 17.148,-44.959 -0.018,-62.127 -17.16,-17.17 -44.951,-17.158 -62.111,0 -17.168,17.168 -17.18,44.959 -0.012,62.127 z m 28.709,-33.428 c 1.301,-1.301 3.418,-1.301 4.707,0.01 1.305,1.291 1.305,3.42 0.018,4.711 -1.307,1.311 -3.436,1.311 -4.725,0 -1.306,-1.291 -1.306,-3.41 0,-4.721 z"
   id="path6682"
   inkscape:connector-curvature="0"
   style="fill:none;stroke:#231f20;stroke-width:4;stroke-linecap:round;stroke-linejoin:round;stroke-miterlimit:10" />
	<path
   stroke-miterlimit="10"
   d="m 951.504,2349.158 c 20.496,20.496 53.684,20.486 74.148,0 20.486,-20.475 20.508,-53.66 0,-74.145 -20.486,-20.498 -53.662,-20.486 -74.148,0 -20.476,20.475 -20.486,53.661 0,74.145 z m 34.721,-39.447 c 1.307,-1.281 3.416,-1.281 4.719,0.01 1.297,1.303 1.309,3.416 0.01,4.719 -1.313,1.305 -3.426,1.305 -4.729,0 -1.299,-1.303 -1.308,-3.417 0,-4.729 z"
   id="path6684"
   inkscape:connector-curvature="0"
   style="fill:none;stroke:#231f20;stroke-width:4;stroke-linecap:round;stroke-linejoin:round;stroke-miterlimit:10" />
	<path
   stroke-miterlimit="10"
   d="m 1193.651,2112.393 c 17.172,17.168 44.975,17.168 62.141,0 17.15,-17.146 17.15,-44.959 -0.016,-62.127 -17.162,-17.17 -44.953,-17.158 -62.113,0 -17.166,17.168 -17.178,44.959 -0.012,62.127 z m 28.709,-33.428 c 1.301,-1.301 3.418,-1.301 4.707,0.01 1.307,1.291 1.307,3.42 0.018,4.711 -1.307,1.311 -3.434,1.311 -4.725,0 -1.304,-1.291 -1.304,-3.411 0,-4.721 z"
   id="path6686"
   inkscape:connector-curvature="0"
   style="fill:none;stroke:#231f20;stroke-width:4;stroke-linecap:round;stroke-linejoin:round;stroke-miterlimit:10" />
	<path
   stroke-miterlimit="10"
   d="m 1421.387,1883.135 c 20.496,20.496 53.684,20.486 74.148,0 20.486,-20.475 20.508,-53.66 0,-74.145 -20.486,-20.498 -53.662,-20.486 -74.148,0 -20.477,20.475 -20.487,53.66 0,74.145 z m 34.72,-39.447 c 1.307,-1.281 3.416,-1.281 4.719,0.01 1.297,1.303 1.309,3.416 0.01,4.719 -1.313,1.305 -3.426,1.305 -4.729,0 -1.298,-1.304 -1.308,-3.417 0,-4.729 z"
   id="path6688"
   inkscape:connector-curvature="0"
   style="fill:none;stroke:#231f20;stroke-width:4;stroke-linecap:round;stroke-linejoin:round;stroke-miterlimit:10" />
	<path
   stroke-miterlimit="10"
   d="m 1658.696,1642.625 c 17.172,17.168 44.975,17.168 62.141,0 17.148,-17.146 17.148,-44.959 -0.018,-62.127 -17.16,-17.17 -44.951,-17.158 -62.111,0 -17.168,17.168 -17.18,44.959 -0.012,62.127 z m 28.709,-33.428 c 1.301,-1.301 3.418,-1.301 4.707,0.01 1.305,1.291 1.305,3.42 0.018,4.711 -1.307,1.311 -3.436,1.311 -4.725,0 -1.306,-1.291 -1.306,-3.41 0,-4.721 z"
   id="path6690"
   inkscape:connector-curvature="0"
   style="fill:none;stroke:#231f20;stroke-width:4;stroke-linecap:round;stroke-linejoin:round;stroke-miterlimit:10" />
	<path
   stroke-miterlimit="10"
   d="m 1886.708,1416.342 c 20.496,20.496 53.684,20.486 74.148,0 20.486,-20.475 20.508,-53.66 0,-74.146 -20.486,-20.497 -53.662,-20.485 -74.148,0 -20.477,20.475 -20.486,53.661 0,74.146 z m 34.721,-39.448 c 1.307,-1.28 3.416,-1.28 4.719,0.011 1.297,1.303 1.309,3.416 0.01,4.719 -1.313,1.304 -3.426,1.304 -4.729,0 -1.299,-1.303 -1.309,-3.416 0,-4.73 z"
   id="path6692"
   inkscape:connector-curvature="0"
   style="fill:none;stroke:#231f20;stroke-width:4;stroke-linecap:round;stroke-linejoin:round;stroke-miterlimit:10" />
	<path
   stroke-miterlimit="10"
   d="m 2126.743,1176.299 c 17.172,17.168 44.975,17.168 62.141,0 17.149,-17.146 17.149,-44.959 -0.016,-62.128 -17.162,-17.169 -44.953,-17.158 -62.113,0 -17.166,17.169 -17.178,44.96 -0.012,62.128 z m 28.709,-33.428 c 1.301,-1.301 3.418,-1.301 4.707,0.011 1.307,1.29 1.307,3.42 0.018,4.71 -1.307,1.312 -3.434,1.312 -4.725,0 -1.305,-1.291 -1.305,-3.41 0,-4.721 z"
   id="path6694"
   inkscape:connector-curvature="0"
   style="fill:none;stroke:#231f20;stroke-width:4;stroke-linecap:round;stroke-linejoin:round;stroke-miterlimit:10" />
	<path
   stroke-miterlimit="10"
   d="m 2354.755,946.567 c 20.497,20.496 53.684,20.485 74.148,0 20.486,-20.475 20.508,-53.66 0,-74.146 -20.486,-20.497 -53.662,-20.485 -74.148,0 -20.476,20.475 -20.486,53.661 0,74.146 z m 34.721,-39.448 c 1.308,-1.28 3.416,-1.28 4.719,0.011 1.298,1.303 1.309,3.416 0.011,4.719 -1.313,1.304 -3.427,1.304 -4.729,0 -1.299,-1.304 -1.31,-3.417 -10e-4,-4.73 z"
   id="path6696"
   inkscape:connector-curvature="0"
   style="fill:none;stroke:#231f20;stroke-width:4;stroke-linecap:round;stroke-linejoin:round;stroke-miterlimit:10" />
	<path
   stroke-miterlimit="10"
   d="m 2594.79,708.253 c 17.172,17.168 44.975,17.168 62.141,0 17.15,-17.146 17.15,-44.959 -0.016,-62.128 -17.162,-17.169 -44.953,-17.158 -62.113,0 -17.166,17.169 -17.178,44.96 -0.012,62.128 z m 28.709,-33.428 c 1.301,-1.301 3.418,-1.301 4.707,0.011 1.307,1.29 1.307,3.42 0.018,4.71 -1.307,1.312 -3.434,1.312 -4.725,0 -1.305,-1.291 -1.305,-3.41 0,-4.721 z"
   id="path6698"
   inkscape:connector-curvature="0"
   style="fill:none;stroke:#231f20;stroke-width:4;stroke-linecap:round;stroke-linejoin:round;stroke-miterlimit:10" />
	<path
   stroke-miterlimit="10"
   d="m 2513.381,2655.699 c 17.172,17.168 44.975,17.168 62.141,0 17.149,-17.146 17.149,-44.959 -0.017,-62.129 -17.161,-17.168 -44.952,-17.158 -62.112,0 -17.167,17.17 -17.179,44.961 -0.012,62.129 z m 28.709,-33.429 c 1.301,-1.301 3.418,-1.301 4.707,0.012 1.306,1.289 1.306,3.42 0.018,4.709 -1.307,1.313 -3.435,1.313 -4.725,0 -1.306,-1.29 -1.306,-3.409 0,-4.721 z"
   id="path6700"
   inkscape:connector-curvature="0"
   style="fill:none;stroke:#231f20;stroke-width:4;stroke-linecap:round;stroke-linejoin:round;stroke-miterlimit:10" />
	<path
   stroke-miterlimit="10"
   d="m 1344.672,2429.02 c 20.497,20.496 53.684,20.484 74.148,0 20.486,-20.475 20.508,-53.66 0,-74.146 -20.486,-20.496 -53.662,-20.484 -74.148,0 -20.476,20.474 -20.486,53.659 0,74.146 z m 34.721,-39.45 c 1.308,-1.279 3.416,-1.279 4.719,0.012 1.298,1.303 1.309,3.416 0.011,4.719 -1.313,1.303 -3.427,1.303 -4.729,0 -1.299,-1.303 -1.31,-3.416 -10e-4,-4.731 z"
   id="path6702"
   inkscape:connector-curvature="0"
   style="fill:none;stroke:#231f20;stroke-width:4;stroke-linecap:round;stroke-linejoin:round;stroke-miterlimit:10" />
	<path
   stroke-miterlimit="10"
   d="m 1584.79,2192.254 c 17.172,17.168 44.975,17.168 62.141,0 17.149,-17.146 17.149,-44.959 -0.017,-62.129 -17.161,-17.168 -44.952,-17.158 -62.112,0 -17.167,17.17 -17.179,44.961 -0.012,62.129 z m 28.709,-33.43 c 1.301,-1.301 3.418,-1.301 4.707,0.012 1.306,1.289 1.306,3.42 0.018,4.709 -1.307,1.313 -3.435,1.313 -4.725,0 -1.306,-1.289 -1.306,-3.408 0,-4.721 z"
   id="path6704"
   inkscape:connector-curvature="0"
   style="fill:none;stroke:#231f20;stroke-width:4;stroke-linecap:round;stroke-linejoin:round;stroke-miterlimit:10" />
	<path
   stroke-miterlimit="10"
   d="m 1808.982,1965.521 c 20.497,20.496 53.684,20.484 74.148,0 20.486,-20.475 20.508,-53.66 0,-74.146 -20.486,-20.496 -53.662,-20.484 -74.148,0 -20.475,20.475 -20.486,53.66 0,74.146 z m 34.721,-39.449 c 1.308,-1.279 3.416,-1.279 4.719,0.012 1.298,1.303 1.309,3.416 0.011,4.719 -1.313,1.303 -3.427,1.303 -4.729,0 -1.299,-1.303 -1.309,-3.416 -10e-4,-4.731 z"
   id="path6706"
   inkscape:connector-curvature="0"
   style="fill:none;stroke:#231f20;stroke-width:4;stroke-linecap:round;stroke-linejoin:round;stroke-miterlimit:10" />
	<path
   stroke-miterlimit="10"
   d="m 2049.834,1722.486 c 17.172,17.168 44.975,17.168 62.141,0 17.149,-17.146 17.149,-44.959 -0.017,-62.129 -17.161,-17.168 -44.952,-17.158 -62.112,0 -17.167,17.17 -17.179,44.961 -0.012,62.129 z m 28.709,-33.429 c 1.301,-1.301 3.418,-1.301 4.707,0.012 1.306,1.289 1.306,3.42 0.018,4.709 -1.307,1.313 -3.435,1.313 -4.725,0 -1.306,-1.29 -1.306,-3.409 0,-4.721 z"
   id="path6708"
   inkscape:connector-curvature="0"
   style="fill:none;stroke:#231f20;stroke-width:4;stroke-linecap:round;stroke-linejoin:round;stroke-miterlimit:10" />
	<path
   stroke-miterlimit="10"
   d="m 2277.846,1496.203 c 20.497,20.496 53.684,20.484 74.148,0 20.486,-20.475 20.508,-53.66 0,-74.146 -20.486,-20.497 -53.662,-20.485 -74.148,0 -20.476,20.474 -20.487,53.66 0,74.146 z m 34.72,-39.449 c 1.308,-1.279 3.416,-1.279 4.719,0.012 1.298,1.303 1.309,3.416 0.011,4.719 -1.313,1.303 -3.427,1.303 -4.729,0 -1.298,-1.303 -1.309,-3.417 -0,-4.731 z"
   id="path6710"
   inkscape:connector-curvature="0"
   style="fill:none;stroke:#231f20;stroke-width:4;stroke-linecap:round;stroke-linejoin:round;stroke-miterlimit:10" />
	<path
   stroke-miterlimit="10"
   d="m 2514.834,1256.16 c 17.172,17.168 44.975,17.168 62.141,0 17.149,-17.146 17.149,-44.959 -0.016,-62.128 -17.162,-17.169 -44.953,-17.158 -62.113,0 -17.166,17.169 -17.178,44.96 -0.012,62.128 z m 28.709,-33.429 c 1.301,-1.301 3.418,-1.301 4.707,0.011 1.307,1.29 1.307,3.42 0.018,4.71 -1.307,1.312 -3.434,1.312 -4.725,0 -1.305,-1.29 -1.305,-3.41 0,-4.721 z"
   id="path6712"
   inkscape:connector-curvature="0"
   style="fill:none;stroke:#231f20;stroke-width:4;stroke-linecap:round;stroke-linejoin:round;stroke-miterlimit:10" />
	<path
   stroke-miterlimit="10"
   d="m 1886.708,2350.854 c 20.496,20.496 53.684,20.484 74.148,0 20.486,-20.475 20.508,-53.66 0,-74.146 -20.486,-20.496 -53.662,-20.484 -74.148,0 -20.477,20.475 -20.486,53.66 0,74.146 z m 34.721,-39.449 c 1.307,-1.279 3.416,-1.279 4.719,0.012 1.297,1.303 1.309,3.416 0.01,4.719 -1.313,1.303 -3.426,1.303 -4.729,0 -1.299,-1.303 -1.309,-3.416 0,-4.731 z"
   id="path6714"
   inkscape:connector-curvature="0"
   style="fill:none;stroke:#231f20;stroke-width:4;stroke-linecap:round;stroke-linejoin:round;stroke-miterlimit:10" />
	<path
   stroke-miterlimit="10"
   d="m 2126.743,2109.775 c 17.172,17.168 44.975,17.168 62.141,0 17.15,-17.146 17.15,-44.959 -0.016,-62.129 -17.162,-17.168 -44.953,-17.158 -62.113,0 -17.166,17.17 -17.178,44.961 -0.012,62.129 z m 28.709,-33.429 c 1.301,-1.301 3.418,-1.301 4.707,0.012 1.307,1.289 1.307,3.42 0.018,4.709 -1.307,1.313 -3.434,1.313 -4.725,0 -1.305,-1.29 -1.305,-3.409 0,-4.721 z"
   id="path6716"
   inkscape:connector-curvature="0"
   style="fill:none;stroke:#231f20;stroke-width:4;stroke-linecap:round;stroke-linejoin:round;stroke-miterlimit:10" />
	<path
   stroke-miterlimit="10"
   d="m 2354.654,1883.136 c 20.496,20.496 53.684,20.484 74.148,0 20.486,-20.475 20.508,-53.66 0,-74.146 -20.486,-20.496 -53.662,-20.484 -74.148,0 -20.476,20.474 -20.486,53.659 0,74.146 z m 34.721,-39.449 c 1.307,-1.279 3.416,-1.279 4.719,0.012 1.297,1.303 1.309,3.416 0.01,4.719 -1.313,1.303 -3.426,1.303 -4.729,0 -1.299,-1.304 -1.309,-3.417 0,-4.731 z"
   id="path6718"
   inkscape:connector-curvature="0"
   style="fill:none;stroke:#231f20;stroke-width:4;stroke-linecap:round;stroke-linejoin:round;stroke-miterlimit:10" />
	<path
   stroke-miterlimit="10"
   d="m 2594.527,1640.008 c 17.172,17.168 44.975,17.168 62.141,0 17.148,-17.146 17.148,-44.959 -0.018,-62.129 -17.16,-17.168 -44.951,-17.158 -62.111,0 -17.168,17.17 -17.18,44.961 -0.012,62.129 z m 28.709,-33.43 c 1.301,-1.301 3.418,-1.301 4.707,0.012 1.305,1.289 1.305,3.42 0.018,4.709 -1.307,1.313 -3.436,1.313 -4.725,0 -1.306,-1.289 -1.306,-3.408 0,-4.721 z"
   id="path6720"
   inkscape:connector-curvature="0"
   style="fill:none;stroke:#231f20;stroke-width:4;stroke-linecap:round;stroke-linejoin:round;stroke-miterlimit:10" />
	<path
   stroke-miterlimit="10"
   d="m 1425.278,2654.418 c 17.172,17.168 44.975,17.168 62.141,0 17.148,-17.146 17.148,-44.959 -0.018,-62.129 -17.16,-17.168 -44.951,-17.158 -62.111,0 -17.168,17.17 -17.18,44.961 -0.012,62.129 z m 28.709,-33.43 c 1.301,-1.301 3.418,-1.301 4.707,0.012 1.305,1.289 1.305,3.42 0.018,4.709 -1.307,1.313 -3.436,1.313 -4.725,0 -1.306,-1.289 -1.306,-3.408 0,-4.721 z"
   id="path6722"
   inkscape:connector-curvature="0"
   style="fill:none;stroke:#231f20;stroke-width:4;stroke-linecap:round;stroke-linejoin:round;stroke-miterlimit:10" />
	<path
   stroke-miterlimit="10"
   d="m 2276.701,2428.808 c 20.496,20.496 53.684,20.484 74.148,0 20.486,-20.475 20.508,-53.66 0,-74.146 -20.486,-20.496 -53.662,-20.484 -74.148,0 -20.476,20.474 -20.486,53.659 0,74.146 z m 34.721,-39.45 c 1.307,-1.279 3.416,-1.279 4.719,0.012 1.297,1.303 1.309,3.416 0.01,4.719 -1.313,1.303 -3.426,1.303 -4.729,0 -1.299,-1.303 -1.309,-3.416 0,-4.731 z"
   id="path6724"
   inkscape:connector-curvature="0"
   style="fill:none;stroke:#231f20;stroke-width:4;stroke-linecap:round;stroke-linejoin:round;stroke-miterlimit:10" />
	<path
   stroke-miterlimit="10"
   d="m 2514.835,2189.236 c 17.172,17.168 44.975,17.168 62.141,0 17.148,-17.146 17.148,-44.959 -0.018,-62.129 -17.16,-17.168 -44.951,-17.158 -62.111,0 -17.168,17.17 -17.18,44.961 -0.012,62.129 z m 28.709,-33.429 c 1.301,-1.301 3.418,-1.301 4.707,0.012 1.305,1.289 1.305,3.42 0.018,4.709 -1.307,1.313 -3.436,1.313 -4.725,0 -1.307,-1.29 -1.307,-3.409 0,-4.721 z"
   id="path6726"
   inkscape:connector-curvature="0"
   style="fill:none;stroke:#231f20;stroke-width:4;stroke-linecap:round;stroke-linejoin:round;stroke-miterlimit:10" />
	<path
   stroke-miterlimit="10"
   d="m 2588.512,1961.088 c 20.496,20.496 53.684,20.484 74.148,0 20.486,-20.475 20.508,-53.66 0,-74.146 -20.486,-20.496 -53.662,-20.484 -74.148,0 -20.477,20.474 -20.487,53.66 0,74.146 z m 34.72,-39.449 c 1.307,-1.279 3.416,-1.279 4.719,0.012 1.297,1.303 1.309,3.416 0.01,4.719 -1.313,1.303 -3.426,1.303 -4.729,0 -1.298,-1.304 -1.308,-3.417 0,-4.731 z"
   id="path6728"
   inkscape:connector-curvature="0"
   style="fill:none;stroke:#231f20;stroke-width:4;stroke-linecap:round;stroke-linejoin:round;stroke-miterlimit:10" />
	<path
   stroke-miterlimit="10"
   d="m 2588.512,1024.611 c 20.496,20.496 53.684,20.484 74.148,0 20.486,-20.475 20.508,-53.66 0,-74.146 -20.486,-20.496 -53.662,-20.484 -74.148,0 -20.477,20.474 -20.487,53.66 0,74.146 z m 34.72,-39.449 c 1.307,-1.279 3.416,-1.279 4.719,0.012 1.297,1.303 1.309,3.416 0.01,4.719 -1.313,1.303 -3.426,1.303 -4.729,0 -1.298,-1.304 -1.308,-3.417 0,-4.731 z"
   id="path6730"
   inkscape:connector-curvature="0"
   style="fill:none;stroke:#231f20;stroke-width:4;stroke-linecap:round;stroke-linejoin:round;stroke-miterlimit:10" />
	<path
   stroke-miterlimit="10"
   d="m 483.282,2663.656 c 20.496,20.496 53.684,20.484 74.148,0 20.486,-20.475 20.508,-53.66 0,-74.146 -20.486,-20.496 -53.662,-20.484 -74.148,0 -20.476,20.474 -20.486,53.66 0,74.146 z m 34.721,-39.449 c 1.307,-1.279 3.416,-1.279 4.719,0.012 1.297,1.303 1.309,3.416 0.01,4.719 -1.313,1.303 -3.426,1.303 -4.729,0 -1.299,-1.303 -1.309,-3.417 0,-4.731 z"
   id="path6732"
   inkscape:connector-curvature="0"
   style="fill:none;stroke:#231f20;stroke-width:4;stroke-linecap:round;stroke-linejoin:round;stroke-miterlimit:10" />
	<path
   stroke-miterlimit="10"
   d="m 171.866,1883.043 c 20.496,20.496 53.684,20.484 74.148,0 20.486,-20.475 20.508,-53.66 0,-74.146 -20.486,-20.496 -53.662,-20.484 -74.148,0 -20.477,20.474 -20.487,53.66 0,74.146 z m 34.72,-39.449 c 1.307,-1.279 3.416,-1.279 4.719,0.012 1.297,1.303 1.309,3.416 0.01,4.719 -1.313,1.303 -3.426,1.303 -4.729,0 -1.298,-1.304 -1.308,-3.417 0,-4.731 z"
   id="path6734"
   inkscape:connector-curvature="0"
   style="fill:none;stroke:#231f20;stroke-width:4;stroke-linecap:round;stroke-linejoin:round;stroke-miterlimit:10" />
	<path
   stroke-miterlimit="10"
   d="m 1107.96,324.081 c 20.496,20.496 53.684,20.484 74.148,0 20.486,-20.475 20.508,-53.66 0,-74.146 -20.486,-20.496 -53.662,-20.484 -74.148,0 -20.477,20.474 -20.486,53.66 0,74.146 z m 34.721,-39.449 c 1.307,-1.279 3.416,-1.279 4.719,0.012 1.297,1.303 1.309,3.416 0.01,4.719 -1.313,1.303 -3.426,1.303 -4.729,0 -1.299,-1.303 -1.309,-3.417 0,-4.731 z"
   id="path6736"
   inkscape:connector-curvature="0"
   style="fill:none;stroke:#231f20;stroke-width:4;stroke-linecap:round;stroke-linejoin:round;stroke-miterlimit:10" />
	<path
   stroke-miterlimit="10"
   d="m 171.976,947.703 c 20.496,20.496 53.684,20.484 74.148,0 20.486,-20.475 20.508,-53.66 0,-74.146 -20.486,-20.496 -53.662,-20.484 -74.148,0 -20.476,20.474 -20.486,53.66 0,74.146 z m 34.721,-39.449 c 1.307,-1.279 3.416,-1.279 4.719,0.012 1.297,1.303 1.309,3.416 0.01,4.719 -1.313,1.303 -3.426,1.303 -4.729,0 -1.299,-1.303 -1.309,-3.417 0,-4.731 z"
   id="path6738"
   inkscape:connector-curvature="0"
   style="fill:none;stroke:#231f20;stroke-width:4;stroke-linecap:round;stroke-linejoin:round;stroke-miterlimit:10" />
	<path
   stroke-miterlimit="10"
   d="m 1655.412,2584.712 c 20.496,20.496 53.684,20.484 74.148,0 20.486,-20.475 20.508,-53.66 0,-74.146 -20.486,-20.496 -53.662,-20.484 -74.148,0 -20.476,20.474 -20.486,53.66 0,74.146 z m 34.721,-39.449 c 1.307,-1.279 3.416,-1.279 4.719,0.012 1.297,1.303 1.309,3.416 0.01,4.719 -1.313,1.303 -3.426,1.303 -4.729,0 -1.299,-1.304 -1.309,-3.417 0,-4.731 z"
   id="path6740"
   inkscape:connector-curvature="0"
   style="fill:none;stroke:#231f20;stroke-width:4;stroke-linecap:round;stroke-linejoin:round;stroke-miterlimit:10" />
</g>

<g
   inkscape:groupmode="layer"
   id="layer4"
   inkscape:label="Layer"
   style="display:inline" /><g
   inkscape:groupmode="layer"
   id="layer5"
   inkscape:label="Layer#1"
   style="display:none"><g
     id="maryte"
     inkscape:label="#Layer_11"
     transform="translate(-0.07601031,-0.73746871)"><line
       stroke-miterlimit="10"
       x1="2389.9629"
       y1="441.23001"
       x2="2157.479"
       y2="673.71399"
       id="line6743"
       style="fill:#ffffff;stroke:#ec008c;stroke-width:4;stroke-miterlimit:10" /><line
       stroke-miterlimit="10"
       x1="2161.939"
       y1="672.25403"
       x2="1929.455"
       y2="904.737"
       id="line6745"
       style="fill:#ffffff;stroke:#ec008c;stroke-width:4;stroke-miterlimit:10" /><line
       stroke-miterlimit="10"
       x1="1924.951"
       y1="909.27002"
       x2="1692.467"
       y2="1141.7531"
       id="line6747"
       style="fill:#ffffff;stroke:#ec008c;stroke-width:4;stroke-miterlimit:10" /><line
       stroke-miterlimit="10"
       x1="1690.373"
       y1="1144.892"
       x2="1457.889"
       y2="1377.375"
       id="line6749"
       style="fill:#ffffff;stroke:#ec008c;stroke-width:4;stroke-miterlimit:10" /><line
       stroke-miterlimit="10"
       x1="1457.338"
       y1="1376.91"
       x2="1224.854"
       y2="1609.394"
       id="line6751"
       style="fill:#ffffff;stroke:#ec008c;stroke-width:4;stroke-miterlimit:10" /><line
       stroke-miterlimit="10"
       x1="1220.2791"
       y1="1613.953"
       x2="987.79401"
       y2="1846.437"
       id="line6753"
       style="fill:#ffffff;stroke:#ec008c;stroke-width:4;stroke-miterlimit:10" /><line
       stroke-miterlimit="10"
       x1="989.198"
       y1="1844.9771"
       x2="756.71301"
       y2="2077.46"
       id="line6755"
       style="fill:#ffffff;stroke:#ec008c;stroke-width:4;stroke-miterlimit:10" /><line
       stroke-miterlimit="10"
       x1="752.09198"
       y1="2082.0229"
       x2="519.60699"
       y2="2314.5071"
       id="line6757"
       style="fill:#ffffff;stroke:#ec008c;stroke-width:4;stroke-miterlimit:10" /><line
       stroke-miterlimit="10"
       x1="520.96301"
       y1="2313.094"
       x2="288.479"
       y2="2545.5769"
       id="line6759"
       style="fill:#ffffff;stroke:#ec008c;stroke-width:4;stroke-miterlimit:10" /><line
       stroke-miterlimit="10"
       x1="2078.5471"
       y1="288.673"
       x2="1846.063"
       y2="521.15601"
       id="line6761"
       style="fill:#ffffff;stroke:#ec008c;stroke-width:4;stroke-miterlimit:10" /><line
       stroke-miterlimit="10"
       x1="1842.51"
       y1="522.646"
       x2="1610.025"
       y2="755.12903"
       id="line6763"
       style="fill:#ffffff;stroke:#ec008c;stroke-width:4;stroke-miterlimit:10" /><line
       stroke-miterlimit="10"
       x1="1614.486"
       y1="753.66901"
       x2="1382.002"
       y2="986.15198"
       id="line6765"
       style="fill:#ffffff;stroke:#ec008c;stroke-width:4;stroke-miterlimit:10" /><line
       stroke-miterlimit="10"
       x1="1377.499"
       y1="990.685"
       x2="1145.014"
       y2="1223.168"
       id="line6767"
       style="fill:#ffffff;stroke:#ec008c;stroke-width:4;stroke-miterlimit:10" /><line
       stroke-miterlimit="10"
       x1="1142.92"
       y1="1226.307"
       x2="910.43597"
       y2="1458.79"
       id="line6769"
       style="fill:#ffffff;stroke:#ec008c;stroke-width:4;stroke-miterlimit:10" /><line
       stroke-miterlimit="10"
       x1="909.88501"
       y1="1458.325"
       x2="677.401"
       y2="1690.809"
       id="line6771"
       style="fill:#ffffff;stroke:#ec008c;stroke-width:4;stroke-miterlimit:10" /><line
       stroke-miterlimit="10"
       x1="672.82703"
       y1="1695.368"
       x2="440.34201"
       y2="1927.8521"
       id="line6773"
       style="fill:#ffffff;stroke:#ec008c;stroke-width:4;stroke-miterlimit:10" /><line
       stroke-miterlimit="10"
       x1="441.745"
       y1="1926.392"
       x2="209.261"
       y2="2158.875"
       id="line6775"
       style="fill:#ffffff;stroke:#ec008c;stroke-width:4;stroke-miterlimit:10" /><line
       stroke-miterlimit="10"
       x1="1451.3719"
       y1="442.785"
       x2="1218.8879"
       y2="675.26898"
       id="line6777"
       style="fill:#ffffff;stroke:#ec008c;stroke-width:4;stroke-miterlimit:10" /><line
       stroke-miterlimit="10"
       x1="1223.349"
       y1="673.80902"
       x2="990.86401"
       y2="906.29199"
       id="line6779"
       style="fill:#ffffff;stroke:#ec008c;stroke-width:4;stroke-miterlimit:10" /><line
       stroke-miterlimit="10"
       x1="986.35999"
       y1="910.82501"
       x2="753.87598"
       y2="1143.308"
       id="line6781"
       style="fill:#ffffff;stroke:#ec008c;stroke-width:4;stroke-miterlimit:10" /><line
       stroke-miterlimit="10"
       x1="751.78198"
       y1="1146.446"
       x2="519.29797"
       y2="1378.9301"
       id="line6783"
       style="fill:#ffffff;stroke:#ec008c;stroke-width:4;stroke-miterlimit:10" /><line
       stroke-miterlimit="10"
       x1="518.74701"
       y1="1378.465"
       x2="286.263"
       y2="1610.948"
       id="line6785"
       style="fill:#ffffff;stroke:#ec008c;stroke-width:4;stroke-miterlimit:10" /><line
       stroke-miterlimit="10"
       x1="1138.967"
       y1="291.29099"
       x2="906.48297"
       y2="523.77399"
       id="line6787"
       style="fill:#ffffff;stroke:#ec008c;stroke-width:4;stroke-miterlimit:10" /><line
       stroke-miterlimit="10"
       x1="902.92999"
       y1="525.26398"
       x2="670.44598"
       y2="757.74701"
       id="line6789"
       style="fill:#ffffff;stroke:#ec008c;stroke-width:4;stroke-miterlimit:10" /><line
       stroke-miterlimit="10"
       x1="674.90698"
       y1="756.28699"
       x2="442.422"
       y2="988.771"
       id="line6791"
       style="fill:#ffffff;stroke:#ec008c;stroke-width:4;stroke-miterlimit:10" /><line
       stroke-miterlimit="10"
       x1="437.918"
       y1="993.30298"
       x2="205.43401"
       y2="1225.787"
       id="line6793"
       style="fill:#ffffff;stroke:#ec008c;stroke-width:4;stroke-miterlimit:10" /><line
       stroke-miterlimit="10"
       x1="2386"
       y1="442"
       x2="2313.8601"
       y2="209.5"
       id="line6795"
       style="fill:#ffffff;stroke:#ec008c;stroke-width:4;stroke-miterlimit:10" /><line
       stroke-miterlimit="10"
       x1="2310.9099"
       y1="210.7"
       x2="2084"
       y2="289"
       id="line6797"
       style="fill:#ffffff;stroke:#ec008c;stroke-width:4;stroke-miterlimit:10" /><line
       stroke-miterlimit="10"
       x1="1454"
       y1="446"
       x2="1380.765"
       y2="212.216"
       id="line6799"
       style="fill:#ffffff;stroke:#ec008c;stroke-width:4;stroke-miterlimit:10" /><line
       stroke-miterlimit="10"
       x1="1377.814"
       y1="213.416"
       x2="1140.739"
       y2="287.18399"
       id="line6801"
       style="fill:#ffffff;stroke:#ec008c;stroke-width:4;stroke-miterlimit:10" /><line
       stroke-miterlimit="10"
       x1="208.8"
       y1="2162.479"
       x2="208.8"
       y2="1850.667"
       id="line6803"
       style="fill:#ffffff;stroke:#ec008c;stroke-width:4;stroke-miterlimit:10" /><line
       stroke-miterlimit="10"
       x1="210"
       y1="1847.717"
       x2="283.76801"
       y2="1610.642"
       id="line6805"
       style="fill:#ffffff;stroke:#ec008c;stroke-width:4;stroke-miterlimit:10" /><line
       stroke-miterlimit="10"
       x1="521.35999"
       y1="444.07501"
       x2="288.875"
       y2="676.55798"
       id="line6807"
       style="fill:#ffffff;stroke:#ec008c;stroke-width:4;stroke-miterlimit:10" /><line
       stroke-miterlimit="10"
       x1="206.8"
       y1="1222.762"
       x2="206.8"
       y2="910.95001"
       id="line6809"
       style="fill:#ffffff;stroke:#ec008c;stroke-width:4;stroke-miterlimit:10" /><line
       stroke-miterlimit="10"
       x1="208"
       y1="908"
       x2="286"
       y2="676"
       id="line6811"
       style="fill:#ffffff;stroke:#ec008c;stroke-width:4;stroke-miterlimit:10" /><line
       stroke-miterlimit="10"
       x1="297.48199"
       y1="215.291"
       x2="529.96698"
       y2="447.77499"
       id="line6813"
       style="fill:#ffffff;stroke:#ec008c;stroke-width:4;stroke-miterlimit:10" /><line
       stroke-miterlimit="10"
       x1="756.255"
       y1="2547.4529"
       x2="988.73901"
       y2="2314.969"
       id="line6815"
       style="fill:#ffffff;stroke:#ec008c;stroke-width:4;stroke-miterlimit:10" /><line
       stroke-miterlimit="10"
       x1="992.29199"
       y1="2313.48"
       x2="1224.776"
       y2="2080.9961"
       id="line6817"
       style="fill:#ffffff;stroke:#ec008c;stroke-width:4;stroke-miterlimit:10" /><line
       stroke-miterlimit="10"
       x1="1220.3149"
       y1="2082.457"
       x2="1452.8"
       y2="1849.973"
       id="line6819"
       style="fill:#ffffff;stroke:#ec008c;stroke-width:4;stroke-miterlimit:10" /><line
       stroke-miterlimit="10"
       x1="1457.304"
       y1="1845.439"
       x2="1689.788"
       y2="1612.957"
       id="line6821"
       style="fill:#ffffff;stroke:#ec008c;stroke-width:4;stroke-miterlimit:10" /><line
       stroke-miterlimit="10"
       x1="1691.882"
       y1="1609.818"
       x2="1924.366"
       y2="1377.335"
       id="line6823"
       style="fill:#ffffff;stroke:#ec008c;stroke-width:4;stroke-miterlimit:10" /><line
       stroke-miterlimit="10"
       x1="1924.917"
       y1="1377.8"
       x2="2157.4009"
       y2="1145.317"
       id="line6825"
       style="fill:#ffffff;stroke:#ec008c;stroke-width:4;stroke-miterlimit:10" /><line
       stroke-miterlimit="10"
       x1="2161.9761"
       y1="1140.757"
       x2="2394.46"
       y2="908.27399"
       id="line6827"
       style="fill:#ffffff;stroke:#ec008c;stroke-width:4;stroke-miterlimit:10" /><line
       stroke-miterlimit="10"
       x1="2393.0569"
       y1="909.73401"
       x2="2625.541"
       y2="677.25"
       id="line6829"
       style="fill:#ffffff;stroke:#ec008c;stroke-width:4;stroke-miterlimit:10" /><line
       stroke-miterlimit="10"
       x1="1383.4301"
       y1="2393.3401"
       x2="1615.9139"
       y2="2160.8569"
       id="line6831"
       style="fill:#ffffff;stroke:#ec008c;stroke-width:4;stroke-miterlimit:10" /><line
       stroke-miterlimit="10"
       x1="1611.453"
       y1="2162.3159"
       x2="1843.938"
       y2="1929.834"
       id="line6833"
       style="fill:#ffffff;stroke:#ec008c;stroke-width:4;stroke-miterlimit:10" /><line
       stroke-miterlimit="10"
       x1="1848.441"
       y1="1925.301"
       x2="2080.926"
       y2="1692.816"
       id="line6835"
       style="fill:#ffffff;stroke:#ec008c;stroke-width:4;stroke-miterlimit:10" /><line
       stroke-miterlimit="10"
       x1="2083.02"
       y1="1689.6801"
       x2="2315.5039"
       y2="1457.1949"
       id="line6837"
       style="fill:#ffffff;stroke:#ec008c;stroke-width:4;stroke-miterlimit:10" /><line
       stroke-miterlimit="10"
       x1="2316.0549"
       y1="1457.66"
       x2="2548.5391"
       y2="1225.177"
       id="line6839"
       style="fill:#ffffff;stroke:#ec008c;stroke-width:4;stroke-miterlimit:10" /><line
       stroke-miterlimit="10"
       x1="1695.835"
       y1="2544.834"
       x2="1928.319"
       y2="2312.3521"
       id="line6841"
       style="fill:#ffffff;stroke:#ec008c;stroke-width:4;stroke-miterlimit:10" /><line
       stroke-miterlimit="10"
       x1="1931.8719"
       y1="2310.8611"
       x2="2164.356"
       y2="2078.3789"
       id="line6843"
       style="fill:#ffffff;stroke:#ec008c;stroke-width:4;stroke-miterlimit:10" /><line
       stroke-miterlimit="10"
       x1="2159.896"
       y1="2079.8379"
       x2="2392.3799"
       y2="1847.355"
       id="line6845"
       style="fill:#ffffff;stroke:#ec008c;stroke-width:4;stroke-miterlimit:10" /><line
       stroke-miterlimit="10"
       x1="2396.884"
       y1="1842.822"
       x2="2629.3679"
       y2="1610.338"
       id="line6847"
       style="fill:#ffffff;stroke:#ec008c;stroke-width:4;stroke-miterlimit:10" /><line
       stroke-miterlimit="10"
       x1="287.521"
       y1="2541.9241"
       x2="520.94098"
       y2="2626.625"
       id="line6849"
       style="fill:#ffffff;stroke:#ec008c;stroke-width:4;stroke-miterlimit:10" /><line
       stroke-miterlimit="10"
       x1="523.89203"
       y1="2625.426"
       x2="760.96698"
       y2="2551.658"
       id="line6851"
       style="fill:#ffffff;stroke:#ec008c;stroke-width:4;stroke-miterlimit:10" /><line
       stroke-miterlimit="10"
       x1="1380.802"
       y1="2390.125"
       x2="1454.037"
       y2="2623.9099"
       id="line6853"
       style="fill:#ffffff;stroke:#ec008c;stroke-width:4;stroke-miterlimit:10" /><line
       stroke-miterlimit="10"
       x1="1456.9871"
       y1="2622.709"
       x2="1694.063"
       y2="2548.9409"
       id="line6855"
       style="fill:#ffffff;stroke:#ec008c;stroke-width:4;stroke-miterlimit:10" /><line
       stroke-miterlimit="10"
       x1="2626.002"
       y1="673.64697"
       x2="2626.002"
       y2="985.45801"
       id="line6857"
       style="fill:#ffffff;stroke:#ec008c;stroke-width:4;stroke-miterlimit:10" /><line
       stroke-miterlimit="10"
       x1="2624.802"
       y1="988.409"
       x2="2551.0339"
       y2="1225.484"
       id="line6859"
       style="fill:#ffffff;stroke:#ec008c;stroke-width:4;stroke-miterlimit:10" /><line
       stroke-miterlimit="10"
       x1="2313.4419"
       y1="2392.051"
       x2="2545.927"
       y2="2159.5659"
       id="line6861"
       style="fill:#ffffff;stroke:#ec008c;stroke-width:4;stroke-miterlimit:10" /><line
       stroke-miterlimit="10"
       x1="2628.002"
       y1="1613.363"
       x2="2628.002"
       y2="1925.176"
       id="line6863"
       style="fill:#ffffff;stroke:#ec008c;stroke-width:4;stroke-miterlimit:10" /><line
       stroke-miterlimit="10"
       x1="2626.802"
       y1="1928.125"
       x2="2548.802"
       y2="2160.125"
       id="line6865"
       style="fill:#ffffff;stroke:#ec008c;stroke-width:4;stroke-miterlimit:10" /><line
       stroke-miterlimit="10"
       x1="2537.3191"
       y1="2620.834"
       x2="2304.835"
       y2="2388.3501"
       id="line6867"
       style="fill:#ffffff;stroke:#ec008c;stroke-width:4;stroke-miterlimit:10" /></g></g><g
   inkscape:groupmode="layer"
   id="layer6"
   inkscape:label="Layer#2"
   style="display:inline"><path
     style="fill:none;stroke:#000000;stroke-width:1px;stroke-linecap:butt;stroke-linejoin:miter;stroke-opacity:1"
     d="m 2547.6003,2625.4856 77.9323,0 0,-77.7473 7e-4,0"
     id="origin"
     inkscape:connector-curvature="0"
     inkscape:label="#path7346" /></g><rect
   style="fill:#8c8c8c;fill-opacity:1;stroke:#ff0000;stroke-width:3.5433073;stroke-miterlimit:4;stroke-opacity:1;stroke-dasharray:none"
   id="rect3206"
   width="779"
   height="701.09998"
   x="-959.40002"
   y="2002.35" /><path
   style="fill:none;stroke:#000000;stroke-width:1px;stroke-linecap:butt;stroke-linejoin:miter;stroke-opacity:1"
   d="m -881.5,2625.5499 77.9,-77.9 -77.9,-77.9 0,-155.8 0,-233.7 77.9,155.8 0,155.8 77.9,-155.8 0,-77.9 77.9,-77.9 77.9,77.9 77.9,-77.9 77.9,155.8 77.9,77.9 77.9,155.8 -155.8,-77.9 -155.8,-77.9 0,155.8 77.9,77.9 -155.8,0 0,0"
   id="centriukas"
   inkscape:connector-curvature="0"
   inkscape:label="#path3208" /></svg>