<?xml version="1.0" encoding="utf-8"?>
<!-- Generator: Adobe Illustrator 16.0.0, SVG Export Plug-In . SVG Version: 6.00 Build 0)  -->
<!DOCTYPE svg PUBLIC "-//W3C//DTD SVG 1.1//EN" "http://www.w3.org/Graphics/SVG/1.1/DTD/svg11.dtd">
<svg version="1.1" id="Layer_5_copy" xmlns="http://www.w3.org/2000/svg" xmlns:xlink="http://www.w3.org/1999/xlink" x="0px"
	 y="0px" width="2834.65px" height="2834.65px" viewBox="0 0 2834.65 2834.65" enable-background="new 0 0 2834.65 2834.65"
	 xml:space="preserve">
<path fill="none" stroke="#231F20" stroke-width="4" stroke-linecap="round" stroke-linejoin="round" stroke-miterlimit="10" d="
	M2394,445c-1.308,1.28-3.416,1.28-4.719-0.011c-1.298-1.303-1.309-3.416-0.011-4.719c1.313-1.304,3.427-1.304,4.729,0
	C2395.298,441.573,2395.309,443.687,2394,445z"/>
<path fill="none" stroke="#231F20" stroke-width="4" stroke-linecap="round" stroke-linejoin="round" stroke-miterlimit="10" d="
	M2159.894,675.746c-1.301,1.301-3.418,1.301-4.707-0.011c-1.306-1.29-1.306-3.42-0.018-4.71c1.307-1.312,3.435-1.312,4.725,0
	C2161.199,672.315,2161.199,674.435,2159.894,675.746z"/>
<path fill="none" stroke="#231F20" stroke-width="4" stroke-linecap="round" stroke-linejoin="round" stroke-miterlimit="10" d="
	M1926.147,913.005c-1.308,1.28-3.416,1.28-4.719-0.011c-1.298-1.303-1.309-3.416-0.011-4.719c1.313-1.304,3.427-1.304,4.729,0
	C1927.445,909.578,1927.456,911.691,1926.147,913.005z"/>
<path fill="none" stroke="#231F20" stroke-width="4" stroke-linecap="round" stroke-linejoin="round" stroke-miterlimit="10" d="
	M1692.118,1147.604c-1.301,1.301-3.418,1.301-4.707-0.011c-1.306-1.29-1.306-3.42-0.018-4.71c1.307-1.312,3.435-1.312,4.725,0
	C1693.424,1144.173,1693.424,1146.292,1692.118,1147.604z"/>
<path fill="none" stroke="#231F20" stroke-width="4" stroke-linecap="round" stroke-linejoin="round" stroke-miterlimit="10" d="
	M1460.826,1381.645c-1.308,1.28-3.416,1.28-4.719-0.011c-1.298-1.303-1.309-3.416-0.011-4.719c1.313-1.304,3.427-1.304,4.729,0
	C1462.124,1378.218,1462.135,1380.331,1460.826,1381.645z"/>
<path fill="none" stroke="#231F20" stroke-width="4" stroke-linecap="round" stroke-linejoin="round" stroke-miterlimit="10" d="
	M1226.802,1611.84c-1.301,1.301-3.418,1.301-4.707-0.011c-1.306-1.29-1.306-3.42-0.018-4.71c1.307-1.312,3.435-1.312,4.725,0
	C1228.108,1608.409,1228.108,1610.528,1226.802,1611.84z"/>
<path fill="none" stroke="#231F20" stroke-width="4" stroke-linecap="round" stroke-linejoin="round" stroke-miterlimit="10" d="
	M990.28,1848.437c-1.308,1.28-3.416,1.28-4.719-0.011c-1.298-1.303-1.309-3.416-0.011-4.719c1.313-1.304,3.427-1.304,4.729,0
	C991.578,1845.01,991.589,1847.123,990.28,1848.437z"/>
<path fill="none" stroke="#231F20" stroke-width="4" stroke-linecap="round" stroke-linejoin="round" stroke-miterlimit="10" d="
	M758.755,2079.886c-1.301,1.301-3.418,1.301-4.707-0.011c-1.307-1.29-1.307-3.42-0.018-4.71c1.307-1.312,3.434-1.312,4.725,0
	C760.06,2076.455,760.06,2078.574,758.755,2079.886z"/>
<path fill="none" stroke="#231F20" stroke-width="4" stroke-linecap="round" stroke-linejoin="round" stroke-miterlimit="10" d="
	M521.279,2316.157c-1.309,1.28-3.416,1.28-4.719-0.011c-1.299-1.303-1.309-3.416-0.012-4.719c1.314-1.304,3.428-1.304,4.73,0
	C522.576,2312.73,522.588,2314.844,521.279,2316.157z"/>
<path fill="none" stroke="#231F20" stroke-width="4" stroke-linecap="round" stroke-linejoin="round" stroke-miterlimit="10" d="
	M1849.24,523.242c-1.307,1.28-3.416,1.28-4.719-0.011c-1.297-1.303-1.309-3.416-0.01-4.719c1.313-1.304,3.426-1.304,4.729,0
	C1850.539,519.815,1850.549,521.929,1849.24,523.242z"/>
<path fill="none" stroke="#231F20" stroke-width="4" stroke-linecap="round" stroke-linejoin="round" stroke-miterlimit="10" d="
	M1612.441,757.161c-1.301,1.301-3.418,1.301-4.707-0.011c-1.307-1.29-1.307-3.42-0.018-4.71c1.307-1.312,3.434-1.312,4.725,0
	C1613.746,753.73,1613.746,755.85,1612.441,757.161z"/>
<path fill="none" stroke="#231F20" stroke-width="4" stroke-linecap="round" stroke-linejoin="round" stroke-miterlimit="10" d="
	M1381.418,989.913c-1.308,1.28-3.416,1.28-4.719-0.011c-1.298-1.303-1.309-3.416-0.011-4.719c1.313-1.304,3.427-1.304,4.729,0
	C1382.716,986.486,1382.727,988.6,1381.418,989.913z"/>
<path fill="none" stroke="#231F20" stroke-width="4" stroke-linecap="round" stroke-linejoin="round" stroke-miterlimit="10" d="
	M1147.397,1226.928c-1.301,1.301-3.418,1.301-4.707-0.011c-1.306-1.29-1.306-3.42-0.018-4.71c1.307-1.312,3.435-1.312,4.725,0
	C1148.703,1223.498,1148.703,1225.617,1147.397,1226.928z"/>
<path fill="none" stroke="#231F20" stroke-width="4" stroke-linecap="round" stroke-linejoin="round" stroke-miterlimit="10" d="
	M913.374,1459.231c-1.308,1.28-3.416,1.28-4.719-0.011c-1.298-1.303-1.309-3.416-0.011-4.719c1.313-1.304,3.427-1.304,4.729,0
	C914.671,1455.805,914.682,1457.918,913.374,1459.231z"/>
<path fill="none" stroke="#231F20" stroke-width="4" stroke-linecap="round" stroke-linejoin="round" stroke-miterlimit="10" d="
	M679.35,1693.255c-1.301,1.301-3.418,1.301-4.707-0.011c-1.307-1.29-1.307-3.42-0.018-4.71c1.307-1.312,3.434-1.312,4.725,0
	C680.655,1689.824,680.655,1691.943,679.35,1693.255z"/>
<path fill="none" stroke="#231F20" stroke-width="4" stroke-linecap="round" stroke-linejoin="round" stroke-miterlimit="10" d="
	M443.816,1695.303c-1.308,1.28-3.416,1.28-4.719-0.011c-1.298-1.303-1.309-3.416-0.011-4.719c1.313-1.304,3.427-1.304,4.729,0
	C445.114,1691.876,445.125,1693.989,443.816,1695.303z"/>
<path fill="none" stroke="#231F20" stroke-width="4" stroke-linecap="round" stroke-linejoin="round" stroke-miterlimit="10" d="
	M1458.103,523.243c-1.308,1.28-3.416,1.28-4.719-0.011c-1.298-1.303-1.309-3.416-0.011-4.719c1.313-1.304,3.427-1.304,4.729,0
	C1459.4,519.816,1459.411,521.929,1458.103,523.243z"/>
<path fill="none" stroke="#231F20" stroke-width="4" stroke-linecap="round" stroke-linejoin="round" stroke-miterlimit="10" d="
	M1226.803,757.09c-1.301,1.301-3.418,1.301-4.707-0.011c-1.306-1.29-1.306-3.42-0.018-4.71c1.307-1.312,3.435-1.312,4.725,0
	C1228.108,753.66,1228.108,755.779,1226.803,757.09z"/>
<path fill="none" stroke="#231F20" stroke-width="4" stroke-linecap="round" stroke-linejoin="round" stroke-miterlimit="10" d="
	M990.28,990.053c-1.308,1.28-3.416,1.28-4.719-0.011c-1.298-1.303-1.309-3.416-0.011-4.719c1.313-1.304,3.427-1.304,4.729,0
	C991.578,986.626,991.589,988.739,990.28,990.053z"/>
<path fill="none" stroke="#231F20" stroke-width="4" stroke-linecap="round" stroke-linejoin="round" stroke-miterlimit="10" d="
	M756.259,1227.068c-1.301,1.301-3.418,1.301-4.707-0.011c-1.306-1.29-1.306-3.42-0.018-4.71c1.307-1.312,3.435-1.312,4.725,0
	C757.564,1223.637,757.564,1225.756,756.259,1227.068z"/>
<path fill="none" stroke="#231F20" stroke-width="4" stroke-linecap="round" stroke-linejoin="round" stroke-miterlimit="10" d="
	M523.228,1458.675c-1.308,1.28-3.416,1.28-4.719-0.011c-1.298-1.303-1.309-3.416-0.011-4.719c1.313-1.304,3.427-1.304,4.729,0
	C524.525,1455.248,524.536,1457.361,523.228,1458.675z"/>
<path fill="none" stroke="#231F20" stroke-width="4" stroke-linecap="round" stroke-linejoin="round" stroke-miterlimit="10" d="
	M2313.91,212.42c-1.301,1.301-3.418,1.301-4.707-0.011c-1.305-1.29-1.305-3.42-0.018-4.71c1.307-1.312,3.436-1.312,4.725,0
	C2315.217,208.989,2315.217,211.108,2313.91,212.42z"/>
<path fill="none" stroke="#231F20" stroke-width="4" stroke-linecap="round" stroke-linejoin="round" stroke-miterlimit="10" d="
	M754.042,2543.793c1.301-1.301,3.418-1.301,4.707,0.01c1.305,1.291,1.305,3.42,0.018,4.711c-1.307,1.311-3.436,1.311-4.725,0
	C752.735,2547.223,752.735,2545.104,754.042,2543.793z"/>
<path fill="none" stroke="#231F20" stroke-width="4" stroke-linecap="round" stroke-linejoin="round" stroke-miterlimit="10" d="
	M986.225,2311.407c1.307-1.281,3.416-1.281,4.719,0.01c1.297,1.303,1.309,3.416,0.01,4.719c-1.313,1.305-3.426,1.305-4.729,0
	C984.926,2314.833,984.917,2312.72,986.225,2311.407z"/>
<path fill="none" stroke="#231F20" stroke-width="4" stroke-linecap="round" stroke-linejoin="round" stroke-miterlimit="10" d="
	M1220.086,2078.965c1.301-1.301,3.418-1.301,4.707,0.01c1.307,1.291,1.307,3.42,0.018,4.711c-1.307,1.311-3.434,1.311-4.725,0
	C1218.781,2082.395,1218.781,2080.275,1220.086,2078.965z"/>
<path fill="none" stroke="#231F20" stroke-width="4" stroke-linecap="round" stroke-linejoin="round" stroke-miterlimit="10" d="
	M1453.984,1842.842c1.307-1.281,3.416-1.281,4.719,0.01c1.297,1.303,1.309,3.416,0.01,4.719c-1.313,1.305-3.426,1.305-4.729,0
	C1452.686,1846.268,1452.676,1844.154,1453.984,1842.842z"/>
<path fill="none" stroke="#231F20" stroke-width="4" stroke-linecap="round" stroke-linejoin="round" stroke-miterlimit="10" d="
	M1687.405,1609.197c1.301-1.301,3.418-1.301,4.707,0.01c1.305,1.291,1.305,3.42,0.018,4.711c-1.307,1.311-3.436,1.311-4.725,0
	C1686.099,1612.627,1686.099,1610.508,1687.405,1609.197z"/>
<path fill="none" stroke="#231F20" stroke-width="4" stroke-linecap="round" stroke-linejoin="round" stroke-miterlimit="10" d="
	M1921.429,1376.894c1.307-1.28,3.416-1.28,4.719,0.011c1.297,1.303,1.309,3.416,0.01,4.719c-1.313,1.304-3.426,1.304-4.729,0
	C1920.13,1380.321,1920.12,1378.208,1921.429,1376.894z"/>
<path fill="none" stroke="#231F20" stroke-width="4" stroke-linecap="round" stroke-linejoin="round" stroke-miterlimit="10" d="
	M2155.452,1142.871c1.301-1.301,3.418-1.301,4.707,0.011c1.307,1.29,1.307,3.42,0.018,4.71c-1.307,1.312-3.434,1.312-4.725,0
	C2154.147,1146.301,2154.147,1144.182,2155.452,1142.871z"/>
<path fill="none" stroke="#231F20" stroke-width="4" stroke-linecap="round" stroke-linejoin="round" stroke-miterlimit="10" d="
	M2389.476,907.119c1.308-1.28,3.416-1.28,4.719,0.011c1.298,1.303,1.309,3.416,0.011,4.719c-1.313,1.304-3.427,1.304-4.729,0
	C2388.178,910.545,2388.167,908.432,2389.476,907.119z"/>
<path fill="none" stroke="#231F20" stroke-width="4" stroke-linecap="round" stroke-linejoin="round" stroke-miterlimit="10" d="
	M2623.499,674.825c1.301-1.301,3.418-1.301,4.707,0.011c1.307,1.29,1.307,3.42,0.018,4.71c-1.307,1.312-3.434,1.312-4.725,0
	C2622.194,678.255,2622.194,676.136,2623.499,674.825z"/>
<path fill="none" stroke="#231F20" stroke-width="4" stroke-linecap="round" stroke-linejoin="round" stroke-miterlimit="10" d="
	M2545.283,2622.27c1.301-1.301,3.418-1.301,4.707,0.012c1.306,1.289,1.306,3.42,0.018,4.709c-1.307,1.313-3.435,1.313-4.725,0
	C2543.978,2625.701,2543.978,2623.582,2545.283,2622.27z"/>
<path fill="none" stroke="#231F20" stroke-width="4" stroke-linecap="round" stroke-linejoin="round" stroke-miterlimit="10" d="
	M1375.989,2389.57c1.308-1.279,3.416-1.279,4.719,0.012c1.298,1.303,1.309,3.416,0.011,4.719c-1.313,1.303-3.427,1.303-4.729,0
	C1374.691,2392.998,1374.68,2390.885,1375.989,2389.57z"/>
<path fill="none" stroke="#231F20" stroke-width="4" stroke-linecap="round" stroke-linejoin="round" stroke-miterlimit="10" d="
	M1609.848,2155.508c1.301-1.301,3.418-1.301,4.707,0.012c1.306,1.289,1.306,3.42,0.018,4.709c-1.307,1.313-3.435,1.313-4.725,0
	C1608.542,2158.939,1608.542,2156.82,1609.848,2155.508z"/>
<path fill="none" stroke="#231F20" stroke-width="4" stroke-linecap="round" stroke-linejoin="round" stroke-miterlimit="10" d="
	M1844.521,1926.072c1.308-1.279,3.416-1.279,4.719,0.012c1.298,1.303,1.309,3.416,0.011,4.719c-1.313,1.303-3.427,1.303-4.729,0
	C1843.224,1929.5,1843.213,1927.387,1844.521,1926.072z"/>
<path fill="none" stroke="#231F20" stroke-width="4" stroke-linecap="round" stroke-linejoin="round" stroke-miterlimit="10" d="
	M2078.543,1689.057c1.301-1.301,3.418-1.301,4.707,0.012c1.306,1.289,1.306,3.42,0.018,4.709c-1.307,1.313-3.435,1.313-4.725,0
	C2077.237,1692.488,2077.237,1690.369,2078.543,1689.057z"/>
<path fill="none" stroke="#231F20" stroke-width="4" stroke-linecap="round" stroke-linejoin="round" stroke-miterlimit="10" d="
	M2311.422,1456.754c1.308-1.279,3.416-1.279,4.719,0.012c1.298,1.303,1.309,3.416,0.011,4.719c-1.313,1.303-3.427,1.303-4.729,0
	C2310.124,1460.182,2310.113,1458.068,2311.422,1456.754z"/>
<path fill="none" stroke="#231F20" stroke-width="4" stroke-linecap="round" stroke-linejoin="round" stroke-miterlimit="10" d="
	M2545.281,1220.074c1.301-1.301,3.418-1.301,4.707,0.011c1.307,1.29,1.307,3.42,0.018,4.71c-1.307,1.312-3.434,1.312-4.725,0
	C2543.977,1223.505,2543.977,1221.386,2545.281,1220.074z"/>
<path fill="none" stroke="#231F20" stroke-width="4" stroke-linecap="round" stroke-linejoin="round" stroke-miterlimit="10" d="
	M1687.801,2543.791c1.301-1.301,3.418-1.301,4.707,0.012c1.305,1.289,1.305,3.42,0.018,4.709c-1.307,1.313-3.436,1.313-4.725,0
	C1686.494,2547.223,1686.494,2545.104,1687.801,2543.791z"/>
<path fill="none" stroke="#231F20" stroke-width="4" stroke-linecap="round" stroke-linejoin="round" stroke-miterlimit="10" d="
	M1921.429,2311.405c1.307-1.279,3.416-1.279,4.719,0.012c1.297,1.303,1.309,3.416,0.01,4.719c-1.313,1.303-3.426,1.303-4.729,0
	C1920.13,2314.833,1920.12,2312.72,1921.429,2311.405z"/>
<path fill="none" stroke="#231F20" stroke-width="4" stroke-linecap="round" stroke-linejoin="round" stroke-miterlimit="10" d="
	M2155.18,2077.553c1.301-1.301,3.418-1.301,4.707,0.012c1.307,1.289,1.307,3.42,0.018,4.709c-1.307,1.313-3.434,1.313-4.725,0
	C2153.875,2080.984,2153.875,2078.865,2155.18,2077.553z"/>
<path fill="none" stroke="#231F20" stroke-width="4" stroke-linecap="round" stroke-linejoin="round" stroke-miterlimit="10" d="
	M2389.281,1843.686c1.307-1.279,3.416-1.279,4.719,0.012c1.297,1.303,1.309,3.416,0.01,4.719c-1.313,1.303-3.426,1.303-4.729,0
	C2387.982,1847.113,2387.973,1845,2389.281,1843.686z"/>
<path fill="none" stroke="#231F20" stroke-width="4" stroke-linecap="round" stroke-linejoin="round" stroke-miterlimit="10" d="
	M2621.274,1609.839c1.301-1.301,3.418-1.301,4.707,0.012c1.305,1.289,1.305,3.42,0.018,4.709c-1.307,1.313-3.436,1.313-4.725,0
	C2619.968,1613.271,2619.968,1611.151,2621.274,1609.839z"/>
<path fill="none" stroke="#231F20" stroke-width="4" stroke-linecap="round" stroke-linejoin="round" stroke-miterlimit="10" d="
	M520.892,2623.705c1.301-1.301,3.418-1.301,4.707,0.012c1.305,1.289,1.305,3.42,0.018,4.709c-1.307,1.313-3.436,1.313-4.725,0
	C519.585,2627.137,519.585,2625.018,520.892,2623.705z"/>
<path fill="none" stroke="#231F20" stroke-width="4" stroke-linecap="round" stroke-linejoin="round" stroke-miterlimit="10" d="
	M1453.987,2620.988c1.301-1.301,3.418-1.301,4.707,0.012c1.305,1.289,1.305,3.42,0.018,4.709c-1.307,1.313-3.436,1.313-4.725,0
	C1452.681,2624.42,1452.681,2622.301,1453.987,2620.988z"/>
<path fill="none" stroke="#231F20" stroke-width="4" stroke-linecap="round" stroke-linejoin="round" stroke-miterlimit="10" d="
	M2311.422,2389.358c1.307-1.279,3.416-1.279,4.719,0.012c1.297,1.303,1.309,3.416,0.01,4.719c-1.313,1.303-3.426,1.303-4.729,0
	C2310.123,2392.786,2310.113,2390.673,2311.422,2389.358z"/>
<path fill="none" stroke="#231F20" stroke-width="4" stroke-linecap="round" stroke-linejoin="round" stroke-miterlimit="10" d="
	M2543.544,2155.807c1.301-1.301,3.418-1.301,4.707,0.012c1.305,1.289,1.305,3.42,0.018,4.709c-1.307,1.313-3.436,1.313-4.725,0
	C2542.237,2159.238,2542.237,2157.119,2543.544,2155.807z"/>
<path fill="none" stroke="#231F20" stroke-width="4" stroke-linecap="round" stroke-linejoin="round" stroke-miterlimit="10" d="
	M2623.497,1921.27c1.307-1.279,3.416-1.279,4.719,0.012c1.297,1.303,1.309,3.416,0.01,4.719c-1.313,1.303-3.426,1.303-4.729,0
	C2622.198,1924.697,2622.188,1922.584,2623.497,1921.27z"/>
<path fill="none" stroke="#231F20" stroke-width="4" stroke-linecap="round" stroke-linejoin="round" stroke-miterlimit="10" d="
	M2622.572,985.162c1.308-1.279,3.416-1.279,4.719,0.012c1.298,1.303,1.309,3.416,0.011,4.719c-1.313,1.303-3.427,1.303-4.729,0
	C2621.274,988.589,2621.264,986.476,2622.572,985.162z"/>
<path fill="none" stroke="#231F20" stroke-width="4" stroke-linecap="round" stroke-linejoin="round" stroke-miterlimit="10" d="
	M285.281,2545.988c1.308-1.279,3.416-1.279,4.719,0.012c1.298,1.303,1.309,3.416,0.011,4.719c-1.313,1.303-3.427,1.303-4.729,0
	C283.983,2549.416,283.973,2547.303,285.281,2545.988z"/>
<path fill="none" stroke="#231F20" stroke-width="4" stroke-linecap="round" stroke-linejoin="round" stroke-miterlimit="10" d="
	M2077.271,284.632c1.308-1.279,3.416-1.279,4.719,0.012c1.298,1.303,1.309,3.416,0.011,4.719c-1.313,1.303-3.427,1.303-4.729,0
	C2075.973,288.06,2075.962,285.946,2077.271,284.632z"/>
</svg>
