<?xml version="1.0" encoding="UTF-8" standalone="no"?>
<!-- Generator: Adobe Illustrator 16.0.0, SVG Export Plug-In . SVG Version: 6.00 Build 0)  -->

<svg
   xmlns:dc="http://purl.org/dc/elements/1.1/"
   xmlns:cc="http://creativecommons.org/ns#"
   xmlns:rdf="http://www.w3.org/1999/02/22-rdf-syntax-ns#"
   xmlns:svg="http://www.w3.org/2000/svg"
   xmlns="http://www.w3.org/2000/svg"
   xmlns:sodipodi="http://sodipodi.sourceforge.net/DTD/sodipodi-0.dtd"
   xmlns:inkscape="http://www.inkscape.org/namespaces/inkscape"
   version="1.1"
   x="0px"
   y="0px"
   width="2834.65px"
   height="2834.65px"
   viewBox="0 0 2834.65 2834.65"
   enable-background="new 0 0 2834.65 2834.65"
   xml:space="preserve"
   id="svg4095"
   inkscape:version="0.48.3.1 r9886"
   sodipodi:docname="pievoskvadratas2.svg"><metadata
   id="metadata4513"><rdf:RDF><cc:Work
       rdf:about=""><dc:format>image/svg+xml</dc:format><dc:type
         rdf:resource="http://purl.org/dc/dcmitype/StillImage" /></cc:Work></rdf:RDF></metadata><defs
   id="defs4511">
	
		
	
		
	
		
	
		
	
		
	
		
	
		
	
		
	
		
	
		
	
		
	
		
	
		
	
		
	
		
	
	
		
	
		
	
		
	
		
	
	
		
	
		
	
		
	
		
	
		
	
		
	
		
	
		
	
		
	
		
	
		
	
		
	
		
	
		
	
		
	
		
	
		
	
		
	
		
	
		
	
		
	
		
	
		
	
		
	
		
	
		
	
		
	
	
</defs><sodipodi:namedview
   pagecolor="#ffffff"
   bordercolor="#666666"
   borderopacity="1"
   objecttolerance="10"
   gridtolerance="10"
   guidetolerance="10"
   inkscape:pageopacity="0"
   inkscape:pageshadow="2"
   inkscape:window-width="1366"
   inkscape:window-height="710"
   id="namedview4509"
   showgrid="false"
   inkscape:zoom="0.11774096"
   inkscape:cx="3568.7244"
   inkscape:cy="1876.4943"
   inkscape:window-x="0"
   inkscape:window-y="0"
   inkscape:window-maximized="1"
   inkscape:current-layer="svg4095" />

<g
   id="kampas"
   inkscape:label="#Layer_4_copy"
   transform="translate(-2.7429199e-5,0)">
	<g
   id="g4147">
		<g
   id="g4149">
			<line
   stroke-miterlimit="10"
   x1="131.10001"
   y1="2625.592"
   x2="2699.0349"
   y2="2625.592"
   id="line4151"
   style="fill:none;stroke:#0071b0;stroke-miterlimit:10" />
			<line
   stroke-miterlimit="10"
   x1="131.10001"
   y1="2313.781"
   x2="2699.0349"
   y2="2313.781"
   id="line4153"
   style="fill:none;stroke:#0071b0;stroke-miterlimit:10" />
			<line
   stroke-miterlimit="10"
   x1="131.10001"
   y1="2001.968"
   x2="2699.0349"
   y2="2001.968"
   id="line4155"
   style="fill:none;stroke:#0071b0;stroke-miterlimit:10" />
			<line
   stroke-miterlimit="10"
   x1="131.10001"
   y1="1690.157"
   x2="2699.0349"
   y2="1690.157"
   id="line4157"
   style="fill:none;stroke:#0071b0;stroke-miterlimit:10" />
			<line
   stroke-miterlimit="10"
   x1="131.10001"
   y1="1378.3459"
   x2="2699.0349"
   y2="1378.3459"
   id="line4159"
   style="fill:none;stroke:#0071b0;stroke-miterlimit:10" />
			<line
   stroke-miterlimit="10"
   x1="131.10001"
   y1="1066.535"
   x2="2699.0349"
   y2="1066.535"
   id="line4161"
   style="fill:none;stroke:#0071b0;stroke-miterlimit:10" />
			<line
   stroke-miterlimit="10"
   x1="131.10001"
   y1="754.724"
   x2="2699.0349"
   y2="754.724"
   id="line4163"
   style="fill:none;stroke:#0071b0;stroke-miterlimit:10" />
			<line
   stroke-miterlimit="10"
   x1="131.10001"
   y1="442.91299"
   x2="2699.0349"
   y2="442.91299"
   id="line4165"
   style="fill:none;stroke:#0071b0;stroke-miterlimit:10" />
			<line
   stroke-miterlimit="10"
   x1="131.10001"
   y1="131.10201"
   x2="2699.0349"
   y2="131.10201"
   id="line4167"
   style="fill:none;stroke:#0071b0;stroke-miterlimit:10" />
		</g>
		<g
   id="g4169">
			<line
   stroke-miterlimit="10"
   x1="2547.6389"
   y1="2701.9041"
   x2="2547.6389"
   y2="131.10201"
   id="line4171"
   style="fill:none;stroke:#0071b0;stroke-miterlimit:10" />
			<line
   stroke-miterlimit="10"
   x1="2235.8279"
   y1="2701.9041"
   x2="2235.8279"
   y2="131.10201"
   id="line4173"
   style="fill:none;stroke:#0071b0;stroke-miterlimit:10" />
			<line
   stroke-miterlimit="10"
   x1="1924.0179"
   y1="2701.9041"
   x2="1924.0179"
   y2="131.10201"
   id="line4175"
   style="fill:none;stroke:#0071b0;stroke-miterlimit:10" />
			<line
   stroke-miterlimit="10"
   x1="1612.205"
   y1="2701.9041"
   x2="1612.205"
   y2="131.10201"
   id="line4177"
   style="fill:none;stroke:#0071b0;stroke-miterlimit:10" />
			<line
   stroke-miterlimit="10"
   x1="1300.395"
   y1="2701.9041"
   x2="1300.395"
   y2="131.10201"
   id="line4179"
   style="fill:none;stroke:#0071b0;stroke-miterlimit:10" />
			<line
   stroke-miterlimit="10"
   x1="988.58398"
   y1="2701.9041"
   x2="988.58398"
   y2="131.10201"
   id="line4181"
   style="fill:none;stroke:#0071b0;stroke-miterlimit:10" />
			<line
   stroke-miterlimit="10"
   x1="676.77399"
   y1="2701.9041"
   x2="676.77399"
   y2="131.10201"
   id="line4183"
   style="fill:none;stroke:#0071b0;stroke-miterlimit:10" />
			<line
   stroke-miterlimit="10"
   x1="364.96201"
   y1="2701.9041"
   x2="364.96201"
   y2="131.10201"
   id="line4185"
   style="fill:none;stroke:#0071b0;stroke-miterlimit:10" />
		</g>
		<g
   id="g4187">
			<line
   stroke-miterlimit="10"
   x1="2703.5449"
   y1="2701.9041"
   x2="2703.5449"
   y2="131.105"
   id="line4189"
   style="fill:none;stroke:#0071b0;stroke-miterlimit:10" />
			<line
   stroke-miterlimit="10"
   x1="2391.7339"
   y1="2701.9041"
   x2="2391.7339"
   y2="131.105"
   id="line4191"
   style="fill:none;stroke:#0071b0;stroke-miterlimit:10" />
			<line
   stroke-miterlimit="10"
   x1="2079.9221"
   y1="2701.9041"
   x2="2079.9221"
   y2="131.105"
   id="line4193"
   style="fill:none;stroke:#0071b0;stroke-miterlimit:10" />
			<line
   stroke-miterlimit="10"
   x1="1768.109"
   y1="2701.9041"
   x2="1768.109"
   y2="131.105"
   id="line4195"
   style="fill:none;stroke:#0071b0;stroke-miterlimit:10" />
			<line
   stroke-miterlimit="10"
   x1="1456.3"
   y1="2701.9041"
   x2="1456.3"
   y2="131.105"
   id="line4197"
   style="fill:none;stroke:#0071b0;stroke-miterlimit:10" />
			<line
   stroke-miterlimit="10"
   x1="1144.49"
   y1="2701.9041"
   x2="1144.49"
   y2="131.105"
   id="line4199"
   style="fill:none;stroke:#0071b0;stroke-miterlimit:10" />
			<line
   stroke-miterlimit="10"
   x1="832.67798"
   y1="2701.9041"
   x2="832.67798"
   y2="131.105"
   id="line4201"
   style="fill:none;stroke:#0071b0;stroke-miterlimit:10" />
			<line
   stroke-miterlimit="10"
   x1="520.86798"
   y1="2701.9041"
   x2="520.86798"
   y2="131.105"
   id="line4203"
   style="fill:none;stroke:#0071b0;stroke-miterlimit:10" />
			<line
   stroke-miterlimit="10"
   x1="209.056"
   y1="2701.9041"
   x2="209.056"
   y2="131.105"
   id="line4205"
   style="fill:none;stroke:#0071b0;stroke-miterlimit:10" />
		</g>
		<g
   id="g4207">
			<line
   stroke-miterlimit="10"
   x1="131.10001"
   y1="2469.688"
   x2="2699.0349"
   y2="2469.688"
   id="line4209"
   style="fill:none;stroke:#0071b0;stroke-miterlimit:10" />
			<line
   stroke-miterlimit="10"
   x1="131.10001"
   y1="2157.875"
   x2="2699.0349"
   y2="2157.875"
   id="line4211"
   style="fill:none;stroke:#0071b0;stroke-miterlimit:10" />
			<line
   stroke-miterlimit="10"
   x1="131.10001"
   y1="1846.062"
   x2="2699.0349"
   y2="1846.062"
   id="line4213"
   style="fill:none;stroke:#0071b0;stroke-miterlimit:10" />
			<line
   stroke-miterlimit="10"
   x1="131.10001"
   y1="1534.251"
   x2="2699.0349"
   y2="1534.251"
   id="line4215"
   style="fill:none;stroke:#0071b0;stroke-miterlimit:10" />
			<line
   stroke-miterlimit="10"
   x1="131.10001"
   y1="1222.441"
   x2="2699.0349"
   y2="1222.441"
   id="line4217"
   style="fill:none;stroke:#0071b0;stroke-miterlimit:10" />
			<line
   stroke-miterlimit="10"
   x1="131.10001"
   y1="910.63"
   x2="2699.0349"
   y2="910.63"
   id="line4219"
   style="fill:none;stroke:#0071b0;stroke-miterlimit:10" />
			<line
   stroke-miterlimit="10"
   x1="131.10001"
   y1="598.81897"
   x2="2699.0349"
   y2="598.81897"
   id="line4221"
   style="fill:none;stroke:#0071b0;stroke-miterlimit:10" />
			<line
   stroke-miterlimit="10"
   x1="131.10001"
   y1="287.008"
   x2="2699.0349"
   y2="287.008"
   id="line4223"
   style="fill:none;stroke:#0071b0;stroke-miterlimit:10" />
		</g>
		<g
   id="g4225">
			<g
   id="g4227">
				<line
   stroke-miterlimit="10"
   x1="2625.592"
   y1="2701.9041"
   x2="2625.592"
   y2="131.10201"
   id="line4229"
   style="fill:none;stroke:#0071b0;stroke-miterlimit:10" />
				<line
   stroke-miterlimit="10"
   x1="2313.781"
   y1="2701.9041"
   x2="2313.781"
   y2="131.10201"
   id="line4231"
   style="fill:none;stroke:#0071b0;stroke-miterlimit:10" />
				<line
   stroke-miterlimit="10"
   x1="2001.97"
   y1="2701.9041"
   x2="2001.97"
   y2="131.10201"
   id="line4233"
   style="fill:none;stroke:#0071b0;stroke-miterlimit:10" />
				<line
   stroke-miterlimit="10"
   x1="1690.157"
   y1="2701.9041"
   x2="1690.157"
   y2="131.10201"
   id="line4235"
   style="fill:none;stroke:#0071b0;stroke-miterlimit:10" />
				<line
   stroke-miterlimit="10"
   x1="1378.348"
   y1="2701.9041"
   x2="1378.348"
   y2="131.10201"
   id="line4237"
   style="fill:none;stroke:#0071b0;stroke-miterlimit:10" />
				<line
   stroke-miterlimit="10"
   x1="1066.538"
   y1="2701.9041"
   x2="1066.538"
   y2="131.10201"
   id="line4239"
   style="fill:none;stroke:#0071b0;stroke-miterlimit:10" />
				<line
   stroke-miterlimit="10"
   x1="754.72601"
   y1="2701.9041"
   x2="754.72601"
   y2="131.10201"
   id="line4241"
   style="fill:none;stroke:#0071b0;stroke-miterlimit:10" />
				<line
   stroke-miterlimit="10"
   x1="442.91599"
   y1="2701.9041"
   x2="442.91599"
   y2="131.10201"
   id="line4243"
   style="fill:none;stroke:#0071b0;stroke-miterlimit:10" />
				<line
   stroke-miterlimit="10"
   x1="131.104"
   y1="2701.9041"
   x2="131.104"
   y2="131.10201"
   id="line4245"
   style="fill:none;stroke:#0071b0;stroke-miterlimit:10" />
			</g>
			<g
   id="g4247">
				<line
   stroke-miterlimit="10"
   x1="2469.686"
   y1="2701.9041"
   x2="2469.686"
   y2="131.10201"
   id="line4249"
   style="fill:none;stroke:#0071b0;stroke-miterlimit:10" />
				<line
   stroke-miterlimit="10"
   x1="2157.873"
   y1="2701.9041"
   x2="2157.873"
   y2="131.10201"
   id="line4251"
   style="fill:none;stroke:#0071b0;stroke-miterlimit:10" />
				<line
   stroke-miterlimit="10"
   x1="1846.063"
   y1="2701.9041"
   x2="1846.063"
   y2="131.10201"
   id="line4253"
   style="fill:none;stroke:#0071b0;stroke-miterlimit:10" />
				<line
   stroke-miterlimit="10"
   x1="1534.254"
   y1="2701.9041"
   x2="1534.254"
   y2="131.10201"
   id="line4255"
   style="fill:none;stroke:#0071b0;stroke-miterlimit:10" />
				<line
   stroke-miterlimit="10"
   x1="1222.444"
   y1="2701.9041"
   x2="1222.444"
   y2="131.10201"
   id="line4257"
   style="fill:none;stroke:#0071b0;stroke-miterlimit:10" />
				<line
   stroke-miterlimit="10"
   x1="910.63202"
   y1="2701.9041"
   x2="910.63202"
   y2="131.10201"
   id="line4259"
   style="fill:none;stroke:#0071b0;stroke-miterlimit:10" />
				<line
   stroke-miterlimit="10"
   x1="598.82202"
   y1="2701.9041"
   x2="598.82202"
   y2="131.10201"
   id="line4261"
   style="fill:none;stroke:#0071b0;stroke-miterlimit:10" />
				<line
   stroke-miterlimit="10"
   x1="287.01001"
   y1="2701.9041"
   x2="287.01001"
   y2="131.10201"
   id="line4263"
   style="fill:none;stroke:#0071b0;stroke-miterlimit:10" />
			</g>
		</g>
		<g
   id="g4265">
			<g
   id="g4267">
				<line
   stroke-miterlimit="10"
   x1="131.10001"
   y1="2703.5449"
   x2="2699.0349"
   y2="2703.5449"
   id="line4269"
   style="fill:none;stroke:#0071b0;stroke-miterlimit:10" />
				<line
   stroke-miterlimit="10"
   x1="131.10001"
   y1="2391.7339"
   x2="2699.0349"
   y2="2391.7339"
   id="line4271"
   style="fill:none;stroke:#0071b0;stroke-miterlimit:10" />
				<line
   stroke-miterlimit="10"
   x1="131.10001"
   y1="2079.9199"
   x2="2699.0349"
   y2="2079.9199"
   id="line4273"
   style="fill:none;stroke:#0071b0;stroke-miterlimit:10" />
				<line
   stroke-miterlimit="10"
   x1="131.10001"
   y1="1768.108"
   x2="2699.0349"
   y2="1768.108"
   id="line4275"
   style="fill:none;stroke:#0071b0;stroke-miterlimit:10" />
				<line
   stroke-miterlimit="10"
   x1="131.10001"
   y1="1456.3"
   x2="2699.0349"
   y2="1456.3"
   id="line4277"
   style="fill:none;stroke:#0071b0;stroke-miterlimit:10" />
				<line
   stroke-miterlimit="10"
   x1="131.10001"
   y1="1144.489"
   x2="2699.0349"
   y2="1144.489"
   id="line4279"
   style="fill:none;stroke:#0071b0;stroke-miterlimit:10" />
				<line
   stroke-miterlimit="10"
   x1="131.10001"
   y1="832.677"
   x2="2699.0349"
   y2="832.677"
   id="line4281"
   style="fill:none;stroke:#0071b0;stroke-miterlimit:10" />
				<line
   stroke-miterlimit="10"
   x1="131.10001"
   y1="520.867"
   x2="2699.0349"
   y2="520.867"
   id="line4283"
   style="fill:none;stroke:#0071b0;stroke-miterlimit:10" />
				<line
   stroke-miterlimit="10"
   x1="131.10001"
   y1="209.05499"
   x2="2699.0349"
   y2="209.05499"
   id="line4285"
   style="fill:none;stroke:#0071b0;stroke-miterlimit:10" />
			</g>
			<g
   id="g4287">
				<line
   stroke-miterlimit="10"
   x1="131.10001"
   y1="2547.6389"
   x2="2699.0349"
   y2="2547.6389"
   id="line4289"
   style="fill:none;stroke:#0071b0;stroke-miterlimit:10" />
				<line
   stroke-miterlimit="10"
   x1="131.10001"
   y1="2235.8259"
   x2="2699.0349"
   y2="2235.8259"
   id="line4291"
   style="fill:none;stroke:#0071b0;stroke-miterlimit:10" />
				<line
   stroke-miterlimit="10"
   x1="131.10001"
   y1="1924.015"
   x2="2699.0349"
   y2="1924.015"
   id="line4293"
   style="fill:none;stroke:#0071b0;stroke-miterlimit:10" />
				<line
   stroke-miterlimit="10"
   x1="131.10001"
   y1="1612.2061"
   x2="2699.0349"
   y2="1612.2061"
   id="line4295"
   style="fill:none;stroke:#0071b0;stroke-miterlimit:10" />
				<line
   stroke-miterlimit="10"
   x1="131.10001"
   y1="1300.395"
   x2="2699.0349"
   y2="1300.395"
   id="line4297"
   style="fill:none;stroke:#0071b0;stroke-miterlimit:10" />
				<line
   stroke-miterlimit="10"
   x1="131.10001"
   y1="988.58301"
   x2="2699.0349"
   y2="988.58301"
   id="line4299"
   style="fill:none;stroke:#0071b0;stroke-miterlimit:10" />
				<line
   stroke-miterlimit="10"
   x1="131.10001"
   y1="676.77301"
   x2="2699.0349"
   y2="676.77301"
   id="line4301"
   style="fill:none;stroke:#0071b0;stroke-miterlimit:10" />
				<line
   stroke-miterlimit="10"
   x1="131.10001"
   y1="364.961"
   x2="2699.0349"
   y2="364.961"
   id="line4303"
   style="fill:none;stroke:#0071b0;stroke-miterlimit:10" />
			</g>
		</g>
	</g>
</g>
<g
   id="Layer_5_copy"
   transform="translate(-1.2914972e-5,-8.502866e-8)">
	<path
   stroke-miterlimit="10"
   d="m 2428.721,405.552 c -20.497,-20.496 -53.684,-20.485 -74.148,0 -20.486,20.475 -20.508,53.66 0,74.146 20.486,20.497 53.662,20.485 74.148,0 20.475,-20.475 20.486,-53.661 0,-74.146 z M 2394,445 c -1.308,1.28 -3.416,1.28 -4.719,-0.011 -1.298,-1.303 -1.309,-3.416 -0.011,-4.719 1.313,-1.304 3.427,-1.304 4.729,0 1.299,1.303 1.31,3.417 0,4.73 z"
   id="path4306"
   inkscape:connector-curvature="0"
   style="fill:none;stroke:#231f20;stroke-width:4;stroke-linecap:round;stroke-linejoin:round;stroke-miterlimit:10" />
	<path
   stroke-miterlimit="10"
   d="m 2188.603,642.317 c -17.172,-17.168 -44.975,-17.168 -62.141,0 -17.149,17.146 -17.149,44.959 0.017,62.128 17.161,17.169 44.952,17.158 62.112,0 17.167,-17.169 17.179,-44.96 0.012,-62.128 z m -28.709,33.429 c -1.301,1.301 -3.418,1.301 -4.707,-0.011 -1.306,-1.29 -1.306,-3.42 -0.018,-4.71 1.307,-1.312 3.435,-1.312 4.725,0 1.305,1.29 1.305,3.41 0,4.721 z"
   id="path4308"
   inkscape:connector-curvature="0"
   style="fill:none;stroke:#231f20;stroke-width:4;stroke-linecap:round;stroke-linejoin:round;stroke-miterlimit:10" />
	<path
   stroke-miterlimit="10"
   d="m 1960.868,873.557 c -20.497,-20.496 -53.684,-20.485 -74.148,0 -20.486,20.475 -20.508,53.66 0,74.146 20.486,20.497 53.662,20.485 74.148,0 20.476,-20.475 20.486,-53.661 0,-74.146 z m -34.721,39.448 c -1.308,1.28 -3.416,1.28 -4.719,-0.011 -1.298,-1.303 -1.309,-3.416 -0.011,-4.719 1.313,-1.304 3.427,-1.304 4.729,0 1.299,1.303 1.31,3.416 10e-4,4.73 z"
   id="path4310"
   inkscape:connector-curvature="0"
   style="fill:none;stroke:#231f20;stroke-width:4;stroke-linecap:round;stroke-linejoin:round;stroke-miterlimit:10" />
	<path
   stroke-miterlimit="10"
   d="m 1720.827,1114.175 c -17.172,-17.168 -44.975,-17.168 -62.141,0 -17.149,17.146 -17.149,44.959 0.017,62.128 17.161,17.169 44.952,17.158 62.112,0 17.167,-17.169 17.179,-44.96 0.012,-62.128 z m -28.709,33.429 c -1.301,1.301 -3.418,1.301 -4.707,-0.011 -1.306,-1.29 -1.306,-3.42 -0.018,-4.71 1.307,-1.312 3.435,-1.312 4.725,0 1.306,1.29 1.306,3.409 0,4.721 z"
   id="path4312"
   inkscape:connector-curvature="0"
   style="fill:none;stroke:#231f20;stroke-width:4;stroke-linecap:round;stroke-linejoin:round;stroke-miterlimit:10" />
	<path
   stroke-miterlimit="10"
   d="m 1495.547,1342.196 c -20.497,-20.496 -53.684,-20.485 -74.148,0 -20.486,20.475 -20.508,53.66 0,74.146 20.486,20.497 53.662,20.485 74.148,0 20.475,-20.475 20.486,-53.66 0,-74.146 z m -34.721,39.449 c -1.308,1.28 -3.416,1.28 -4.719,-0.011 -1.298,-1.303 -1.309,-3.416 -0.011,-4.719 1.313,-1.304 3.427,-1.304 4.729,0 1.299,1.303 1.31,3.416 10e-4,4.73 z"
   id="path4314"
   inkscape:connector-curvature="0"
   style="fill:none;stroke:#231f20;stroke-width:4;stroke-linecap:round;stroke-linejoin:round;stroke-miterlimit:10" />
	<path
   stroke-miterlimit="10"
   d="m 1255.511,1578.411 c -17.172,-17.168 -44.975,-17.168 -62.141,0 -17.149,17.146 -17.149,44.959 0.017,62.128 17.161,17.169 44.952,17.158 62.112,0 17.168,-17.169 17.179,-44.96 0.012,-62.128 z m -28.709,33.429 c -1.301,1.301 -3.418,1.301 -4.707,-0.011 -1.306,-1.29 -1.306,-3.42 -0.018,-4.71 1.307,-1.312 3.435,-1.312 4.725,0 1.306,1.29 1.306,3.409 0,4.721 z"
   id="path4316"
   inkscape:connector-curvature="0"
   style="fill:none;stroke:#231f20;stroke-width:4;stroke-linecap:round;stroke-linejoin:round;stroke-miterlimit:10" />
	<path
   stroke-miterlimit="10"
   d="m 1025.001,1808.988 c -20.497,-20.496 -53.684,-20.485 -74.148,0 -20.486,20.475 -20.508,53.66 0,74.146 20.486,20.497 53.662,20.485 74.148,0 20.476,-20.475 20.486,-53.66 0,-74.146 z m -34.721,39.449 c -1.308,1.28 -3.416,1.28 -4.719,-0.011 -1.298,-1.303 -1.309,-3.416 -0.011,-4.719 1.313,-1.304 3.427,-1.304 4.729,0 1.299,1.303 1.31,3.416 10e-4,4.73 z"
   id="path4318"
   inkscape:connector-curvature="0"
   style="fill:none;stroke:#231f20;stroke-width:4;stroke-linecap:round;stroke-linejoin:round;stroke-miterlimit:10" />
	<path
   stroke-miterlimit="10"
   d="m 787.464,2046.457 c -17.172,-17.168 -44.975,-17.168 -62.141,0 -17.15,17.146 -17.15,44.959 0.016,62.128 17.162,17.169 44.953,17.158 62.113,0 17.167,-17.169 17.178,-44.96 0.012,-62.128 z m -28.709,33.429 c -1.301,1.301 -3.418,1.301 -4.707,-0.011 -1.307,-1.29 -1.307,-3.42 -0.018,-4.71 1.307,-1.312 3.434,-1.312 4.725,0 1.305,1.29 1.305,3.409 0,4.721 z"
   id="path4320"
   inkscape:connector-curvature="0"
   style="fill:none;stroke:#231f20;stroke-width:4;stroke-linecap:round;stroke-linejoin:round;stroke-miterlimit:10" />
	<path
   stroke-miterlimit="10"
   d="m 556,2276.709 c -20.498,-20.496 -53.684,-20.485 -74.148,0 -20.486,20.475 -20.508,53.66 0,74.146 20.486,20.497 53.662,20.485 74.148,0 20.475,-20.475 20.486,-53.661 0,-74.146 z m -34.721,39.448 c -1.309,1.28 -3.416,1.28 -4.719,-0.011 -1.299,-1.303 -1.309,-3.416 -0.012,-4.719 1.314,-1.304 3.428,-1.304 4.73,0 1.298,1.303 1.31,3.417 10e-4,4.73 z"
   id="path4322"
   inkscape:connector-curvature="0"
   style="fill:none;stroke:#231f20;stroke-width:4;stroke-linecap:round;stroke-linejoin:round;stroke-miterlimit:10" />
	<path
   stroke-miterlimit="10"
   d="m 1883.961,483.794 c -20.496,-20.496 -53.684,-20.485 -74.148,0 -20.486,20.475 -20.508,53.66 0,74.146 20.486,20.497 53.662,20.485 74.148,0 20.477,-20.475 20.486,-53.661 0,-74.146 z m -34.721,39.448 c -1.307,1.28 -3.416,1.28 -4.719,-0.011 -1.297,-1.303 -1.309,-3.416 -0.01,-4.719 1.313,-1.304 3.426,-1.304 4.729,0 1.299,1.303 1.309,3.417 0,4.73 z"
   id="path4324"
   inkscape:connector-curvature="0"
   style="fill:none;stroke:#231f20;stroke-width:4;stroke-linecap:round;stroke-linejoin:round;stroke-miterlimit:10" />
	<path
   stroke-miterlimit="10"
   d="m 1641.15,723.732 c -17.172,-17.168 -44.975,-17.168 -62.141,0 -17.15,17.146 -17.15,44.959 0.016,62.128 17.162,17.169 44.953,17.158 62.113,0 17.167,-17.169 17.178,-44.96 0.012,-62.128 z m -28.709,33.429 c -1.301,1.301 -3.418,1.301 -4.707,-0.011 -1.307,-1.29 -1.307,-3.42 -0.018,-4.71 1.307,-1.312 3.434,-1.312 4.725,0 1.305,1.29 1.305,3.41 0,4.721 z"
   id="path4326"
   inkscape:connector-curvature="0"
   style="fill:none;stroke:#231f20;stroke-width:4;stroke-linecap:round;stroke-linejoin:round;stroke-miterlimit:10" />
	<path
   stroke-miterlimit="10"
   d="m 1416.139,950.465 c -20.497,-20.496 -53.684,-20.485 -74.148,0 -20.486,20.475 -20.508,53.66 0,74.146 20.486,20.497 53.662,20.485 74.148,0 20.476,-20.475 20.486,-53.661 0,-74.146 z m -34.721,39.448 c -1.308,1.28 -3.416,1.28 -4.719,-0.011 -1.298,-1.303 -1.309,-3.416 -0.011,-4.719 1.313,-1.304 3.427,-1.304 4.729,0 1.299,1.303 1.31,3.417 10e-4,4.73 z"
   id="path4328"
   inkscape:connector-curvature="0"
   style="fill:none;stroke:#231f20;stroke-width:4;stroke-linecap:round;stroke-linejoin:round;stroke-miterlimit:10" />
	<path
   stroke-miterlimit="10"
   d="m 1176.106,1193.5 c -17.172,-17.168 -44.975,-17.168 -62.141,0 -17.149,17.146 -17.149,44.959 0.017,62.128 17.161,17.169 44.952,17.158 62.112,0 17.167,-17.17 17.179,-44.961 0.012,-62.128 z m -28.709,33.428 c -1.301,1.301 -3.418,1.301 -4.707,-0.011 -1.306,-1.29 -1.306,-3.42 -0.018,-4.71 1.307,-1.312 3.435,-1.312 4.725,0 1.306,1.291 1.306,3.41 0,4.721 z"
   id="path4330"
   inkscape:connector-curvature="0"
   style="fill:none;stroke:#231f20;stroke-width:4;stroke-linecap:round;stroke-linejoin:round;stroke-miterlimit:10" />
	<path
   stroke-miterlimit="10"
   d="m 948.094,1419.783 c -20.497,-20.496 -53.684,-20.485 -74.148,0 -20.486,20.475 -20.508,53.66 0,74.146 20.486,20.497 53.662,20.485 74.148,0 20.476,-20.475 20.487,-53.66 0,-74.146 z m -34.72,39.448 c -1.308,1.28 -3.416,1.28 -4.719,-0.011 -1.298,-1.303 -1.309,-3.416 -0.011,-4.719 1.313,-1.304 3.427,-1.304 4.729,0 1.298,1.304 1.309,3.417 10e-4,4.73 z"
   id="path4332"
   inkscape:connector-curvature="0"
   style="fill:none;stroke:#231f20;stroke-width:4;stroke-linecap:round;stroke-linejoin:round;stroke-miterlimit:10" />
	<path
   stroke-miterlimit="10"
   d="m 708.059,1659.826 c -17.172,-17.168 -44.975,-17.168 -62.141,0 -17.15,17.146 -17.15,44.959 0.016,62.128 17.162,17.169 44.953,17.158 62.113,0 17.166,-17.169 17.178,-44.96 0.012,-62.128 z m -28.709,33.429 c -1.301,1.301 -3.418,1.301 -4.707,-0.011 -1.307,-1.29 -1.307,-3.42 -0.018,-4.71 1.307,-1.312 3.434,-1.312 4.725,0 1.305,1.29 1.305,3.409 0,4.721 z"
   id="path4334"
   inkscape:connector-curvature="0"
   style="fill:none;stroke:#231f20;stroke-width:4;stroke-linecap:round;stroke-linejoin:round;stroke-miterlimit:10" />
	<path
   stroke-miterlimit="10"
   d="m 478.537,1655.854 c -20.497,-20.496 -53.684,-20.485 -74.148,0 -20.486,20.475 -20.508,53.66 0,74.146 20.486,20.497 53.662,20.485 74.148,0 20.475,-20.475 20.486,-53.66 0,-74.146 z m -34.721,39.449 c -1.308,1.28 -3.416,1.28 -4.719,-0.011 -1.298,-1.303 -1.309,-3.416 -0.011,-4.719 1.313,-1.304 3.427,-1.304 4.729,0 1.299,1.303 1.31,3.416 10e-4,4.73 z"
   id="path4336"
   inkscape:connector-curvature="0"
   style="fill:none;stroke:#231f20;stroke-width:4;stroke-linecap:round;stroke-linejoin:round;stroke-miterlimit:10" />
	<path
   stroke-miterlimit="10"
   d="m 1492.823,483.794 c -20.497,-20.496 -53.684,-20.485 -74.148,0 -20.486,20.475 -20.508,53.66 0,74.146 20.486,20.497 53.662,20.485 74.148,0 20.476,-20.475 20.487,-53.66 0,-74.146 z m -34.72,39.449 c -1.308,1.28 -3.416,1.28 -4.719,-0.011 -1.298,-1.303 -1.309,-3.416 -0.011,-4.719 1.313,-1.304 3.427,-1.304 4.729,0 1.298,1.303 1.309,3.416 10e-4,4.73 z"
   id="path4338"
   inkscape:connector-curvature="0"
   style="fill:none;stroke:#231f20;stroke-width:4;stroke-linecap:round;stroke-linejoin:round;stroke-miterlimit:10" />
	<path
   stroke-miterlimit="10"
   d="m 1255.512,723.662 c -17.172,-17.168 -44.975,-17.168 -62.141,0 -17.149,17.146 -17.149,44.959 0.017,62.128 17.161,17.169 44.952,17.158 62.112,0 17.167,-17.169 17.179,-44.96 0.012,-62.128 z m -28.709,33.428 c -1.301,1.301 -3.418,1.301 -4.707,-0.011 -1.306,-1.29 -1.306,-3.42 -0.018,-4.71 1.307,-1.312 3.435,-1.312 4.725,0 1.305,1.291 1.305,3.41 0,4.721 z"
   id="path4340"
   inkscape:connector-curvature="0"
   style="fill:none;stroke:#231f20;stroke-width:4;stroke-linecap:round;stroke-linejoin:round;stroke-miterlimit:10" />
	<path
   stroke-miterlimit="10"
   d="m 1025.001,950.604 c -20.497,-20.496 -53.684,-20.485 -74.148,0 -20.486,20.475 -20.508,53.66 0,74.146 20.486,20.497 53.662,20.485 74.148,0 20.476,-20.475 20.486,-53.66 0,-74.146 z m -34.721,39.449 c -1.308,1.28 -3.416,1.28 -4.719,-0.011 -1.298,-1.303 -1.309,-3.416 -0.011,-4.719 1.313,-1.304 3.427,-1.304 4.729,0 1.299,1.303 1.31,3.416 10e-4,4.73 z"
   id="path4342"
   inkscape:connector-curvature="0"
   style="fill:none;stroke:#231f20;stroke-width:4;stroke-linecap:round;stroke-linejoin:round;stroke-miterlimit:10" />
	<path
   stroke-miterlimit="10"
   d="m 784.968,1193.639 c -17.172,-17.168 -44.975,-17.168 -62.141,0 -17.149,17.146 -17.149,44.959 0.017,62.128 17.161,17.169 44.952,17.158 62.112,0 17.167,-17.169 17.179,-44.96 0.012,-62.128 z m -28.709,33.429 c -1.301,1.301 -3.418,1.301 -4.707,-0.011 -1.306,-1.29 -1.306,-3.42 -0.018,-4.71 1.307,-1.312 3.435,-1.312 4.725,0 1.305,1.29 1.305,3.409 0,4.721 z"
   id="path4344"
   inkscape:connector-curvature="0"
   style="fill:none;stroke:#231f20;stroke-width:4;stroke-linecap:round;stroke-linejoin:round;stroke-miterlimit:10" />
	<path
   stroke-miterlimit="10"
   d="m 557.948,1419.227 c -20.497,-20.496 -53.684,-20.485 -74.148,0 -20.486,20.475 -20.508,53.66 0,74.146 20.486,20.497 53.662,20.485 74.148,0 20.476,-20.476 20.487,-53.661 0,-74.146 z m -34.72,39.448 c -1.308,1.28 -3.416,1.28 -4.719,-0.011 -1.298,-1.303 -1.309,-3.416 -0.011,-4.719 1.313,-1.304 3.427,-1.304 4.729,0 1.298,1.303 1.309,3.416 10e-4,4.73 z"
   id="path4346"
   inkscape:connector-curvature="0"
   style="fill:none;stroke:#231f20;stroke-width:4;stroke-linecap:round;stroke-linejoin:round;stroke-miterlimit:10" />
	<path
   stroke-miterlimit="10"
   d="m 2342.619,178.991 c -17.172,-17.168 -44.975,-17.168 -62.141,0 -17.148,17.146 -17.148,44.959 0.018,62.128 17.16,17.169 44.951,17.158 62.111,0 17.168,-17.169 17.18,-44.96 0.012,-62.128 z m -28.709,33.429 c -1.301,1.301 -3.418,1.301 -4.707,-0.011 -1.305,-1.29 -1.305,-3.42 -0.018,-4.71 1.307,-1.312 3.436,-1.312 4.725,0 1.307,1.29 1.307,3.409 0,4.721 z"
   id="path4348"
   inkscape:connector-curvature="0"
   style="fill:none;stroke:#231f20;stroke-width:4;stroke-linecap:round;stroke-linejoin:round;stroke-miterlimit:10" />
	<path
   stroke-miterlimit="10"
   d="m 725.333,2577.221 c 17.172,17.168 44.975,17.168 62.141,0 17.148,-17.146 17.148,-44.959 -0.018,-62.127 -17.16,-17.17 -44.951,-17.158 -62.111,0 -17.168,17.168 -17.18,44.959 -0.012,62.127 z m 28.709,-33.428 c 1.301,-1.301 3.418,-1.301 4.707,0.01 1.305,1.291 1.305,3.42 0.018,4.711 -1.307,1.311 -3.436,1.311 -4.725,0 -1.307,-1.291 -1.307,-3.41 0,-4.721 z"
   id="path4350"
   inkscape:connector-curvature="0"
   style="fill:none;stroke:#231f20;stroke-width:4;stroke-linecap:round;stroke-linejoin:round;stroke-miterlimit:10" />
	<path
   stroke-miterlimit="10"
   d="m 951.504,2350.854 c 20.496,20.496 53.684,20.486 74.148,0 20.486,-20.475 20.508,-53.66 0,-74.145 -20.486,-20.498 -53.662,-20.486 -74.148,0 -20.476,20.476 -20.486,53.661 0,74.145 z m 34.721,-39.447 c 1.307,-1.281 3.416,-1.281 4.719,0.01 1.297,1.303 1.309,3.416 0.01,4.719 -1.313,1.305 -3.426,1.305 -4.729,0 -1.299,-1.303 -1.308,-3.416 0,-4.729 z"
   id="path4352"
   inkscape:connector-curvature="0"
   style="fill:none;stroke:#231f20;stroke-width:4;stroke-linecap:round;stroke-linejoin:round;stroke-miterlimit:10" />
	<path
   stroke-miterlimit="10"
   d="m 1191.377,2112.393 c 17.172,17.168 44.975,17.168 62.141,0 17.15,-17.146 17.15,-44.959 -0.016,-62.127 -17.162,-17.17 -44.953,-17.158 -62.113,0 -17.166,17.168 -17.178,44.959 -0.012,62.127 z m 28.709,-33.428 c 1.301,-1.301 3.418,-1.301 4.707,0.01 1.307,1.291 1.307,3.42 0.018,4.711 -1.307,1.311 -3.434,1.311 -4.725,0 -1.305,-1.291 -1.305,-3.411 0,-4.721 z"
   id="path4354"
   inkscape:connector-curvature="0"
   style="fill:none;stroke:#231f20;stroke-width:4;stroke-linecap:round;stroke-linejoin:round;stroke-miterlimit:10" />
	<path
   stroke-miterlimit="10"
   d="m 1419.264,1882.289 c 20.496,20.496 53.684,20.486 74.148,0 20.486,-20.475 20.508,-53.66 0,-74.145 -20.486,-20.498 -53.662,-20.486 -74.148,0 -20.477,20.475 -20.487,53.661 0,74.145 z m 34.72,-39.447 c 1.307,-1.281 3.416,-1.281 4.719,0.01 1.297,1.303 1.309,3.416 0.01,4.719 -1.313,1.305 -3.426,1.305 -4.729,0 -1.298,-1.303 -1.308,-3.417 0,-4.729 z"
   id="path4356"
   inkscape:connector-curvature="0"
   style="fill:none;stroke:#231f20;stroke-width:4;stroke-linecap:round;stroke-linejoin:round;stroke-miterlimit:10" />
	<path
   stroke-miterlimit="10"
   d="m 1658.696,1642.625 c 17.172,17.168 44.975,17.168 62.141,0 17.148,-17.146 17.148,-44.959 -0.018,-62.127 -17.16,-17.17 -44.951,-17.158 -62.111,0 -17.168,17.168 -17.18,44.959 -0.012,62.127 z m 28.709,-33.428 c 1.301,-1.301 3.418,-1.301 4.707,0.01 1.305,1.291 1.305,3.42 0.018,4.711 -1.307,1.311 -3.436,1.311 -4.725,0 -1.306,-1.291 -1.306,-3.41 0,-4.721 z"
   id="path4358"
   inkscape:connector-curvature="0"
   style="fill:none;stroke:#231f20;stroke-width:4;stroke-linecap:round;stroke-linejoin:round;stroke-miterlimit:10" />
	<path
   stroke-miterlimit="10"
   d="m 1886.708,1416.342 c 20.496,20.496 53.684,20.486 74.148,0 20.486,-20.475 20.508,-53.66 0,-74.146 -20.486,-20.497 -53.662,-20.485 -74.148,0 -20.477,20.475 -20.486,53.661 0,74.146 z m 34.721,-39.448 c 1.307,-1.28 3.416,-1.28 4.719,0.011 1.297,1.303 1.309,3.416 0.01,4.719 -1.313,1.304 -3.426,1.304 -4.729,0 -1.299,-1.303 -1.309,-3.416 0,-4.73 z"
   id="path4360"
   inkscape:connector-curvature="0"
   style="fill:none;stroke:#231f20;stroke-width:4;stroke-linecap:round;stroke-linejoin:round;stroke-miterlimit:10" />
	<path
   stroke-miterlimit="10"
   d="m 2126.743,1176.299 c 17.172,17.168 44.975,17.168 62.141,0 17.149,-17.146 17.149,-44.959 -0.016,-62.128 -17.162,-17.169 -44.953,-17.158 -62.113,0 -17.166,17.169 -17.178,44.96 -0.012,62.128 z m 28.709,-33.428 c 1.301,-1.301 3.418,-1.301 4.707,0.011 1.307,1.29 1.307,3.42 0.018,4.71 -1.307,1.312 -3.434,1.312 -4.725,0 -1.305,-1.291 -1.305,-3.41 0,-4.721 z"
   id="path4362"
   inkscape:connector-curvature="0"
   style="fill:none;stroke:#231f20;stroke-width:4;stroke-linecap:round;stroke-linejoin:round;stroke-miterlimit:10" />
	<path
   stroke-miterlimit="10"
   d="m 2354.755,946.567 c 20.497,20.496 53.684,20.485 74.148,0 20.486,-20.475 20.508,-53.66 0,-74.146 -20.486,-20.497 -53.662,-20.485 -74.148,0 -20.476,20.475 -20.486,53.661 0,74.146 z m 34.721,-39.448 c 1.308,-1.28 3.416,-1.28 4.719,0.011 1.298,1.303 1.309,3.416 0.011,4.719 -1.313,1.304 -3.427,1.304 -4.729,0 -1.299,-1.304 -1.31,-3.417 -10e-4,-4.73 z"
   id="path4364"
   inkscape:connector-curvature="0"
   style="fill:none;stroke:#231f20;stroke-width:4;stroke-linecap:round;stroke-linejoin:round;stroke-miterlimit:10" />
	<path
   stroke-miterlimit="10"
   d="m 2594.79,708.253 c 17.172,17.168 44.975,17.168 62.141,0 17.15,-17.146 17.15,-44.959 -0.016,-62.128 -17.162,-17.169 -44.953,-17.158 -62.113,0 -17.166,17.169 -17.178,44.96 -0.012,62.128 z m 28.709,-33.428 c 1.301,-1.301 3.418,-1.301 4.707,0.011 1.307,1.29 1.307,3.42 0.018,4.71 -1.307,1.312 -3.434,1.312 -4.725,0 -1.305,-1.291 -1.305,-3.41 0,-4.721 z"
   id="path4366"
   inkscape:connector-curvature="0"
   style="fill:none;stroke:#231f20;stroke-width:4;stroke-linecap:round;stroke-linejoin:round;stroke-miterlimit:10" />
	<path
   stroke-miterlimit="10"
   d="m 2516.574,2655.699 c 17.172,17.168 44.975,17.168 62.141,0 17.149,-17.146 17.149,-44.959 -0.017,-62.129 -17.161,-17.168 -44.952,-17.158 -62.112,0 -17.167,17.17 -17.179,44.961 -0.012,62.129 z m 28.709,-33.429 c 1.301,-1.301 3.418,-1.301 4.707,0.012 1.306,1.289 1.306,3.42 0.018,4.709 -1.307,1.313 -3.435,1.313 -4.725,0 -1.305,-1.29 -1.305,-3.409 0,-4.721 z"
   id="path4368"
   inkscape:connector-curvature="0"
   style="fill:none;stroke:#231f20;stroke-width:4;stroke-linecap:round;stroke-linejoin:round;stroke-miterlimit:10" />
	<path
   stroke-miterlimit="10"
   d="m 1341.268,2429.02 c 20.497,20.496 53.684,20.484 74.148,0 20.486,-20.475 20.507,-53.66 0,-74.146 -20.486,-20.496 -53.662,-20.484 -74.148,0 -20.476,20.474 -20.486,53.659 0,74.146 z m 34.721,-39.45 c 1.308,-1.279 3.416,-1.279 4.719,0.012 1.298,1.303 1.309,3.416 0.011,4.719 -1.313,1.303 -3.427,1.303 -4.729,0 -1.299,-1.303 -1.31,-3.416 -10e-4,-4.731 z"
   id="path4370"
   inkscape:connector-curvature="0"
   style="fill:none;stroke:#231f20;stroke-width:4;stroke-linecap:round;stroke-linejoin:round;stroke-miterlimit:10" />
	<path
   stroke-miterlimit="10"
   d="m 1581.139,2188.938 c 17.172,17.168 44.975,17.168 62.141,0 17.149,-17.146 17.149,-44.959 -0.017,-62.129 -17.161,-17.168 -44.952,-17.158 -62.112,0 -17.168,17.17 -17.179,44.961 -0.012,62.129 z m 28.709,-33.43 c 1.301,-1.301 3.418,-1.301 4.707,0.012 1.306,1.289 1.306,3.42 0.018,4.709 -1.307,1.313 -3.435,1.313 -4.725,0 -1.306,-1.29 -1.306,-3.409 0,-4.721 z"
   id="path4372"
   inkscape:connector-curvature="0"
   style="fill:none;stroke:#231f20;stroke-width:4;stroke-linecap:round;stroke-linejoin:round;stroke-miterlimit:10" />
	<path
   stroke-miterlimit="10"
   d="m 1809.801,1965.521 c 20.497,20.496 53.684,20.484 74.148,0 20.486,-20.475 20.508,-53.66 0,-74.146 -20.486,-20.496 -53.662,-20.484 -74.148,0 -20.476,20.475 -20.487,53.66 0,74.146 z m 34.72,-39.449 c 1.308,-1.279 3.416,-1.279 4.719,0.012 1.298,1.303 1.309,3.416 0.011,4.719 -1.313,1.303 -3.427,1.303 -4.729,0 -1.298,-1.303 -1.309,-3.416 -10e-4,-4.731 z"
   id="path4374"
   inkscape:connector-curvature="0"
   style="fill:none;stroke:#231f20;stroke-width:4;stroke-linecap:round;stroke-linejoin:round;stroke-miterlimit:10" />
	<path
   stroke-miterlimit="10"
   d="m 2049.834,1722.486 c 17.172,17.168 44.975,17.168 62.141,0 17.149,-17.146 17.149,-44.959 -0.017,-62.129 -17.161,-17.168 -44.952,-17.158 -62.112,0 -17.167,17.17 -17.179,44.961 -0.012,62.129 z m 28.709,-33.429 c 1.301,-1.301 3.418,-1.301 4.707,0.012 1.306,1.289 1.306,3.42 0.018,4.709 -1.307,1.313 -3.435,1.313 -4.725,0 -1.306,-1.29 -1.306,-3.409 0,-4.721 z"
   id="path4376"
   inkscape:connector-curvature="0"
   style="fill:none;stroke:#231f20;stroke-width:4;stroke-linecap:round;stroke-linejoin:round;stroke-miterlimit:10" />
	<path
   stroke-miterlimit="10"
   d="m 2276.701,1496.203 c 20.497,20.496 53.684,20.484 74.148,0 20.486,-20.475 20.508,-53.66 0,-74.146 -20.486,-20.497 -53.662,-20.485 -74.148,0 -20.475,20.474 -20.486,53.66 0,74.146 z m 34.721,-39.449 c 1.308,-1.279 3.416,-1.279 4.719,0.012 1.298,1.303 1.309,3.416 0.011,4.719 -1.313,1.303 -3.427,1.303 -4.729,0 -1.299,-1.303 -1.31,-3.417 -10e-4,-4.731 z"
   id="path4378"
   inkscape:connector-curvature="0"
   style="fill:none;stroke:#231f20;stroke-width:4;stroke-linecap:round;stroke-linejoin:round;stroke-miterlimit:10" />
	<path
   stroke-miterlimit="10"
   d="m 2516.572,1253.503 c 17.172,17.168 44.975,17.168 62.141,0 17.149,-17.146 17.149,-44.959 -0.016,-62.128 -17.162,-17.169 -44.953,-17.158 -62.113,0 -17.166,17.169 -17.178,44.96 -0.012,62.128 z m 28.709,-33.429 c 1.301,-1.301 3.418,-1.301 4.707,0.011 1.307,1.29 1.307,3.42 0.018,4.71 -1.307,1.312 -3.434,1.312 -4.725,0 -1.304,-1.29 -1.304,-3.409 0,-4.721 z"
   id="path4380"
   inkscape:connector-curvature="0"
   style="fill:none;stroke:#231f20;stroke-width:4;stroke-linecap:round;stroke-linejoin:round;stroke-miterlimit:10" />
	<path
   stroke-miterlimit="10"
   d="m 1659.092,2577.221 c 17.172,17.168 44.975,17.168 62.141,0 17.148,-17.146 17.148,-44.959 -0.018,-62.129 -17.16,-17.168 -44.951,-17.158 -62.111,0 -17.168,17.17 -17.18,44.961 -0.012,62.129 z m 28.709,-33.43 c 1.301,-1.301 3.418,-1.301 4.707,0.012 1.305,1.289 1.305,3.42 0.018,4.709 -1.307,1.313 -3.436,1.313 -4.725,0 -1.307,-1.289 -1.307,-3.408 0,-4.721 z"
   id="path4382"
   inkscape:connector-curvature="0"
   style="fill:none;stroke:#231f20;stroke-width:4;stroke-linecap:round;stroke-linejoin:round;stroke-miterlimit:10" />
	<path
   stroke-miterlimit="10"
   d="m 1886.708,2350.854 c 20.496,20.496 53.684,20.484 74.148,0 20.486,-20.475 20.508,-53.66 0,-74.146 -20.486,-20.496 -53.662,-20.484 -74.148,0 -20.477,20.475 -20.486,53.66 0,74.146 z m 34.721,-39.449 c 1.307,-1.279 3.416,-1.279 4.719,0.012 1.297,1.303 1.309,3.416 0.01,4.719 -1.313,1.303 -3.426,1.303 -4.729,0 -1.299,-1.303 -1.309,-3.416 0,-4.731 z"
   id="path4384"
   inkscape:connector-curvature="0"
   style="fill:none;stroke:#231f20;stroke-width:4;stroke-linecap:round;stroke-linejoin:round;stroke-miterlimit:10" />
	<path
   stroke-miterlimit="10"
   d="m 2126.471,2110.982 c 17.172,17.168 44.975,17.168 62.141,0 17.15,-17.146 17.15,-44.959 -0.016,-62.129 -17.162,-17.168 -44.953,-17.158 -62.113,0 -17.167,17.17 -17.178,44.961 -0.012,62.129 z m 28.709,-33.429 c 1.301,-1.301 3.418,-1.301 4.707,0.012 1.307,1.289 1.307,3.42 0.018,4.709 -1.307,1.313 -3.434,1.313 -4.725,0 -1.305,-1.29 -1.305,-3.409 0,-4.721 z"
   id="path4386"
   inkscape:connector-curvature="0"
   style="fill:none;stroke:#231f20;stroke-width:4;stroke-linecap:round;stroke-linejoin:round;stroke-miterlimit:10" />
	<path
   stroke-miterlimit="10"
   d="m 2354.561,1883.135 c 20.496,20.496 53.684,20.484 74.148,0 20.486,-20.475 20.508,-53.66 0,-74.146 -20.486,-20.496 -53.662,-20.484 -74.148,0 -20.477,20.474 -20.487,53.659 0,74.146 z m 34.72,-39.449 c 1.307,-1.279 3.416,-1.279 4.719,0.012 1.297,1.303 1.309,3.416 0.01,4.719 -1.313,1.303 -3.426,1.303 -4.729,0 -1.299,-1.304 -1.308,-3.417 0,-4.731 z"
   id="path4388"
   inkscape:connector-curvature="0"
   style="fill:none;stroke:#231f20;stroke-width:4;stroke-linecap:round;stroke-linejoin:round;stroke-miterlimit:10" />
	<path
   stroke-miterlimit="10"
   d="m 2592.565,1643.269 c 17.172,17.168 44.975,17.168 62.141,0 17.148,-17.146 17.148,-44.959 -0.018,-62.129 -17.16,-17.168 -44.951,-17.158 -62.111,0 -17.168,17.17 -17.18,44.961 -0.012,62.129 z m 28.709,-33.43 c 1.301,-1.301 3.418,-1.301 4.707,0.012 1.305,1.289 1.305,3.42 0.018,4.709 -1.307,1.313 -3.436,1.313 -4.725,0 -1.306,-1.289 -1.306,-3.409 0,-4.721 z"
   id="path4390"
   inkscape:connector-curvature="0"
   style="fill:none;stroke:#231f20;stroke-width:4;stroke-linecap:round;stroke-linejoin:round;stroke-miterlimit:10" />
	<path
   stroke-miterlimit="10"
   d="m 492.183,2657.135 c 17.172,17.168 44.975,17.168 62.141,0 17.148,-17.146 17.148,-44.959 -0.018,-62.129 -17.16,-17.168 -44.951,-17.158 -62.111,0 -17.169,17.17 -17.18,44.961 -0.012,62.129 z m 28.709,-33.43 c 1.301,-1.301 3.418,-1.301 4.707,0.012 1.305,1.289 1.305,3.42 0.018,4.709 -1.307,1.313 -3.436,1.313 -4.725,0 -1.307,-1.289 -1.307,-3.408 0,-4.721 z"
   id="path4392"
   inkscape:connector-curvature="0"
   style="fill:none;stroke:#231f20;stroke-width:4;stroke-linecap:round;stroke-linejoin:round;stroke-miterlimit:10" />
	<path
   stroke-miterlimit="10"
   d="m 1425.278,2654.418 c 17.172,17.168 44.975,17.168 62.141,0 17.148,-17.146 17.148,-44.959 -0.018,-62.129 -17.16,-17.168 -44.951,-17.158 -62.111,0 -17.168,17.17 -17.18,44.961 -0.012,62.129 z m 28.709,-33.43 c 1.301,-1.301 3.418,-1.301 4.707,0.012 1.305,1.289 1.305,3.42 0.018,4.709 -1.307,1.313 -3.436,1.313 -4.725,0 -1.306,-1.289 -1.306,-3.408 0,-4.721 z"
   id="path4394"
   inkscape:connector-curvature="0"
   style="fill:none;stroke:#231f20;stroke-width:4;stroke-linecap:round;stroke-linejoin:round;stroke-miterlimit:10" />
	<path
   stroke-miterlimit="10"
   d="m 2276.701,2428.808 c 20.496,20.496 53.684,20.484 74.148,0 20.486,-20.475 20.508,-53.66 0,-74.146 -20.486,-20.496 -53.662,-20.484 -74.148,0 -20.476,20.474 -20.486,53.659 0,74.146 z m 34.721,-39.45 c 1.307,-1.279 3.416,-1.279 4.719,0.012 1.297,1.303 1.309,3.416 0.01,4.719 -1.313,1.303 -3.426,1.303 -4.729,0 -1.299,-1.303 -1.309,-3.416 0,-4.731 z"
   id="path4396"
   inkscape:connector-curvature="0"
   style="fill:none;stroke:#231f20;stroke-width:4;stroke-linecap:round;stroke-linejoin:round;stroke-miterlimit:10" />
	<path
   stroke-miterlimit="10"
   d="m 2514.835,2189.236 c 17.172,17.168 44.975,17.168 62.141,0 17.148,-17.146 17.148,-44.959 -0.018,-62.129 -17.16,-17.168 -44.951,-17.158 -62.111,0 -17.168,17.17 -17.18,44.961 -0.012,62.129 z m 28.709,-33.429 c 1.301,-1.301 3.418,-1.301 4.707,0.012 1.305,1.289 1.305,3.42 0.018,4.709 -1.307,1.313 -3.436,1.313 -4.725,0 -1.307,-1.29 -1.307,-3.409 0,-4.721 z"
   id="path4398"
   inkscape:connector-curvature="0"
   style="fill:none;stroke:#231f20;stroke-width:4;stroke-linecap:round;stroke-linejoin:round;stroke-miterlimit:10" />
	<path
   stroke-miterlimit="10"
   d="m 2588.776,1960.719 c 20.496,20.496 53.684,20.484 74.148,0 20.486,-20.475 20.508,-53.66 0,-74.146 -20.486,-20.496 -53.662,-20.484 -74.148,0 -20.476,20.474 -20.486,53.659 0,74.146 z m 34.721,-39.449 c 1.307,-1.279 3.416,-1.279 4.719,0.012 1.297,1.303 1.309,3.416 0.01,4.719 -1.313,1.303 -3.426,1.303 -4.729,0 -1.299,-1.304 -1.309,-3.417 0,-4.731 z"
   id="path4400"
   inkscape:connector-curvature="0"
   style="fill:none;stroke:#231f20;stroke-width:4;stroke-linecap:round;stroke-linejoin:round;stroke-miterlimit:10" />
	<path
   stroke-miterlimit="10"
   d="m 2587.852,1024.611 c 20.497,20.496 53.684,20.484 74.148,0 20.486,-20.475 20.508,-53.66 0,-74.146 -20.486,-20.496 -53.662,-20.484 -74.148,0 -20.476,20.474 -20.487,53.66 0,74.146 z m 34.72,-39.449 c 1.308,-1.279 3.416,-1.279 4.719,0.012 1.298,1.303 1.309,3.416 0.011,4.719 -1.313,1.303 -3.427,1.303 -4.729,0 -1.299,-1.304 -1.309,-3.417 -10e-4,-4.731 z"
   id="path4402"
   inkscape:connector-curvature="0"
   style="fill:none;stroke:#231f20;stroke-width:4;stroke-linecap:round;stroke-linejoin:round;stroke-miterlimit:10" />
	<path
   stroke-miterlimit="10"
   d="m 250.561,2585.438 c 20.497,20.496 53.684,20.484 74.148,0 20.486,-20.475 20.508,-53.66 0,-74.146 -20.486,-20.496 -53.662,-20.484 -74.148,0 -20.476,20.474 -20.487,53.659 0,74.146 z m 34.72,-39.45 c 1.308,-1.279 3.416,-1.279 4.719,0.012 1.298,1.303 1.309,3.416 0.011,4.719 -1.313,1.303 -3.427,1.303 -4.729,0 -1.299,-1.303 -1.309,-3.416 -10e-4,-4.731 z"
   id="path4404"
   inkscape:connector-curvature="0"
   style="fill:none;stroke:#231f20;stroke-width:4;stroke-linecap:round;stroke-linejoin:round;stroke-miterlimit:10" />
	<path
   stroke-miterlimit="10"
   d="m 2042.55,324.081 c 20.497,20.496 53.684,20.484 74.148,0 20.486,-20.475 20.508,-53.66 0,-74.146 -20.486,-20.496 -53.662,-20.484 -74.148,0 -20.476,20.474 -20.487,53.66 0,74.146 z m 34.721,-39.449 c 1.308,-1.279 3.416,-1.279 4.719,0.012 1.298,1.303 1.309,3.416 0.011,4.719 -1.313,1.303 -3.427,1.303 -4.729,0 -1.299,-1.303 -1.31,-3.417 -10e-4,-4.731 z"
   id="path4406"
   inkscape:connector-curvature="0"
   style="fill:none;stroke:#231f20;stroke-width:4;stroke-linecap:round;stroke-linejoin:round;stroke-miterlimit:10" />
</g>

<g
   inkscape:groupmode="layer"
   id="layer1"
   inkscape:label="Layer"><path
     id="path4868"
     style="fill:none;stroke:#000000;stroke-width:1px;stroke-linecap:butt;stroke-linejoin:miter;stroke-opacity:1"
     d="m 2547.8818,2628.9576 -241.7259,-240.2246 243.2273,-229.7147 76.5716,-235.7204 -1.5014,-312.2919 -231.2161,232.7176 -235.7204,232.7175 -232.7175,237.2218 -237.2218,235.7203 -232.7176,76.5716 -75.0701,-234.2189 235.7203,-235.7204 231.2162,-225.2105 237.2217,-241.726 229.7148,-234.219 232.7175,-229.7147 84.0786,-232.71752 -4.5042,-316.7962 -229.7147,231.2162 -235.7204,238.72312 -234.2189,232.7176 -240.2246,234.2189 -234.219,235.7204 -229.7147,237.2217 -235.72036,228.2134 -234.21895,232.7175 -235.72036,81.0758 -234.21895,-79.5744 237.22176,-237.2217 241.72597,-232.7176 219.20492,-229.7147 244.72877,-235.7204 232.7175,-231.2161 231.2162,-241.726 235.7204,-231.21612 234.2189,-237.2218 235.7204,-231.2161 -85.58,-229.7148 -229.7148,79.5744 -229.7147,226.7119 -234.219,237.2218 -234.2189,234.2189 -235.7204,241.72602 -232.71753,228.2133 -240.22457,231.2162 -240.22457,4.5042 93.08702,-235.7204 229.71475,-237.2217 231.21614,-235.72032 241.72596,-231.2162 228.2133,-228.2133 6.0057,-7.5071"
     inkscape:connector-curvature="0" /></g></svg>