<?xml version="1.0" encoding="UTF-8" standalone="no"?>
<!-- Generator: Adobe Illustrator 16.0.0, SVG Export Plug-In . SVG Version: 6.00 Build 0)  -->

<svg
   xmlns:dc="http://purl.org/dc/elements/1.1/"
   xmlns:cc="http://creativecommons.org/ns#"
   xmlns:rdf="http://www.w3.org/1999/02/22-rdf-syntax-ns#"
   xmlns:svg="http://www.w3.org/2000/svg"
   xmlns="http://www.w3.org/2000/svg"
   xmlns:sodipodi="http://sodipodi.sourceforge.net/DTD/sodipodi-0.dtd"
   xmlns:inkscape="http://www.inkscape.org/namespaces/inkscape"
   version="1.1"
   x="0px"
   y="0px"
   width="2834.65px"
   height="2834.65px"
   viewBox="0 0 2834.65 2834.65"
   enable-background="new 0 0 2834.65 2834.65"
   xml:space="preserve"
   id="svg6445"
   inkscape:version="0.48.3.1 r9886"
   sodipodi:docname="pievoskvadratas1.svg"><metadata
   id="metadata6873"><rdf:RDF><cc:Work
       rdf:about=""><dc:format>image/svg+xml</dc:format><dc:type
         rdf:resource="http://purl.org/dc/dcmitype/StillImage" /></cc:Work></rdf:RDF></metadata><defs
   id="defs6871"><inkscape:path-effect
     effect="vonkoch"
     id="path-effect3427"
     is_visible="true"
     ref_path="m 204.19088,1418.8263 2426.26812,0"
     generator="m 204.19088,2630.459 808.75602,0 m 808.7561,0 808.756,0"
     similar_only="false"
     nbgenerations="1"
     drawall="true"
     maxComplexity="1000" /><inkscape:path-effect
     effect="construct_grid"
     id="path-effect3425"
     is_visible="true"
     nr_x="5"
     nr_y="5" /></defs><sodipodi:namedview
   pagecolor="#ffffff"
   bordercolor="#666666"
   borderopacity="1"
   objecttolerance="10"
   gridtolerance="10"
   guidetolerance="10"
   inkscape:pageopacity="0"
   inkscape:pageshadow="2"
   inkscape:window-width="1366"
   inkscape:window-height="710"
   id="namedview6869"
   showgrid="true"
   inkscape:zoom="0.16"
   inkscape:cx="937.33906"
   inkscape:cy="1681.862"
   inkscape:window-x="0"
   inkscape:window-y="0"
   inkscape:window-maximized="1"
   inkscape:current-layer="layer6"><inkscape:grid
     type="xygrid"
     id="grid3429"
     empspacing="5"
     visible="true"
     enabled="true"
     snapvisiblegridlinesonly="true"
     units="px"
     spacingx="15.58px"
     spacingy="15.58px"
     originx="287px"
     originy="287px"
     color="#fff120"
     opacity="0.1254902" /></sodipodi:namedview>
<g
   id="Layer_8">
	
		<rect
   x="0"
   y="0"
   stroke-miterlimit="10"
   width="2834.644"
   height="2834.647"
   id="rect6448"
   stroke-linejoin="round"
   stroke-linecap="round"
   stroke-width="3"
   stroke="#231F20"
   fill="#D7DECD" />
	
		<rect
   x="85.04"
   y="85.039"
   stroke-miterlimit="10"
   width="2664.565"
   height="2664.568"
   id="rect6450"
   stroke-dasharray="3"
   stroke-linejoin="round"
   stroke-linecap="round"
   stroke="#231F20"
   fill="none" />
	
		<rect
   x="141.732"
   y="141.732"
   stroke-miterlimit="10"
   width="2551.182"
   height="2551.182"
   id="rect6452"
   stroke-dasharray="3"
   stroke-linejoin="round"
   stroke-linecap="round"
   stroke="#231F20"
   fill="none" />
</g>

<g
   id="Layer_5">
	<path
   fill="none"
   stroke="#231F20"
   stroke-width="4"
   stroke-linecap="round"
   stroke-linejoin="round"
   stroke-miterlimit="10"
   d="   M2428.721,405.552c-20.497-20.496-53.684-20.485-74.148,0c-20.486,20.475-20.508,53.66,0,74.146   c20.486,20.497,53.662,20.485,74.148,0C2449.196,459.223,2449.207,426.037,2428.721,405.552z M2394,445   c-1.308,1.28-3.416,1.28-4.719-0.011c-1.298-1.303-1.309-3.416-0.011-4.719c1.313-1.304,3.427-1.304,4.729,0   C2395.298,441.573,2395.309,443.687,2394,445z"
   id="path6614" />
	<path
   fill="none"
   stroke="#231F20"
   stroke-width="4"
   stroke-linecap="round"
   stroke-linejoin="round"
   stroke-miterlimit="10"
   d="   M2188.603,646.889c-17.172-17.168-44.975-17.168-62.141,0c-17.149,17.146-17.149,44.959,0.017,62.128   c17.161,17.169,44.952,17.158,62.112,0C2205.758,691.848,2205.77,664.057,2188.603,646.889z M2159.894,680.317   c-1.301,1.301-3.418,1.301-4.707-0.011c-1.306-1.29-1.306-3.42-0.018-4.71c1.307-1.312,3.435-1.312,4.725,0   C2161.199,676.887,2161.199,679.006,2159.894,680.317z"
   id="path6616" />
	<path
   fill="none"
   stroke="#231F20"
   stroke-width="4"
   stroke-linecap="round"
   stroke-linejoin="round"
   stroke-miterlimit="10"
   d="   M1960.868,873.557c-20.497-20.496-53.684-20.485-74.148,0c-20.486,20.475-20.508,53.66,0,74.146   c20.486,20.497,53.662,20.485,74.148,0C1981.344,927.228,1981.354,894.042,1960.868,873.557z M1926.147,913.005   c-1.308,1.28-3.416,1.28-4.719-0.011c-1.298-1.303-1.309-3.416-0.011-4.719c1.313-1.304,3.427-1.304,4.729,0   C1927.445,909.579,1927.456,911.692,1926.147,913.005z"
   id="path6618" />
	<path
   fill="none"
   stroke="#231F20"
   stroke-width="4"
   stroke-linecap="round"
   stroke-linejoin="round"
   stroke-miterlimit="10"
   d="   M1723.559,1112.084c-17.172-17.168-44.975-17.168-62.141,0c-17.149,17.146-17.149,44.959,0.017,62.128   c17.161,17.169,44.952,17.158,62.112,0C1740.714,1157.043,1740.726,1129.252,1723.559,1112.084z M1694.85,1145.513   c-1.301,1.301-3.418,1.301-4.707-0.011c-1.306-1.29-1.306-3.42-0.018-4.71c1.307-1.312,3.435-1.312,4.725,0   C1696.155,1142.083,1696.155,1144.202,1694.85,1145.513z"
   id="path6620" />
	<path
   fill="none"
   stroke="#231F20"
   stroke-width="4"
   stroke-linecap="round"
   stroke-linejoin="round"
   stroke-miterlimit="10"
   d="   M1493.38,1342.197c-20.497-20.496-53.684-20.485-74.148,0c-20.486,20.475-20.508,53.66,0,74.146   c20.486,20.498,53.662,20.486,74.148,0C1513.855,1395.868,1513.866,1362.682,1493.38,1342.197z M1458.659,1381.645   c-1.308,1.28-3.416,1.28-4.719-0.011c-1.298-1.303-1.309-3.416-0.011-4.719c1.313-1.304,3.427-1.304,4.729,0   C1459.957,1378.218,1459.968,1380.332,1458.659,1381.645z"
   id="path6622" />
	<path
   fill="none"
   stroke="#231F20"
   stroke-width="4"
   stroke-linecap="round"
   stroke-linejoin="round"
   stroke-miterlimit="10"
   d="   M1255.511,1578.411c-17.172-17.168-44.975-17.168-62.141,0c-17.149,17.146-17.149,44.959,0.017,62.128   c17.161,17.169,44.952,17.158,62.112,0C1272.667,1623.37,1272.678,1595.579,1255.511,1578.411z M1226.802,1611.84   c-1.301,1.301-3.418,1.301-4.707-0.011c-1.306-1.29-1.306-3.42-0.018-4.71c1.307-1.312,3.435-1.312,4.725,0   C1228.108,1608.409,1228.108,1610.528,1226.802,1611.84z"
   id="path6624" />
	<path
   fill="none"
   stroke="#231F20"
   stroke-width="4"
   stroke-linecap="round"
   stroke-linejoin="round"
   stroke-miterlimit="10"
   d="   M1027.5,1808.144c-20.497-20.496-53.684-20.485-74.148,0c-20.486,20.475-20.508,53.66,0,74.146   c20.486,20.497,53.662,20.485,74.148,0C1047.975,1861.814,1047.986,1828.629,1027.5,1808.144z M992.779,1847.592   c-1.308,1.28-3.416,1.28-4.719-0.011c-1.298-1.303-1.309-3.416-0.011-4.719c1.313-1.304,3.427-1.304,4.729,0   C994.077,1844.165,994.087,1846.278,992.779,1847.592z"
   id="path6626" />
	<path
   fill="none"
   stroke="#231F20"
   stroke-width="4"
   stroke-linecap="round"
   stroke-linejoin="round"
   stroke-miterlimit="10"
   d="   M787.464,2046.457c-17.172-17.168-44.975-17.168-62.141,0c-17.15,17.146-17.15,44.959,0.016,62.128   c17.162,17.169,44.953,17.158,62.113,0C804.619,2091.416,804.63,2063.625,787.464,2046.457z M758.755,2079.886   c-1.301,1.301-3.418,1.301-4.707-0.011c-1.307-1.29-1.307-3.42-0.018-4.71c1.307-1.312,3.434-1.312,4.725,0   C760.06,2076.455,760.06,2078.574,758.755,2079.886z"
   id="path6628" />
	<path
   fill="none"
   stroke="#231F20"
   stroke-width="4"
   stroke-linecap="round"
   stroke-linejoin="round"
   stroke-miterlimit="10"
   d="   M556.957,2275.013c-20.498-20.496-53.684-20.485-74.148,0c-20.486,20.475-20.508,53.66,0,74.146   c20.486,20.497,53.662,20.485,74.148,0C577.431,2328.684,577.443,2295.498,556.957,2275.013z M522.236,2314.461   c-1.309,1.28-3.416,1.28-4.719-0.011c-1.299-1.303-1.309-3.416-0.012-4.719c1.314-1.304,3.428-1.304,4.73,0   C523.533,2311.034,523.544,2313.147,522.236,2314.461z"
   id="path6630" />
	<path
   fill="none"
   stroke="#231F20"
   stroke-width="4"
   stroke-linecap="round"
   stroke-linejoin="round"
   stroke-miterlimit="10"
   d="   M318.076,2511.515c-17.172-17.168-44.975-17.168-62.141,0c-17.15,17.146-17.15,44.959,0.016,62.128   c17.162,17.169,44.953,17.158,62.113,0C335.23,2556.474,335.242,2528.683,318.076,2511.515z M289.367,2544.943   c-1.301,1.301-3.418,1.301-4.707-0.011c-1.307-1.29-1.307-3.42-0.018-4.71c1.307-1.312,3.434-1.312,4.725,0   C290.672,2541.513,290.672,2543.632,289.367,2544.943z"
   id="path6632" />
	<path
   fill="none"
   stroke="#231F20"
   stroke-width="4"
   stroke-linecap="round"
   stroke-linejoin="round"
   stroke-miterlimit="10"
   d="   M2112.559,256.287c-17.172-17.168-44.975-17.168-62.141,0c-17.148,17.146-17.148,44.959,0.018,62.128   c17.16,17.169,44.951,17.158,62.111,0C2129.715,301.246,2129.727,273.455,2112.559,256.287z M2083.85,289.716   c-1.301,1.301-3.418,1.301-4.707-0.011c-1.305-1.29-1.305-3.42-0.018-4.71c1.307-1.312,3.436-1.312,4.725,0   C2085.156,286.285,2085.156,288.404,2083.85,289.716z"
   id="path6634" />
	<path
   fill="none"
   stroke="#231F20"
   stroke-width="4"
   stroke-linecap="round"
   stroke-linejoin="round"
   stroke-miterlimit="10"
   d="   M1881.268,483.793c-20.496-20.496-53.684-20.485-74.148,0c-20.486,20.475-20.508,53.66,0,74.146   c20.486,20.497,53.662,20.485,74.148,0C1901.744,537.464,1901.754,504.279,1881.268,483.793z M1846.547,523.242   c-1.307,1.28-3.416,1.28-4.719-0.011c-1.297-1.303-1.309-3.416-0.01-4.719c1.313-1.304,3.426-1.304,4.729,0   C1847.846,519.815,1847.855,521.928,1846.547,523.242z"
   id="path6636" />
	<path
   fill="none"
   stroke="#231F20"
   stroke-width="4"
   stroke-linecap="round"
   stroke-linejoin="round"
   stroke-miterlimit="10"
   d="   M1641.15,723.732c-17.172-17.168-44.975-17.168-62.141,0c-17.15,17.146-17.15,44.959,0.016,62.128   c17.162,17.169,44.953,17.158,62.113,0C1658.305,768.691,1658.316,740.9,1641.15,723.732z M1612.441,757.161   c-1.301,1.301-3.418,1.301-4.707-0.011c-1.307-1.29-1.307-3.42-0.018-4.71c1.307-1.312,3.434-1.312,4.725,0   C1613.746,753.73,1613.746,755.85,1612.441,757.161z"
   id="path6638" />
	<path
   fill="none"
   stroke="#231F20"
   stroke-width="4"
   stroke-linecap="round"
   stroke-linejoin="round"
   stroke-miterlimit="10"
   d="   M1416.139,950.465c-20.497-20.496-53.684-20.485-74.148,0c-20.486,20.475-20.508,53.66,0,74.146   c20.486,20.497,53.662,20.485,74.148,0C1436.615,1004.136,1436.625,970.95,1416.139,950.465z M1381.418,989.913   c-1.308,1.28-3.416,1.28-4.719-0.011c-1.298-1.303-1.309-3.416-0.011-4.719c1.313-1.304,3.427-1.304,4.729,0   C1382.716,986.486,1382.727,988.6,1381.418,989.913z"
   id="path6640" />
	<path
   fill="none"
   stroke="#231F20"
   stroke-width="4"
   stroke-linecap="round"
   stroke-linejoin="round"
   stroke-miterlimit="10"
   d="   M1176.106,1193.5c-17.172-17.168-44.975-17.168-62.141,0c-17.149,17.146-17.149,44.959,0.017,62.128   c17.161,17.169,44.952,17.158,62.112,0C1193.261,1238.458,1193.273,1210.667,1176.106,1193.5z M1147.397,1226.928   c-1.301,1.301-3.418,1.301-4.707-0.011c-1.306-1.29-1.306-3.42-0.018-4.71c1.307-1.312,3.435-1.312,4.725,0   C1148.703,1223.498,1148.703,1225.617,1147.397,1226.928z"
   id="path6642" />
	<path
   fill="none"
   stroke="#231F20"
   stroke-width="4"
   stroke-linecap="round"
   stroke-linejoin="round"
   stroke-miterlimit="10"
   d="   M948.094,1419.783c-20.497-20.496-53.684-20.485-74.148,0c-20.486,20.475-20.508,53.66,0,74.146   c20.486,20.497,53.662,20.485,74.148,0C968.57,1473.454,968.581,1440.269,948.094,1419.783z M913.374,1459.231   c-1.308,1.28-3.416,1.28-4.719-0.011c-1.298-1.303-1.309-3.416-0.011-4.719c1.313-1.304,3.427-1.304,4.729,0   C914.671,1455.805,914.682,1457.918,913.374,1459.231z"
   id="path6644" />
	<path
   fill="none"
   stroke="#231F20"
   stroke-width="4"
   stroke-linecap="round"
   stroke-linejoin="round"
   stroke-miterlimit="10"
   d="   M708.059,1659.826c-17.172-17.168-44.975-17.168-62.141,0c-17.15,17.146-17.15,44.959,0.016,62.128   c17.162,17.169,44.953,17.158,62.113,0C725.213,1704.785,725.225,1676.994,708.059,1659.826z M679.35,1693.255   c-1.301,1.301-3.418,1.301-4.707-0.011c-1.307-1.29-1.307-3.42-0.018-4.71c1.307-1.312,3.434-1.312,4.725,0   C680.655,1689.824,680.655,1691.943,679.35,1693.255z"
   id="path6646" />
	<path
   fill="none"
   stroke="#231F20"
   stroke-width="4"
   stroke-linecap="round"
   stroke-linejoin="round"
   stroke-miterlimit="10"
   d="   M480.047,1889.559c-20.497-20.496-53.684-20.485-74.148,0c-20.486,20.475-20.508,53.66,0,74.146   c20.486,20.497,53.662,20.485,74.148,0C500.522,1943.229,500.533,1910.044,480.047,1889.559z M445.326,1929.007   c-1.308,1.28-3.416,1.28-4.719-0.011c-1.298-1.303-1.309-3.416-0.011-4.719c1.313-1.304,3.427-1.304,4.729,0   C446.624,1925.58,446.635,1927.693,445.326,1929.007z"
   id="path6648" />
	<path
   fill="none"
   stroke="#231F20"
   stroke-width="4"
   stroke-linecap="round"
   stroke-linejoin="round"
   stroke-miterlimit="10"
   d="   M240.012,2127.872c-17.172-17.168-44.975-17.168-62.141,0c-17.15,17.146-17.15,44.959,0.016,62.128   c17.162,17.169,44.953,17.158,62.113,0C257.166,2172.831,257.178,2145.04,240.012,2127.872z M211.303,2161.301   c-1.301,1.301-3.418,1.301-4.707-0.011c-1.307-1.29-1.307-3.42-0.018-4.71c1.307-1.312,3.434-1.312,4.725,0   C212.607,2157.87,212.607,2159.989,211.303,2161.301z"
   id="path6650" />
	<path
   fill="none"
   stroke="#231F20"
   stroke-width="4"
   stroke-linecap="round"
   stroke-linejoin="round"
   stroke-miterlimit="10"
   d="   M319.967,177.993c-17.172-17.168-44.975-17.168-62.141,0c-17.149,17.146-17.149,44.959,0.017,62.128   c17.161,17.169,44.952,17.158,62.112,0C337.122,222.952,337.134,195.161,319.967,177.993z M291.258,211.421   c-1.301,1.301-3.418,1.301-4.707-0.011c-1.306-1.29-1.306-3.42-0.018-4.71c1.307-1.312,3.435-1.312,4.725,0   C292.563,207.991,292.563,210.11,291.258,211.421z"
   id="path6652" />
	<path
   fill="none"
   stroke="#231F20"
   stroke-width="4"
   stroke-linecap="round"
   stroke-linejoin="round"
   stroke-miterlimit="10"
   d="   M1493.38,407.106c-20.497-20.496-53.684-20.485-74.148,0c-20.486,20.475-20.508,53.66,0,74.146   c20.486,20.497,53.662,20.485,74.148,0C1513.855,460.777,1513.866,427.592,1493.38,407.106z M1458.659,446.555   c-1.308,1.28-3.416,1.28-4.719-0.011c-1.298-1.303-1.309-3.416-0.011-4.719c1.313-1.304,3.427-1.304,4.729,0   C1459.957,443.128,1459.968,445.241,1458.659,446.555z"
   id="path6654" />
	<path
   fill="none"
   stroke="#231F20"
   stroke-width="4"
   stroke-linecap="round"
   stroke-linejoin="round"
   stroke-miterlimit="10"
   d="   M1253.51,645.71c-17.172-17.168-44.975-17.168-62.141,0c-17.149,17.146-17.149,44.959,0.017,62.128   c17.161,17.169,44.952,17.158,62.112,0C1270.665,690.669,1270.677,662.878,1253.51,645.71z M1224.801,679.139   c-1.301,1.301-3.418,1.301-4.707-0.011c-1.306-1.29-1.306-3.42-0.018-4.71c1.307-1.312,3.435-1.312,4.725,0   C1226.106,675.708,1226.106,677.828,1224.801,679.139z"
   id="path6656" />
	<path
   fill="none"
   stroke="#231F20"
   stroke-width="4"
   stroke-linecap="round"
   stroke-linejoin="round"
   stroke-miterlimit="10"
   d="   M1025.001,873.557c-20.497-20.496-53.684-20.485-74.148,0c-20.486,20.475-20.508,53.66,0,74.146   c20.486,20.497,53.662,20.485,74.148,0C1045.477,927.228,1045.487,894.042,1025.001,873.557z M990.28,913.005   c-1.308,1.28-3.416,1.28-4.719-0.011c-1.298-1.303-1.309-3.416-0.011-4.719c1.313-1.304,3.427-1.304,4.729,0   C991.578,909.578,991.589,911.691,990.28,913.005z"
   id="path6658" />
	<path
   fill="none"
   stroke="#231F20"
   stroke-width="4"
   stroke-linecap="round"
   stroke-linejoin="round"
   stroke-miterlimit="10"
   d="   M784.968,1113.639c-17.172-17.168-44.975-17.168-62.141,0c-17.149,17.146-17.149,44.959,0.017,62.128   c17.161,17.169,44.952,17.158,62.112,0C802.123,1158.598,802.135,1130.807,784.968,1113.639z M756.259,1147.068   c-1.301,1.301-3.418,1.301-4.707-0.011c-1.306-1.29-1.306-3.42-0.018-4.71c1.307-1.312,3.435-1.312,4.725,0   C757.564,1143.637,757.564,1145.756,756.259,1147.068z"
   id="path6660" />
	<path
   fill="none"
   stroke="#231F20"
   stroke-width="4"
   stroke-linecap="round"
   stroke-linejoin="round"
   stroke-miterlimit="10"
   d="   M556.956,1339.923c-20.497-20.496-53.684-20.485-74.148,0c-20.486,20.475-20.508,53.66,0,74.146   c20.486,20.497,53.662,20.485,74.148,0C577.432,1393.594,577.442,1360.408,556.956,1339.923z M522.235,1379.371   c-1.308,1.28-3.416,1.28-4.719-0.011c-1.298-1.303-1.309-3.416-0.011-4.719c1.313-1.304,3.427-1.304,4.729,0   C523.533,1375.944,523.544,1378.058,522.235,1379.371z"
   id="path6662" />
	<path
   fill="none"
   stroke="#231F20"
   stroke-width="4"
   stroke-linecap="round"
   stroke-linejoin="round"
   stroke-miterlimit="10"
   d="   M316.921,1579.966c-17.172-17.168-44.975-17.168-62.141,0c-17.15,17.146-17.15,44.959,0.016,62.128   c17.162,17.169,44.953,17.158,62.113,0C334.075,1624.925,334.087,1597.134,316.921,1579.966z M288.212,1613.395   c-1.301,1.301-3.418,1.301-4.707-0.011c-1.307-1.29-1.307-3.42-0.018-4.71c1.307-1.312,3.434-1.312,4.725,0   C289.517,1609.964,289.517,1612.083,288.212,1613.395z"
   id="path6664" />
	<path
   fill="none"
   stroke="#231F20"
   stroke-width="4"
   stroke-linecap="round"
   stroke-linejoin="round"
   stroke-miterlimit="10"
   d="   M948.094,483.793c-20.497-20.496-53.684-20.485-74.148,0c-20.486,20.475-20.508,53.66,0,74.146   c20.486,20.497,53.662,20.485,74.148,0C968.57,537.464,968.581,504.279,948.094,483.793z M913.374,523.242   c-1.308,1.28-3.416,1.28-4.719-0.011c-1.298-1.303-1.309-3.416-0.011-4.719c1.313-1.304,3.427-1.304,4.729,0   C914.671,519.815,914.682,521.928,913.374,523.242z"
   id="path6666" />
	<path
   fill="none"
   stroke="#231F20"
   stroke-width="4"
   stroke-linecap="round"
   stroke-linejoin="round"
   stroke-miterlimit="10"
   d="   M708.058,723.732c-17.172-17.168-44.975-17.168-62.141,0c-17.149,17.146-17.149,44.959,0.017,62.128   c17.161,17.169,44.952,17.158,62.112,0C725.213,768.691,725.225,740.9,708.058,723.732z M679.349,757.161   c-1.301,1.301-3.418,1.301-4.707-0.011c-1.306-1.29-1.306-3.42-0.018-4.71c1.307-1.312,3.435-1.312,4.725,0   C680.655,753.73,680.655,755.85,679.349,757.161z"
   id="path6668" />
	<path
   fill="none"
   stroke="#231F20"
   stroke-width="4"
   stroke-linecap="round"
   stroke-linejoin="round"
   stroke-miterlimit="10"
   d="   M479.996,953.083c-20.497-20.496-53.684-20.485-74.148,0c-20.486,20.475-20.508,53.66,0,74.146   c20.486,20.497,53.662,20.485,74.148,0C500.471,1006.754,500.482,973.568,479.996,953.083z M445.275,992.531   c-1.308,1.28-3.416,1.28-4.719-0.011c-1.298-1.303-1.309-3.416-0.011-4.719c1.313-1.304,3.427-1.304,4.729,0   C446.573,989.104,446.583,991.218,445.275,992.531z"
   id="path6670" />
	<path
   fill="none"
   stroke="#231F20"
   stroke-width="4"
   stroke-linecap="round"
   stroke-linejoin="round"
   stroke-miterlimit="10"
   d="   M240.122,1194.035c-17.172-17.168-44.975-17.168-62.141,0c-17.149,17.146-17.149,44.959,0.017,62.128   c17.161,17.169,44.952,17.158,62.112,0C257.277,1238.994,257.289,1211.203,240.122,1194.035z M211.413,1227.464   c-1.301,1.301-3.418,1.301-4.707-0.011c-1.306-1.29-1.306-3.42-0.018-4.71c1.307-1.312,3.435-1.312,4.725,0   C212.719,1224.033,212.719,1226.152,211.413,1227.464z"
   id="path6672" />
	<path
   fill="none"
   stroke="#231F20"
   stroke-width="4"
   stroke-linecap="round"
   stroke-linejoin="round"
   stroke-miterlimit="10"
   d="   M2342.619,178.991c-17.172-17.168-44.975-17.168-62.141,0c-17.148,17.146-17.148,44.959,0.018,62.128   c17.16,17.169,44.951,17.158,62.111,0C2359.775,223.95,2359.787,196.159,2342.619,178.991z M2313.91,212.42   c-1.301,1.301-3.418,1.301-4.707-0.011c-1.305-1.29-1.305-3.42-0.018-4.71c1.307-1.312,3.436-1.312,4.725,0   C2315.217,208.989,2315.217,211.108,2313.91,212.42z"
   id="path6674" />
	<path
   fill="none"
   stroke="#231F20"
   stroke-width="4"
   stroke-linecap="round"
   stroke-linejoin="round"
   stroke-miterlimit="10"
   d="   M1409.523,181.708c-17.172-17.168-44.975-17.168-62.141,0c-17.148,17.146-17.148,44.959,0.018,62.128   c17.16,17.169,44.951,17.158,62.111,0C1426.68,226.667,1426.691,198.875,1409.523,181.708z M1380.814,215.136   c-1.301,1.301-3.418,1.301-4.707-0.011c-1.305-1.29-1.305-3.42-0.018-4.71c1.307-1.312,3.436-1.312,4.725,0   C1382.121,211.706,1382.121,213.825,1380.814,215.136z"
   id="path6676" />
	<path
   fill="none"
   stroke="#231F20"
   stroke-width="4"
   stroke-linecap="round"
   stroke-linejoin="round"
   stroke-miterlimit="10"
   d="   M557.947,403.854c-20.496-20.496-53.683-20.485-74.148,0c-20.486,20.475-20.508,53.66,0,74.146   c20.486,20.497,53.662,20.485,74.148,0C578.424,457.525,578.434,424.34,557.947,403.854z M523.227,443.303   c-1.308,1.28-3.416,1.28-4.719-0.011c-1.298-1.303-1.309-3.416-0.011-4.719c1.313-1.304,3.427-1.304,4.729,0   C524.525,439.876,524.536,441.989,523.227,443.303z"
   id="path6678" />
	<path
   fill="none"
   stroke="#231F20"
   stroke-width="4"
   stroke-linecap="round"
   stroke-linejoin="round"
   stroke-miterlimit="10"
   d="   M316.921,646.889c-17.172-17.168-44.975-17.168-62.141,0c-17.149,17.146-17.149,44.959,0.017,62.128   c17.161,17.169,44.952,17.158,62.112,0C334.076,691.848,334.088,664.057,316.921,646.889z M288.212,680.318   c-1.301,1.301-3.418,1.301-4.707-0.011c-1.306-1.29-1.306-3.42-0.018-4.71c1.307-1.312,3.435-1.312,4.725,0   C289.518,676.887,289.518,679.006,288.212,680.318z"
   id="path6680" />
	<path
   fill="none"
   stroke="#231F20"
   stroke-width="4"
   stroke-linecap="round"
   stroke-linejoin="round"
   stroke-miterlimit="10"
   d="   M722.243,2579.838c17.172,17.168,44.975,17.168,62.141,0c17.148-17.146,17.148-44.959-0.018-62.127   c-17.16-17.17-44.951-17.158-62.111,0C705.087,2534.879,705.075,2562.67,722.243,2579.838z M750.952,2546.41   c1.301-1.301,3.418-1.301,4.707,0.01c1.305,1.291,1.305,3.42,0.018,4.711c-1.307,1.311-3.436,1.311-4.725,0   C749.646,2549.84,749.646,2547.721,750.952,2546.41z"
   id="path6682" />
	<path
   fill="none"
   stroke="#231F20"
   stroke-width="4"
   stroke-linecap="round"
   stroke-linejoin="round"
   stroke-miterlimit="10"
   d="   M951.504,2349.158c20.496,20.496,53.684,20.486,74.148,0c20.486-20.475,20.508-53.66,0-74.145   c-20.486-20.498-53.662-20.486-74.148,0C931.028,2295.488,931.018,2328.674,951.504,2349.158z M986.225,2309.711   c1.307-1.281,3.416-1.281,4.719,0.01c1.297,1.303,1.309,3.416,0.01,4.719c-1.313,1.305-3.426,1.305-4.729,0   C984.926,2313.137,984.917,2311.023,986.225,2309.711z"
   id="path6684" />
	<path
   fill="none"
   stroke="#231F20"
   stroke-width="4"
   stroke-linecap="round"
   stroke-linejoin="round"
   stroke-miterlimit="10"
   d="   M1193.651,2112.393c17.172,17.168,44.975,17.168,62.141,0c17.15-17.146,17.15-44.959-0.016-62.127   c-17.162-17.17-44.953-17.158-62.113,0C1176.497,2067.434,1176.485,2095.225,1193.651,2112.393z M1222.36,2078.965   c1.301-1.301,3.418-1.301,4.707,0.01c1.307,1.291,1.307,3.42,0.018,4.711c-1.307,1.311-3.434,1.311-4.725,0   C1221.056,2082.395,1221.056,2080.275,1222.36,2078.965z"
   id="path6686" />
	<path
   fill="none"
   stroke="#231F20"
   stroke-width="4"
   stroke-linecap="round"
   stroke-linejoin="round"
   stroke-miterlimit="10"
   d="   M1421.387,1883.135c20.496,20.496,53.684,20.486,74.148,0c20.486-20.475,20.508-53.66,0-74.145   c-20.486-20.498-53.662-20.486-74.148,0C1400.91,1829.465,1400.9,1862.65,1421.387,1883.135z M1456.107,1843.688   c1.307-1.281,3.416-1.281,4.719,0.01c1.297,1.303,1.309,3.416,0.01,4.719c-1.313,1.305-3.426,1.305-4.729,0   C1454.809,1847.113,1454.799,1845,1456.107,1843.688z"
   id="path6688" />
	<path
   fill="none"
   stroke="#231F20"
   stroke-width="4"
   stroke-linecap="round"
   stroke-linejoin="round"
   stroke-miterlimit="10"
   d="   M1658.696,1642.625c17.172,17.168,44.975,17.168,62.141,0c17.148-17.146,17.148-44.959-0.018-62.127   c-17.16-17.17-44.951-17.158-62.111,0C1641.54,1597.666,1641.528,1625.457,1658.696,1642.625z M1687.405,1609.197   c1.301-1.301,3.418-1.301,4.707,0.01c1.305,1.291,1.305,3.42,0.018,4.711c-1.307,1.311-3.436,1.311-4.725,0   C1686.099,1612.627,1686.099,1610.508,1687.405,1609.197z"
   id="path6690" />
	<path
   fill="none"
   stroke="#231F20"
   stroke-width="4"
   stroke-linecap="round"
   stroke-linejoin="round"
   stroke-miterlimit="10"
   d="   M1886.708,1416.342c20.496,20.496,53.684,20.486,74.148,0c20.486-20.475,20.508-53.66,0-74.146   c-20.486-20.497-53.662-20.485-74.148,0C1866.231,1362.671,1866.222,1395.857,1886.708,1416.342z M1921.429,1376.894   c1.307-1.28,3.416-1.28,4.719,0.011c1.297,1.303,1.309,3.416,0.01,4.719c-1.313,1.304-3.426,1.304-4.729,0   C1920.13,1380.321,1920.12,1378.208,1921.429,1376.894z"
   id="path6692" />
	<path
   fill="none"
   stroke="#231F20"
   stroke-width="4"
   stroke-linecap="round"
   stroke-linejoin="round"
   stroke-miterlimit="10"
   d="   M2126.743,1176.299c17.172,17.168,44.975,17.168,62.141,0c17.149-17.146,17.149-44.959-0.016-62.128   c-17.162-17.169-44.953-17.158-62.113,0C2109.589,1131.34,2109.577,1159.131,2126.743,1176.299z M2155.452,1142.871   c1.301-1.301,3.418-1.301,4.707,0.011c1.307,1.29,1.307,3.42,0.018,4.71c-1.307,1.312-3.434,1.312-4.725,0   C2154.147,1146.301,2154.147,1144.182,2155.452,1142.871z"
   id="path6694" />
	<path
   fill="none"
   stroke="#231F20"
   stroke-width="4"
   stroke-linecap="round"
   stroke-linejoin="round"
   stroke-miterlimit="10"
   d="   M2354.755,946.567c20.497,20.496,53.684,20.485,74.148,0c20.486-20.475,20.508-53.66,0-74.146   c-20.486-20.497-53.662-20.485-74.148,0C2334.279,892.896,2334.269,926.082,2354.755,946.567z M2389.476,907.119   c1.308-1.28,3.416-1.28,4.719,0.011c1.298,1.303,1.309,3.416,0.011,4.719c-1.313,1.304-3.427,1.304-4.729,0   C2388.178,910.545,2388.167,908.432,2389.476,907.119z"
   id="path6696" />
	<path
   fill="none"
   stroke="#231F20"
   stroke-width="4"
   stroke-linecap="round"
   stroke-linejoin="round"
   stroke-miterlimit="10"
   d="   M2594.79,708.253c17.172,17.168,44.975,17.168,62.141,0c17.15-17.146,17.15-44.959-0.016-62.128   c-17.162-17.169-44.953-17.158-62.113,0C2577.636,663.294,2577.624,691.085,2594.79,708.253z M2623.499,674.825   c1.301-1.301,3.418-1.301,4.707,0.011c1.307,1.29,1.307,3.42,0.018,4.71c-1.307,1.312-3.434,1.312-4.725,0   C2622.194,678.255,2622.194,676.136,2623.499,674.825z"
   id="path6698" />
	<path
   fill="none"
   stroke="#231F20"
   stroke-width="4"
   stroke-linecap="round"
   stroke-linejoin="round"
   stroke-miterlimit="10"
   d="   M2513.381,2655.699c17.172,17.168,44.975,17.168,62.141,0c17.149-17.146,17.149-44.959-0.017-62.129   c-17.161-17.168-44.952-17.158-62.112,0C2496.226,2610.74,2496.214,2638.531,2513.381,2655.699z M2542.09,2622.27   c1.301-1.301,3.418-1.301,4.707,0.012c1.306,1.289,1.306,3.42,0.018,4.709c-1.307,1.313-3.435,1.313-4.725,0   C2540.784,2625.701,2540.784,2623.582,2542.09,2622.27z"
   id="path6700" />
	<path
   fill="none"
   stroke="#231F20"
   stroke-width="4"
   stroke-linecap="round"
   stroke-linejoin="round"
   stroke-miterlimit="10"
   d="   M1344.672,2429.02c20.497,20.496,53.684,20.484,74.148,0c20.486-20.475,20.508-53.66,0-74.146   c-20.486-20.496-53.662-20.484-74.148,0C1324.196,2375.348,1324.186,2408.533,1344.672,2429.02z M1379.393,2389.57   c1.308-1.279,3.416-1.279,4.719,0.012c1.298,1.303,1.309,3.416,0.011,4.719c-1.313,1.303-3.427,1.303-4.729,0   C1378.095,2392.998,1378.084,2390.885,1379.393,2389.57z"
   id="path6702" />
	<path
   fill="none"
   stroke="#231F20"
   stroke-width="4"
   stroke-linecap="round"
   stroke-linejoin="round"
   stroke-miterlimit="10"
   d="   M1584.79,2192.254c17.172,17.168,44.975,17.168,62.141,0c17.149-17.146,17.149-44.959-0.017-62.129   c-17.161-17.168-44.952-17.158-62.112,0C1567.635,2147.295,1567.623,2175.086,1584.79,2192.254z M1613.499,2158.824   c1.301-1.301,3.418-1.301,4.707,0.012c1.306,1.289,1.306,3.42,0.018,4.709c-1.307,1.313-3.435,1.313-4.725,0   C1612.193,2162.256,1612.193,2160.137,1613.499,2158.824z"
   id="path6704" />
	<path
   fill="none"
   stroke="#231F20"
   stroke-width="4"
   stroke-linecap="round"
   stroke-linejoin="round"
   stroke-miterlimit="10"
   d="   M1808.982,1965.521c20.497,20.496,53.684,20.484,74.148,0c20.486-20.475,20.508-53.66,0-74.146   c-20.486-20.496-53.662-20.484-74.148,0C1788.507,1911.85,1788.496,1945.035,1808.982,1965.521z M1843.703,1926.072   c1.308-1.279,3.416-1.279,4.719,0.012c1.298,1.303,1.309,3.416,0.011,4.719c-1.313,1.303-3.427,1.303-4.729,0   C1842.405,1929.5,1842.395,1927.387,1843.703,1926.072z"
   id="path6706" />
	<path
   fill="none"
   stroke="#231F20"
   stroke-width="4"
   stroke-linecap="round"
   stroke-linejoin="round"
   stroke-miterlimit="10"
   d="   M2049.834,1722.486c17.172,17.168,44.975,17.168,62.141,0c17.149-17.146,17.149-44.959-0.017-62.129   c-17.161-17.168-44.952-17.158-62.112,0C2032.679,1677.527,2032.667,1705.318,2049.834,1722.486z M2078.543,1689.057   c1.301-1.301,3.418-1.301,4.707,0.012c1.306,1.289,1.306,3.42,0.018,4.709c-1.307,1.313-3.435,1.313-4.725,0   C2077.237,1692.488,2077.237,1690.369,2078.543,1689.057z"
   id="path6708" />
	<path
   fill="none"
   stroke="#231F20"
   stroke-width="4"
   stroke-linecap="round"
   stroke-linejoin="round"
   stroke-miterlimit="10"
   d="   M2277.846,1496.203c20.497,20.496,53.684,20.484,74.148,0c20.486-20.475,20.508-53.66,0-74.146   c-20.486-20.497-53.662-20.485-74.148,0C2257.37,1442.531,2257.359,1475.717,2277.846,1496.203z M2312.566,1456.754   c1.308-1.279,3.416-1.279,4.719,0.012c1.298,1.303,1.309,3.416,0.011,4.719c-1.313,1.303-3.427,1.303-4.729,0   C2311.269,1460.182,2311.258,1458.068,2312.566,1456.754z"
   id="path6710" />
	<path
   fill="none"
   stroke="#231F20"
   stroke-width="4"
   stroke-linecap="round"
   stroke-linejoin="round"
   stroke-miterlimit="10"
   d="   M2514.834,1256.16c17.172,17.168,44.975,17.168,62.141,0c17.149-17.146,17.149-44.959-0.016-62.128   c-17.162-17.169-44.953-17.158-62.113,0C2497.68,1211.201,2497.668,1238.992,2514.834,1256.16z M2543.543,1222.731   c1.301-1.301,3.418-1.301,4.707,0.011c1.307,1.29,1.307,3.42,0.018,4.71c-1.307,1.312-3.434,1.312-4.725,0   C2542.238,1226.162,2542.238,1224.042,2543.543,1222.731z"
   id="path6712" />
	<path
   fill="none"
   stroke="#231F20"
   stroke-width="4"
   stroke-linecap="round"
   stroke-linejoin="round"
   stroke-miterlimit="10"
   d="   M1886.708,2350.854c20.496,20.496,53.684,20.484,74.148,0c20.486-20.475,20.508-53.66,0-74.146   c-20.486-20.496-53.662-20.484-74.148,0C1866.231,2297.183,1866.222,2330.368,1886.708,2350.854z M1921.429,2311.405   c1.307-1.279,3.416-1.279,4.719,0.012c1.297,1.303,1.309,3.416,0.01,4.719c-1.313,1.303-3.426,1.303-4.729,0   C1920.13,2314.833,1920.12,2312.72,1921.429,2311.405z"
   id="path6714" />
	<path
   fill="none"
   stroke="#231F20"
   stroke-width="4"
   stroke-linecap="round"
   stroke-linejoin="round"
   stroke-miterlimit="10"
   d="   M2126.743,2109.775c17.172,17.168,44.975,17.168,62.141,0c17.15-17.146,17.15-44.959-0.016-62.129   c-17.162-17.168-44.953-17.158-62.113,0C2109.589,2064.816,2109.577,2092.607,2126.743,2109.775z M2155.452,2076.346   c1.301-1.301,3.418-1.301,4.707,0.012c1.307,1.289,1.307,3.42,0.018,4.709c-1.307,1.313-3.434,1.313-4.725,0   C2154.147,2079.777,2154.147,2077.658,2155.452,2076.346z"
   id="path6716" />
	<path
   fill="none"
   stroke="#231F20"
   stroke-width="4"
   stroke-linecap="round"
   stroke-linejoin="round"
   stroke-miterlimit="10"
   d="   M2354.654,1883.136c20.496,20.496,53.684,20.484,74.148,0c20.486-20.475,20.508-53.66,0-74.146   c-20.486-20.496-53.662-20.484-74.148,0C2334.178,1829.464,2334.168,1862.649,2354.654,1883.136z M2389.375,1843.687   c1.307-1.279,3.416-1.279,4.719,0.012c1.297,1.303,1.309,3.416,0.01,4.719c-1.313,1.303-3.426,1.303-4.729,0   C2388.076,1847.114,2388.066,1845.001,2389.375,1843.687z"
   id="path6718" />
	<path
   fill="none"
   stroke="#231F20"
   stroke-width="4"
   stroke-linecap="round"
   stroke-linejoin="round"
   stroke-miterlimit="10"
   d="   M2594.527,1640.008c17.172,17.168,44.975,17.168,62.141,0c17.148-17.146,17.148-44.959-0.018-62.129   c-17.16-17.168-44.951-17.158-62.111,0C2577.371,1595.049,2577.359,1622.84,2594.527,1640.008z M2623.236,1606.578   c1.301-1.301,3.418-1.301,4.707,0.012c1.305,1.289,1.305,3.42,0.018,4.709c-1.307,1.313-3.436,1.313-4.725,0   C2621.93,1610.01,2621.93,1607.891,2623.236,1606.578z"
   id="path6720" />
	<path
   fill="none"
   stroke="#231F20"
   stroke-width="4"
   stroke-linecap="round"
   stroke-linejoin="round"
   stroke-miterlimit="10"
   d="   M1425.278,2654.418c17.172,17.168,44.975,17.168,62.141,0c17.148-17.146,17.148-44.959-0.018-62.129   c-17.16-17.168-44.951-17.158-62.111,0C1408.122,2609.459,1408.11,2637.25,1425.278,2654.418z M1453.987,2620.988   c1.301-1.301,3.418-1.301,4.707,0.012c1.305,1.289,1.305,3.42,0.018,4.709c-1.307,1.313-3.436,1.313-4.725,0   C1452.681,2624.42,1452.681,2622.301,1453.987,2620.988z"
   id="path6722" />
	<path
   fill="none"
   stroke="#231F20"
   stroke-width="4"
   stroke-linecap="round"
   stroke-linejoin="round"
   stroke-miterlimit="10"
   d="   M2276.701,2428.808c20.496,20.496,53.684,20.484,74.148,0c20.486-20.475,20.508-53.66,0-74.146   c-20.486-20.496-53.662-20.484-74.148,0C2256.225,2375.136,2256.215,2408.321,2276.701,2428.808z M2311.422,2389.358   c1.307-1.279,3.416-1.279,4.719,0.012c1.297,1.303,1.309,3.416,0.01,4.719c-1.313,1.303-3.426,1.303-4.729,0   C2310.123,2392.786,2310.113,2390.673,2311.422,2389.358z"
   id="path6724" />
	<path
   fill="none"
   stroke="#231F20"
   stroke-width="4"
   stroke-linecap="round"
   stroke-linejoin="round"
   stroke-miterlimit="10"
   d="   M2514.835,2189.236c17.172,17.168,44.975,17.168,62.141,0c17.148-17.146,17.148-44.959-0.018-62.129   c-17.16-17.168-44.951-17.158-62.111,0C2497.679,2144.277,2497.667,2172.068,2514.835,2189.236z M2543.544,2155.807   c1.301-1.301,3.418-1.301,4.707,0.012c1.305,1.289,1.305,3.42,0.018,4.709c-1.307,1.313-3.436,1.313-4.725,0   C2542.237,2159.238,2542.237,2157.119,2543.544,2155.807z"
   id="path6726" />
	<path
   fill="none"
   stroke="#231F20"
   stroke-width="4"
   stroke-linecap="round"
   stroke-linejoin="round"
   stroke-miterlimit="10"
   d="   M2588.512,1961.088c20.496,20.496,53.684,20.484,74.148,0c20.486-20.475,20.508-53.66,0-74.146   c-20.486-20.496-53.662-20.484-74.148,0C2568.035,1907.416,2568.025,1940.602,2588.512,1961.088z M2623.232,1921.639   c1.307-1.279,3.416-1.279,4.719,0.012c1.297,1.303,1.309,3.416,0.01,4.719c-1.313,1.303-3.426,1.303-4.729,0   C2621.934,1925.066,2621.924,1922.953,2623.232,1921.639z"
   id="path6728" />
	<path
   fill="none"
   stroke="#231F20"
   stroke-width="4"
   stroke-linecap="round"
   stroke-linejoin="round"
   stroke-miterlimit="10"
   d="   M2588.512,1024.611c20.496,20.496,53.684,20.484,74.148,0c20.486-20.475,20.508-53.66,0-74.146   c-20.486-20.496-53.662-20.484-74.148,0C2568.035,970.939,2568.025,1004.125,2588.512,1024.611z M2623.232,985.162   c1.307-1.279,3.416-1.279,4.719,0.012c1.297,1.303,1.309,3.416,0.01,4.719c-1.313,1.303-3.426,1.303-4.729,0   C2621.934,988.589,2621.924,986.476,2623.232,985.162z"
   id="path6730" />
	<path
   fill="none"
   stroke="#231F20"
   stroke-width="4"
   stroke-linecap="round"
   stroke-linejoin="round"
   stroke-miterlimit="10"
   d="   M483.282,2663.656c20.496,20.496,53.684,20.484,74.148,0c20.486-20.475,20.508-53.66,0-74.146   c-20.486-20.496-53.662-20.484-74.148,0C462.806,2609.984,462.796,2643.17,483.282,2663.656z M518.003,2624.207   c1.307-1.279,3.416-1.279,4.719,0.012c1.297,1.303,1.309,3.416,0.01,4.719c-1.313,1.303-3.426,1.303-4.729,0   C516.704,2627.635,516.694,2625.521,518.003,2624.207z"
   id="path6732" />
	<path
   fill="none"
   stroke="#231F20"
   stroke-width="4"
   stroke-linecap="round"
   stroke-linejoin="round"
   stroke-miterlimit="10"
   d="   M171.866,1883.043c20.496,20.496,53.684,20.484,74.148,0c20.486-20.475,20.508-53.66,0-74.146   c-20.486-20.496-53.662-20.484-74.148,0C151.389,1829.371,151.379,1862.557,171.866,1883.043z M206.586,1843.594   c1.307-1.279,3.416-1.279,4.719,0.012c1.297,1.303,1.309,3.416,0.01,4.719c-1.313,1.303-3.426,1.303-4.729,0   C205.288,1847.021,205.278,1844.908,206.586,1843.594z"
   id="path6734" />
	<path
   fill="none"
   stroke="#231F20"
   stroke-width="4"
   stroke-linecap="round"
   stroke-linejoin="round"
   stroke-miterlimit="10"
   d="   M1107.96,324.081c20.496,20.496,53.684,20.484,74.148,0c20.486-20.475,20.508-53.66,0-74.146   c-20.486-20.496-53.662-20.484-74.148,0C1087.483,270.409,1087.474,303.595,1107.96,324.081z M1142.681,284.632   c1.307-1.279,3.416-1.279,4.719,0.012c1.297,1.303,1.309,3.416,0.01,4.719c-1.313,1.303-3.426,1.303-4.729,0   C1141.382,288.06,1141.372,285.946,1142.681,284.632z"
   id="path6736" />
	<path
   fill="none"
   stroke="#231F20"
   stroke-width="4"
   stroke-linecap="round"
   stroke-linejoin="round"
   stroke-miterlimit="10"
   d="   M171.976,947.703c20.496,20.496,53.684,20.484,74.148,0c20.486-20.475,20.508-53.66,0-74.146   c-20.486-20.496-53.662-20.484-74.148,0C151.5,894.031,151.49,927.217,171.976,947.703z M206.697,908.254   c1.307-1.279,3.416-1.279,4.719,0.012c1.297,1.303,1.309,3.416,0.01,4.719c-1.313,1.303-3.426,1.303-4.729,0   C205.398,911.682,205.388,909.568,206.697,908.254z"
   id="path6738" />
	<path
   fill="none"
   stroke="#231F20"
   stroke-width="4"
   stroke-linecap="round"
   stroke-linejoin="round"
   stroke-miterlimit="10"
   d="   M1655.412,2584.712c20.496,20.496,53.684,20.484,74.148,0c20.486-20.475,20.508-53.66,0-74.146   c-20.486-20.496-53.662-20.484-74.148,0C1634.936,2531.04,1634.926,2564.226,1655.412,2584.712z M1690.133,2545.263   c1.307-1.279,3.416-1.279,4.719,0.012c1.297,1.303,1.309,3.416,0.01,4.719c-1.313,1.303-3.426,1.303-4.729,0   C1688.834,2548.69,1688.824,2546.577,1690.133,2545.263z"
   id="path6740" />
</g>

<g
   inkscape:groupmode="layer"
   id="layer4"
   inkscape:label="Layer"
   style="display:inline" /><g
   inkscape:groupmode="layer"
   id="layer5"
   inkscape:label="Layer#1"
   style="display:none"><g
     id="maryte"
     inkscape:label="#Layer_11"
     transform="translate(-0.07601031,-0.73746871)"><line
       stroke-miterlimit="10"
       x1="2389.9629"
       y1="441.23001"
       x2="2157.479"
       y2="673.71399"
       id="line6743"
       style="fill:#ffffff;stroke:#ec008c;stroke-width:4;stroke-miterlimit:10" /><line
       stroke-miterlimit="10"
       x1="2161.939"
       y1="672.25403"
       x2="1929.455"
       y2="904.737"
       id="line6745"
       style="fill:#ffffff;stroke:#ec008c;stroke-width:4;stroke-miterlimit:10" /><line
       stroke-miterlimit="10"
       x1="1924.951"
       y1="909.27002"
       x2="1692.467"
       y2="1141.7531"
       id="line6747"
       style="fill:#ffffff;stroke:#ec008c;stroke-width:4;stroke-miterlimit:10" /><line
       stroke-miterlimit="10"
       x1="1690.373"
       y1="1144.892"
       x2="1457.889"
       y2="1377.375"
       id="line6749"
       style="fill:#ffffff;stroke:#ec008c;stroke-width:4;stroke-miterlimit:10" /><line
       stroke-miterlimit="10"
       x1="1457.338"
       y1="1376.91"
       x2="1224.854"
       y2="1609.394"
       id="line6751"
       style="fill:#ffffff;stroke:#ec008c;stroke-width:4;stroke-miterlimit:10" /><line
       stroke-miterlimit="10"
       x1="1220.2791"
       y1="1613.953"
       x2="987.79401"
       y2="1846.437"
       id="line6753"
       style="fill:#ffffff;stroke:#ec008c;stroke-width:4;stroke-miterlimit:10" /><line
       stroke-miterlimit="10"
       x1="989.198"
       y1="1844.9771"
       x2="756.71301"
       y2="2077.46"
       id="line6755"
       style="fill:#ffffff;stroke:#ec008c;stroke-width:4;stroke-miterlimit:10" /><line
       stroke-miterlimit="10"
       x1="752.09198"
       y1="2082.0229"
       x2="519.60699"
       y2="2314.5071"
       id="line6757"
       style="fill:#ffffff;stroke:#ec008c;stroke-width:4;stroke-miterlimit:10" /><line
       stroke-miterlimit="10"
       x1="520.96301"
       y1="2313.094"
       x2="288.479"
       y2="2545.5769"
       id="line6759"
       style="fill:#ffffff;stroke:#ec008c;stroke-width:4;stroke-miterlimit:10" /><line
       stroke-miterlimit="10"
       x1="2078.5471"
       y1="288.673"
       x2="1846.063"
       y2="521.15601"
       id="line6761"
       style="fill:#ffffff;stroke:#ec008c;stroke-width:4;stroke-miterlimit:10" /><line
       stroke-miterlimit="10"
       x1="1842.51"
       y1="522.646"
       x2="1610.025"
       y2="755.12903"
       id="line6763"
       style="fill:#ffffff;stroke:#ec008c;stroke-width:4;stroke-miterlimit:10" /><line
       stroke-miterlimit="10"
       x1="1614.486"
       y1="753.66901"
       x2="1382.002"
       y2="986.15198"
       id="line6765"
       style="fill:#ffffff;stroke:#ec008c;stroke-width:4;stroke-miterlimit:10" /><line
       stroke-miterlimit="10"
       x1="1377.499"
       y1="990.685"
       x2="1145.014"
       y2="1223.168"
       id="line6767"
       style="fill:#ffffff;stroke:#ec008c;stroke-width:4;stroke-miterlimit:10" /><line
       stroke-miterlimit="10"
       x1="1142.92"
       y1="1226.307"
       x2="910.43597"
       y2="1458.79"
       id="line6769"
       style="fill:#ffffff;stroke:#ec008c;stroke-width:4;stroke-miterlimit:10" /><line
       stroke-miterlimit="10"
       x1="909.88501"
       y1="1458.325"
       x2="677.401"
       y2="1690.809"
       id="line6771"
       style="fill:#ffffff;stroke:#ec008c;stroke-width:4;stroke-miterlimit:10" /><line
       stroke-miterlimit="10"
       x1="672.82703"
       y1="1695.368"
       x2="440.34201"
       y2="1927.8521"
       id="line6773"
       style="fill:#ffffff;stroke:#ec008c;stroke-width:4;stroke-miterlimit:10" /><line
       stroke-miterlimit="10"
       x1="441.745"
       y1="1926.392"
       x2="209.261"
       y2="2158.875"
       id="line6775"
       style="fill:#ffffff;stroke:#ec008c;stroke-width:4;stroke-miterlimit:10" /><line
       stroke-miterlimit="10"
       x1="1451.3719"
       y1="442.785"
       x2="1218.8879"
       y2="675.26898"
       id="line6777"
       style="fill:#ffffff;stroke:#ec008c;stroke-width:4;stroke-miterlimit:10" /><line
       stroke-miterlimit="10"
       x1="1223.349"
       y1="673.80902"
       x2="990.86401"
       y2="906.29199"
       id="line6779"
       style="fill:#ffffff;stroke:#ec008c;stroke-width:4;stroke-miterlimit:10" /><line
       stroke-miterlimit="10"
       x1="986.35999"
       y1="910.82501"
       x2="753.87598"
       y2="1143.308"
       id="line6781"
       style="fill:#ffffff;stroke:#ec008c;stroke-width:4;stroke-miterlimit:10" /><line
       stroke-miterlimit="10"
       x1="751.78198"
       y1="1146.446"
       x2="519.29797"
       y2="1378.9301"
       id="line6783"
       style="fill:#ffffff;stroke:#ec008c;stroke-width:4;stroke-miterlimit:10" /><line
       stroke-miterlimit="10"
       x1="518.74701"
       y1="1378.465"
       x2="286.263"
       y2="1610.948"
       id="line6785"
       style="fill:#ffffff;stroke:#ec008c;stroke-width:4;stroke-miterlimit:10" /><line
       stroke-miterlimit="10"
       x1="1138.967"
       y1="291.29099"
       x2="906.48297"
       y2="523.77399"
       id="line6787"
       style="fill:#ffffff;stroke:#ec008c;stroke-width:4;stroke-miterlimit:10" /><line
       stroke-miterlimit="10"
       x1="902.92999"
       y1="525.26398"
       x2="670.44598"
       y2="757.74701"
       id="line6789"
       style="fill:#ffffff;stroke:#ec008c;stroke-width:4;stroke-miterlimit:10" /><line
       stroke-miterlimit="10"
       x1="674.90698"
       y1="756.28699"
       x2="442.422"
       y2="988.771"
       id="line6791"
       style="fill:#ffffff;stroke:#ec008c;stroke-width:4;stroke-miterlimit:10" /><line
       stroke-miterlimit="10"
       x1="437.918"
       y1="993.30298"
       x2="205.43401"
       y2="1225.787"
       id="line6793"
       style="fill:#ffffff;stroke:#ec008c;stroke-width:4;stroke-miterlimit:10" /><line
       stroke-miterlimit="10"
       x1="2386"
       y1="442"
       x2="2313.8601"
       y2="209.5"
       id="line6795"
       style="fill:#ffffff;stroke:#ec008c;stroke-width:4;stroke-miterlimit:10" /><line
       stroke-miterlimit="10"
       x1="2310.9099"
       y1="210.7"
       x2="2084"
       y2="289"
       id="line6797"
       style="fill:#ffffff;stroke:#ec008c;stroke-width:4;stroke-miterlimit:10" /><line
       stroke-miterlimit="10"
       x1="1454"
       y1="446"
       x2="1380.765"
       y2="212.216"
       id="line6799"
       style="fill:#ffffff;stroke:#ec008c;stroke-width:4;stroke-miterlimit:10" /><line
       stroke-miterlimit="10"
       x1="1377.814"
       y1="213.416"
       x2="1140.739"
       y2="287.18399"
       id="line6801"
       style="fill:#ffffff;stroke:#ec008c;stroke-width:4;stroke-miterlimit:10" /><line
       stroke-miterlimit="10"
       x1="208.8"
       y1="2162.479"
       x2="208.8"
       y2="1850.667"
       id="line6803"
       style="fill:#ffffff;stroke:#ec008c;stroke-width:4;stroke-miterlimit:10" /><line
       stroke-miterlimit="10"
       x1="210"
       y1="1847.717"
       x2="283.76801"
       y2="1610.642"
       id="line6805"
       style="fill:#ffffff;stroke:#ec008c;stroke-width:4;stroke-miterlimit:10" /><line
       stroke-miterlimit="10"
       x1="521.35999"
       y1="444.07501"
       x2="288.875"
       y2="676.55798"
       id="line6807"
       style="fill:#ffffff;stroke:#ec008c;stroke-width:4;stroke-miterlimit:10" /><line
       stroke-miterlimit="10"
       x1="206.8"
       y1="1222.762"
       x2="206.8"
       y2="910.95001"
       id="line6809"
       style="fill:#ffffff;stroke:#ec008c;stroke-width:4;stroke-miterlimit:10" /><line
       stroke-miterlimit="10"
       x1="208"
       y1="908"
       x2="286"
       y2="676"
       id="line6811"
       style="fill:#ffffff;stroke:#ec008c;stroke-width:4;stroke-miterlimit:10" /><line
       stroke-miterlimit="10"
       x1="297.48199"
       y1="215.291"
       x2="529.96698"
       y2="447.77499"
       id="line6813"
       style="fill:#ffffff;stroke:#ec008c;stroke-width:4;stroke-miterlimit:10" /><line
       stroke-miterlimit="10"
       x1="756.255"
       y1="2547.4529"
       x2="988.73901"
       y2="2314.969"
       id="line6815"
       style="fill:#ffffff;stroke:#ec008c;stroke-width:4;stroke-miterlimit:10" /><line
       stroke-miterlimit="10"
       x1="992.29199"
       y1="2313.48"
       x2="1224.776"
       y2="2080.9961"
       id="line6817"
       style="fill:#ffffff;stroke:#ec008c;stroke-width:4;stroke-miterlimit:10" /><line
       stroke-miterlimit="10"
       x1="1220.3149"
       y1="2082.457"
       x2="1452.8"
       y2="1849.973"
       id="line6819"
       style="fill:#ffffff;stroke:#ec008c;stroke-width:4;stroke-miterlimit:10" /><line
       stroke-miterlimit="10"
       x1="1457.304"
       y1="1845.439"
       x2="1689.788"
       y2="1612.957"
       id="line6821"
       style="fill:#ffffff;stroke:#ec008c;stroke-width:4;stroke-miterlimit:10" /><line
       stroke-miterlimit="10"
       x1="1691.882"
       y1="1609.818"
       x2="1924.366"
       y2="1377.335"
       id="line6823"
       style="fill:#ffffff;stroke:#ec008c;stroke-width:4;stroke-miterlimit:10" /><line
       stroke-miterlimit="10"
       x1="1924.917"
       y1="1377.8"
       x2="2157.4009"
       y2="1145.317"
       id="line6825"
       style="fill:#ffffff;stroke:#ec008c;stroke-width:4;stroke-miterlimit:10" /><line
       stroke-miterlimit="10"
       x1="2161.9761"
       y1="1140.757"
       x2="2394.46"
       y2="908.27399"
       id="line6827"
       style="fill:#ffffff;stroke:#ec008c;stroke-width:4;stroke-miterlimit:10" /><line
       stroke-miterlimit="10"
       x1="2393.0569"
       y1="909.73401"
       x2="2625.541"
       y2="677.25"
       id="line6829"
       style="fill:#ffffff;stroke:#ec008c;stroke-width:4;stroke-miterlimit:10" /><line
       stroke-miterlimit="10"
       x1="1383.4301"
       y1="2393.3401"
       x2="1615.9139"
       y2="2160.8569"
       id="line6831"
       style="fill:#ffffff;stroke:#ec008c;stroke-width:4;stroke-miterlimit:10" /><line
       stroke-miterlimit="10"
       x1="1611.453"
       y1="2162.3159"
       x2="1843.938"
       y2="1929.834"
       id="line6833"
       style="fill:#ffffff;stroke:#ec008c;stroke-width:4;stroke-miterlimit:10" /><line
       stroke-miterlimit="10"
       x1="1848.441"
       y1="1925.301"
       x2="2080.926"
       y2="1692.816"
       id="line6835"
       style="fill:#ffffff;stroke:#ec008c;stroke-width:4;stroke-miterlimit:10" /><line
       stroke-miterlimit="10"
       x1="2083.02"
       y1="1689.6801"
       x2="2315.5039"
       y2="1457.1949"
       id="line6837"
       style="fill:#ffffff;stroke:#ec008c;stroke-width:4;stroke-miterlimit:10" /><line
       stroke-miterlimit="10"
       x1="2316.0549"
       y1="1457.66"
       x2="2548.5391"
       y2="1225.177"
       id="line6839"
       style="fill:#ffffff;stroke:#ec008c;stroke-width:4;stroke-miterlimit:10" /><line
       stroke-miterlimit="10"
       x1="1695.835"
       y1="2544.834"
       x2="1928.319"
       y2="2312.3521"
       id="line6841"
       style="fill:#ffffff;stroke:#ec008c;stroke-width:4;stroke-miterlimit:10" /><line
       stroke-miterlimit="10"
       x1="1931.8719"
       y1="2310.8611"
       x2="2164.356"
       y2="2078.3789"
       id="line6843"
       style="fill:#ffffff;stroke:#ec008c;stroke-width:4;stroke-miterlimit:10" /><line
       stroke-miterlimit="10"
       x1="2159.896"
       y1="2079.8379"
       x2="2392.3799"
       y2="1847.355"
       id="line6845"
       style="fill:#ffffff;stroke:#ec008c;stroke-width:4;stroke-miterlimit:10" /><line
       stroke-miterlimit="10"
       x1="2396.884"
       y1="1842.822"
       x2="2629.3679"
       y2="1610.338"
       id="line6847"
       style="fill:#ffffff;stroke:#ec008c;stroke-width:4;stroke-miterlimit:10" /><line
       stroke-miterlimit="10"
       x1="287.521"
       y1="2541.9241"
       x2="520.94098"
       y2="2626.625"
       id="line6849"
       style="fill:#ffffff;stroke:#ec008c;stroke-width:4;stroke-miterlimit:10" /><line
       stroke-miterlimit="10"
       x1="523.89203"
       y1="2625.426"
       x2="760.96698"
       y2="2551.658"
       id="line6851"
       style="fill:#ffffff;stroke:#ec008c;stroke-width:4;stroke-miterlimit:10" /><line
       stroke-miterlimit="10"
       x1="1380.802"
       y1="2390.125"
       x2="1454.037"
       y2="2623.9099"
       id="line6853"
       style="fill:#ffffff;stroke:#ec008c;stroke-width:4;stroke-miterlimit:10" /><line
       stroke-miterlimit="10"
       x1="1456.9871"
       y1="2622.709"
       x2="1694.063"
       y2="2548.9409"
       id="line6855"
       style="fill:#ffffff;stroke:#ec008c;stroke-width:4;stroke-miterlimit:10" /><line
       stroke-miterlimit="10"
       x1="2626.002"
       y1="673.64697"
       x2="2626.002"
       y2="985.45801"
       id="line6857"
       style="fill:#ffffff;stroke:#ec008c;stroke-width:4;stroke-miterlimit:10" /><line
       stroke-miterlimit="10"
       x1="2624.802"
       y1="988.409"
       x2="2551.0339"
       y2="1225.484"
       id="line6859"
       style="fill:#ffffff;stroke:#ec008c;stroke-width:4;stroke-miterlimit:10" /><line
       stroke-miterlimit="10"
       x1="2313.4419"
       y1="2392.051"
       x2="2545.927"
       y2="2159.5659"
       id="line6861"
       style="fill:#ffffff;stroke:#ec008c;stroke-width:4;stroke-miterlimit:10" /><line
       stroke-miterlimit="10"
       x1="2628.002"
       y1="1613.363"
       x2="2628.002"
       y2="1925.176"
       id="line6863"
       style="fill:#ffffff;stroke:#ec008c;stroke-width:4;stroke-miterlimit:10" /><line
       stroke-miterlimit="10"
       x1="2626.802"
       y1="1928.125"
       x2="2548.802"
       y2="2160.125"
       id="line6865"
       style="fill:#ffffff;stroke:#ec008c;stroke-width:4;stroke-miterlimit:10" /><line
       stroke-miterlimit="10"
       x1="2537.3191"
       y1="2620.834"
       x2="2304.835"
       y2="2388.3501"
       id="line6867"
       style="fill:#ffffff;stroke:#ec008c;stroke-width:4;stroke-miterlimit:10" /></g></g><g
   inkscape:groupmode="layer"
   id="layer6"
   inkscape:label="Layer#2"
   style="display:inline"><g
     transform="translate(-6.1035158e-6,-2.6611328e-6)"
     id="section1"
     inkscape:label="#Layer_4_copy"><g
       id="g6455"><g
         id="g6457"><line
           style="fill:none;stroke:#0071b0;stroke-miterlimit:10"
           stroke-miterlimit="10"
           x1="131.10001"
           y1="2625.592"
           x2="2699.0349"
           y2="2625.592"
           id="line6459" /><line
           style="fill:none;stroke:#0071b0;stroke-miterlimit:10"
           stroke-miterlimit="10"
           x1="131.10001"
           y1="2313.781"
           x2="2699.0349"
           y2="2313.781"
           id="line6461" /><line
           style="fill:none;stroke:#0071b0;stroke-miterlimit:10"
           stroke-miterlimit="10"
           x1="131.10001"
           y1="2001.968"
           x2="2699.0349"
           y2="2001.968"
           id="line6463" /><line
           style="fill:none;stroke:#0071b0;stroke-miterlimit:10"
           stroke-miterlimit="10"
           x1="131.10001"
           y1="1690.157"
           x2="2699.0349"
           y2="1690.157"
           id="line6465" /><line
           style="fill:none;stroke:#0071b0;stroke-miterlimit:10"
           stroke-miterlimit="10"
           x1="131.10001"
           y1="1378.3459"
           x2="2699.0349"
           y2="1378.3459"
           id="line6467" /><line
           style="fill:none;stroke:#0071b0;stroke-miterlimit:10"
           stroke-miterlimit="10"
           x1="131.10001"
           y1="1066.535"
           x2="2699.0349"
           y2="1066.535"
           id="line6469" /><line
           style="fill:none;stroke:#0071b0;stroke-miterlimit:10"
           stroke-miterlimit="10"
           x1="131.10001"
           y1="754.724"
           x2="2699.0349"
           y2="754.724"
           id="line6471" /><line
           style="fill:none;stroke:#0071b0;stroke-miterlimit:10"
           stroke-miterlimit="10"
           x1="131.10001"
           y1="442.91299"
           x2="2699.0349"
           y2="442.91299"
           id="line6473" /><line
           style="fill:none;stroke:#0071b0;stroke-miterlimit:10"
           stroke-miterlimit="10"
           x1="131.10001"
           y1="131.10201"
           x2="2699.0349"
           y2="131.10201"
           id="line6475" /></g><g
         id="g6477"><line
           style="fill:none;stroke:#0071b0;stroke-miterlimit:10"
           stroke-miterlimit="10"
           x1="2547.6389"
           y1="2701.9041"
           x2="2547.6389"
           y2="131.10201"
           id="line6479" /><line
           style="fill:none;stroke:#0071b0;stroke-miterlimit:10"
           stroke-miterlimit="10"
           x1="2235.8279"
           y1="2701.9041"
           x2="2235.8279"
           y2="131.10201"
           id="line6481" /><line
           style="fill:none;stroke:#0071b0;stroke-miterlimit:10"
           stroke-miterlimit="10"
           x1="1924.0179"
           y1="2701.9041"
           x2="1924.0179"
           y2="131.10201"
           id="line6483" /><line
           style="fill:none;stroke:#0071b0;stroke-miterlimit:10"
           stroke-miterlimit="10"
           x1="1612.205"
           y1="2701.9041"
           x2="1612.205"
           y2="131.10201"
           id="line6485" /><line
           style="fill:none;stroke:#0071b0;stroke-miterlimit:10"
           stroke-miterlimit="10"
           x1="1300.395"
           y1="2701.9041"
           x2="1300.395"
           y2="131.10201"
           id="line6487" /><line
           style="fill:none;stroke:#0071b0;stroke-miterlimit:10"
           stroke-miterlimit="10"
           x1="988.58398"
           y1="2701.9041"
           x2="988.58398"
           y2="131.10201"
           id="line6489" /><line
           style="fill:none;stroke:#0071b0;stroke-miterlimit:10"
           stroke-miterlimit="10"
           x1="676.77399"
           y1="2701.9041"
           x2="676.77399"
           y2="131.10201"
           id="line6491" /><line
           style="fill:none;stroke:#0071b0;stroke-miterlimit:10"
           stroke-miterlimit="10"
           x1="364.96201"
           y1="2701.9041"
           x2="364.96201"
           y2="131.10201"
           id="line6493" /></g><g
         id="g6495"><line
           style="fill:none;stroke:#0071b0;stroke-miterlimit:10"
           stroke-miterlimit="10"
           x1="2703.5449"
           y1="2701.9041"
           x2="2703.5449"
           y2="131.105"
           id="line6497" /><line
           style="fill:none;stroke:#0071b0;stroke-miterlimit:10"
           stroke-miterlimit="10"
           x1="2391.7339"
           y1="2701.9041"
           x2="2391.7339"
           y2="131.105"
           id="line6499" /><line
           style="fill:none;stroke:#0071b0;stroke-miterlimit:10"
           stroke-miterlimit="10"
           x1="2079.9221"
           y1="2701.9041"
           x2="2079.9221"
           y2="131.105"
           id="line6501" /><line
           style="fill:none;stroke:#0071b0;stroke-miterlimit:10"
           stroke-miterlimit="10"
           x1="1768.109"
           y1="2701.9041"
           x2="1768.109"
           y2="131.105"
           id="line6503" /><line
           style="fill:none;stroke:#0071b0;stroke-miterlimit:10"
           stroke-miterlimit="10"
           x1="1456.3"
           y1="2701.9041"
           x2="1456.3"
           y2="131.105"
           id="line6505" /><line
           style="fill:none;stroke:#0071b0;stroke-miterlimit:10"
           stroke-miterlimit="10"
           x1="1144.49"
           y1="2701.9041"
           x2="1144.49"
           y2="131.105"
           id="line6507" /><line
           style="fill:none;stroke:#0071b0;stroke-miterlimit:10"
           stroke-miterlimit="10"
           x1="832.67798"
           y1="2701.9041"
           x2="832.67798"
           y2="131.105"
           id="line6509" /><line
           style="fill:none;stroke:#0071b0;stroke-miterlimit:10"
           stroke-miterlimit="10"
           x1="520.86798"
           y1="2701.9041"
           x2="520.86798"
           y2="131.105"
           id="line6511" /><line
           style="fill:none;stroke:#0071b0;stroke-miterlimit:10"
           stroke-miterlimit="10"
           x1="209.056"
           y1="2701.9041"
           x2="209.056"
           y2="131.105"
           id="line6513" /></g><g
         id="g6515"><line
           style="fill:none;stroke:#0071b0;stroke-miterlimit:10"
           stroke-miterlimit="10"
           x1="131.10001"
           y1="2469.688"
           x2="2699.0349"
           y2="2469.688"
           id="line6517" /><line
           style="fill:none;stroke:#0071b0;stroke-miterlimit:10"
           stroke-miterlimit="10"
           x1="131.10001"
           y1="2157.875"
           x2="2699.0349"
           y2="2157.875"
           id="line6519" /><line
           style="fill:none;stroke:#0071b0;stroke-miterlimit:10"
           stroke-miterlimit="10"
           x1="131.10001"
           y1="1846.062"
           x2="2699.0349"
           y2="1846.062"
           id="line6521" /><line
           style="fill:none;stroke:#0071b0;stroke-miterlimit:10"
           stroke-miterlimit="10"
           x1="131.10001"
           y1="1534.251"
           x2="2699.0349"
           y2="1534.251"
           id="line6523" /><line
           style="fill:none;stroke:#0071b0;stroke-miterlimit:10"
           stroke-miterlimit="10"
           x1="131.10001"
           y1="1222.441"
           x2="2699.0349"
           y2="1222.441"
           id="line6525" /><line
           style="fill:none;stroke:#0071b0;stroke-miterlimit:10"
           stroke-miterlimit="10"
           x1="131.10001"
           y1="910.63"
           x2="2699.0349"
           y2="910.63"
           id="line6527" /><line
           style="fill:none;stroke:#0071b0;stroke-miterlimit:10"
           stroke-miterlimit="10"
           x1="131.10001"
           y1="598.81897"
           x2="2699.0349"
           y2="598.81897"
           id="line6529" /><line
           style="fill:none;stroke:#0071b0;stroke-miterlimit:10"
           stroke-miterlimit="10"
           x1="131.10001"
           y1="287.008"
           x2="2699.0349"
           y2="287.008"
           id="line6531" /></g><g
         id="g6533"><g
           id="g6535"><line
             style="fill:none;stroke:#0071b0;stroke-miterlimit:10"
             stroke-miterlimit="10"
             x1="2625.592"
             y1="2701.9041"
             x2="2625.592"
             y2="131.10201"
             id="line6537" /><line
             style="fill:none;stroke:#0071b0;stroke-miterlimit:10"
             stroke-miterlimit="10"
             x1="2313.781"
             y1="2701.9041"
             x2="2313.781"
             y2="131.10201"
             id="line6539" /><line
             style="fill:none;stroke:#0071b0;stroke-miterlimit:10"
             stroke-miterlimit="10"
             x1="2001.97"
             y1="2701.9041"
             x2="2001.97"
             y2="131.10201"
             id="line6541" /><line
             style="fill:none;stroke:#0071b0;stroke-miterlimit:10"
             stroke-miterlimit="10"
             x1="1690.157"
             y1="2701.9041"
             x2="1690.157"
             y2="131.10201"
             id="line6543" /><line
             style="fill:none;stroke:#0071b0;stroke-miterlimit:10"
             stroke-miterlimit="10"
             x1="1378.348"
             y1="2701.9041"
             x2="1378.348"
             y2="131.10201"
             id="line6545" /><line
             style="fill:none;stroke:#0071b0;stroke-miterlimit:10"
             stroke-miterlimit="10"
             x1="1066.538"
             y1="2701.9041"
             x2="1066.538"
             y2="131.10201"
             id="line6547" /><line
             style="fill:none;stroke:#0071b0;stroke-miterlimit:10"
             stroke-miterlimit="10"
             x1="754.72601"
             y1="2701.9041"
             x2="754.72601"
             y2="131.10201"
             id="line6549" /><line
             style="fill:none;stroke:#0071b0;stroke-miterlimit:10"
             stroke-miterlimit="10"
             x1="442.91599"
             y1="2701.9041"
             x2="442.91599"
             y2="131.10201"
             id="line6551" /><line
             style="fill:none;stroke:#0071b0;stroke-miterlimit:10"
             stroke-miterlimit="10"
             x1="131.104"
             y1="2701.9041"
             x2="131.104"
             y2="131.10201"
             id="line6553" /></g><g
           id="g6555"><line
             style="fill:none;stroke:#0071b0;stroke-miterlimit:10"
             stroke-miterlimit="10"
             x1="2469.686"
             y1="2701.9041"
             x2="2469.686"
             y2="131.10201"
             id="line6557" /><line
             style="fill:none;stroke:#0071b0;stroke-miterlimit:10"
             stroke-miterlimit="10"
             x1="2157.873"
             y1="2701.9041"
             x2="2157.873"
             y2="131.10201"
             id="line6559" /><line
             style="fill:none;stroke:#0071b0;stroke-miterlimit:10"
             stroke-miterlimit="10"
             x1="1846.063"
             y1="2701.9041"
             x2="1846.063"
             y2="131.10201"
             id="line6561" /><line
             style="fill:none;stroke:#0071b0;stroke-miterlimit:10"
             stroke-miterlimit="10"
             x1="1534.254"
             y1="2701.9041"
             x2="1534.254"
             y2="131.10201"
             id="line6563" /><line
             style="fill:none;stroke:#0071b0;stroke-miterlimit:10"
             stroke-miterlimit="10"
             x1="1222.444"
             y1="2701.9041"
             x2="1222.444"
             y2="131.10201"
             id="line6565" /><line
             style="fill:none;stroke:#0071b0;stroke-miterlimit:10"
             stroke-miterlimit="10"
             x1="910.63202"
             y1="2701.9041"
             x2="910.63202"
             y2="131.10201"
             id="line6567" /><line
             style="fill:none;stroke:#0071b0;stroke-miterlimit:10"
             stroke-miterlimit="10"
             x1="598.82202"
             y1="2701.9041"
             x2="598.82202"
             y2="131.10201"
             id="line6569" /><line
             style="fill:none;stroke:#0071b0;stroke-miterlimit:10"
             stroke-miterlimit="10"
             x1="287.01001"
             y1="2701.9041"
             x2="287.01001"
             y2="131.10201"
             id="line6571" /></g></g><g
         id="g6573"><g
           id="g6575"><line
             style="fill:none;stroke:#0071b0;stroke-miterlimit:10"
             stroke-miterlimit="10"
             x1="131.10001"
             y1="2703.5449"
             x2="2699.0349"
             y2="2703.5449"
             id="line6577" /><line
             style="fill:none;stroke:#0071b0;stroke-miterlimit:10"
             stroke-miterlimit="10"
             x1="131.10001"
             y1="2391.7339"
             x2="2699.0349"
             y2="2391.7339"
             id="line6579" /><line
             style="fill:none;stroke:#0071b0;stroke-miterlimit:10"
             stroke-miterlimit="10"
             x1="131.10001"
             y1="2079.9199"
             x2="2699.0349"
             y2="2079.9199"
             id="line6581" /><line
             style="fill:none;stroke:#0071b0;stroke-miterlimit:10"
             stroke-miterlimit="10"
             x1="131.10001"
             y1="1768.108"
             x2="2699.0349"
             y2="1768.108"
             id="line6583" /><line
             style="fill:none;stroke:#0071b0;stroke-miterlimit:10"
             stroke-miterlimit="10"
             x1="131.10001"
             y1="1456.3"
             x2="2699.0349"
             y2="1456.3"
             id="line6585" /><line
             style="fill:none;stroke:#0071b0;stroke-miterlimit:10"
             stroke-miterlimit="10"
             x1="131.10001"
             y1="1144.489"
             x2="2699.0349"
             y2="1144.489"
             id="line6587" /><line
             style="fill:none;stroke:#0071b0;stroke-miterlimit:10"
             stroke-miterlimit="10"
             x1="131.10001"
             y1="832.677"
             x2="2699.0349"
             y2="832.677"
             id="line6589" /><line
             style="fill:none;stroke:#0071b0;stroke-miterlimit:10"
             stroke-miterlimit="10"
             x1="131.10001"
             y1="520.867"
             x2="2699.0349"
             y2="520.867"
             id="line6591" /><line
             style="fill:none;stroke:#0071b0;stroke-miterlimit:10"
             stroke-miterlimit="10"
             x1="131.10001"
             y1="209.05499"
             x2="2699.0349"
             y2="209.05499"
             id="line6593" /></g><g
           id="g6595"><line
             style="fill:none;stroke:#0071b0;stroke-miterlimit:10"
             stroke-miterlimit="10"
             x1="131.10001"
             y1="2547.6389"
             x2="2699.0349"
             y2="2547.6389"
             id="line6597" /><line
             style="fill:none;stroke:#0071b0;stroke-miterlimit:10"
             stroke-miterlimit="10"
             x1="131.10001"
             y1="2235.8259"
             x2="2699.0349"
             y2="2235.8259"
             id="line6599" /><line
             style="fill:none;stroke:#0071b0;stroke-miterlimit:10"
             stroke-miterlimit="10"
             x1="131.10001"
             y1="1924.015"
             x2="2699.0349"
             y2="1924.015"
             id="line6601" /><line
             style="fill:none;stroke:#0071b0;stroke-miterlimit:10"
             stroke-miterlimit="10"
             x1="131.10001"
             y1="1612.2061"
             x2="2699.0349"
             y2="1612.2061"
             id="line6603" /><line
             style="fill:none;stroke:#0071b0;stroke-miterlimit:10"
             stroke-miterlimit="10"
             x1="131.10001"
             y1="1300.395"
             x2="2699.0349"
             y2="1300.395"
             id="line6605" /><line
             style="fill:none;stroke:#0071b0;stroke-miterlimit:10"
             stroke-miterlimit="10"
             x1="131.10001"
             y1="988.58301"
             x2="2699.0349"
             y2="988.58301"
             id="line6607" /><line
             style="fill:none;stroke:#0071b0;stroke-miterlimit:10"
             stroke-miterlimit="10"
             x1="131.10001"
             y1="676.77301"
             x2="2699.0349"
             y2="676.77301"
             id="line6609" /><line
             style="fill:none;stroke:#0071b0;stroke-miterlimit:10"
             stroke-miterlimit="10"
             x1="131.10001"
             y1="364.961"
             x2="2699.0349"
             y2="364.961"
             id="line6611" /></g></g></g></g><path
     style="fill:none;stroke:#000000;stroke-width:1px;stroke-linecap:butt;stroke-linejoin:miter;stroke-opacity:1"
     d="m 2547.6003,2625.4856 77.9323,0 0,-77.7473 7e-4,0"
     id="origin"
     inkscape:connector-curvature="0"
     inkscape:label="#path7346" /></g><path
   style="fill:none;stroke:#000000;stroke-width:1px;stroke-linecap:butt;stroke-linejoin:miter;stroke-opacity:1"
   d="m 2546.1,2625.5499 -233.7,-233.7 233.7,-233.7 77.9,-233.7 0,-311.6 -233.7,233.7 -233.7,233.7 -233.7,233.7 -233.7,233.7 -233.7,77.9 -77.9,-233.7 233.7,-233.7 233.7,-233.7 233.7,-233.7 233.7,-233.7 233.7,-233.7 77.9,-233.7 0,-311.6 -233.7,233.7 -233.7,233.7 -233.7,233.7 -233.7,233.7 -233.7,233.7 -233.7,233.7 -233.7,233.7 -233.7,233.7 -233.7,77.9 -233.7,-77.9 233.7,-233.7 233.7,-233.7 233.7,-233.7 233.7,-233.7 233.7,-233.7 233.7,-233.7 233.7,-233.7 233.7,-233.7 233.7,-233.7 -77.9,-233.7 -233.7,77.9 -233.7,233.7 -233.7,233.7 -233.7,233.7 -233.7,233.7 -233.7,233.7 -233.7,233.7 -233.7,233.7 -233.7,233.7 0,-311.6 77.9,-233.7 233.7,-233.7 233.7,-233.7 233.7,-233.7 233.7,-233.7 233.7,-233.7 -77.9,-233.7 -233.7,77.9 -233.7,233.7 -233.7,233.7 -233.7,233.7 -233.7,233.7 0,-311.6 77.9,-233.7 233.7,-233.7 -233.7,-233.7"
   id="path3204"
   inkscape:connector-curvature="0" /></svg>