<?xml version="1.0" encoding="UTF-8" standalone="no"?>
<!-- Generator: Adobe Illustrator 16.0.0, SVG Export Plug-In . SVG Version: 6.00 Build 0)  -->

<svg
   xmlns:dc="http://purl.org/dc/elements/1.1/"
   xmlns:cc="http://creativecommons.org/ns#"
   xmlns:rdf="http://www.w3.org/1999/02/22-rdf-syntax-ns#"
   xmlns:svg="http://www.w3.org/2000/svg"
   xmlns="http://www.w3.org/2000/svg"
   xmlns:sodipodi="http://sodipodi.sourceforge.net/DTD/sodipodi-0.dtd"
   xmlns:inkscape="http://www.inkscape.org/namespaces/inkscape"
   version="1.1"
   id="Layer_5"
   x="0px"
   y="0px"
   width="2834.65px"
   height="2834.65px"
   viewBox="0 0 2834.65 2834.65"
   enable-background="new 0 0 2834.65 2834.65"
   xml:space="preserve"
   inkscape:version="0.48.3.1 r9886"
   sodipodi:docname="pievoskvadratas1-taskai.svg"><metadata
   id="metadata4579"><rdf:RDF><cc:Work
       rdf:about=""><dc:format>image/svg+xml</dc:format><dc:type
         rdf:resource="http://purl.org/dc/dcmitype/StillImage" /></cc:Work></rdf:RDF></metadata><defs
   id="defs4577" /><sodipodi:namedview
   pagecolor="#ffffff"
   bordercolor="#666666"
   borderopacity="1"
   objecttolerance="10"
   gridtolerance="10"
   guidetolerance="10"
   inkscape:pageopacity="0"
   inkscape:pageshadow="2"
   inkscape:window-width="1366"
   inkscape:window-height="710"
   id="namedview4575"
   showgrid="false"
   inkscape:zoom="1.8838554"
   inkscape:cx="1753.0869"
   inkscape:cy="1170.1381"
   inkscape:window-x="0"
   inkscape:window-y="0"
   inkscape:window-maximized="1"
   inkscape:current-layer="Layer_5" />
<path
   fill="none"
   stroke="#FF0000"
   stroke-width="4"
   stroke-linecap="round"
   stroke-linejoin="round"
   stroke-miterlimit="10"
   d="  M2394,445c-1.308,1.28-3.416,1.28-4.719-0.011c-1.298-1.303-1.309-3.416-0.011-4.719c1.313-1.304,3.427-1.304,4.729,0  C2395.298,441.573,2395.309,443.687,2394,445z"
   id="path4447" />
<path
   fill="none"
   stroke="#231F20"
   stroke-width="4"
   stroke-linecap="round"
   stroke-linejoin="round"
   stroke-miterlimit="10"
   d="  M2159.894,680.317c-1.301,1.301-3.418,1.301-4.707-0.011c-1.306-1.29-1.306-3.42-0.018-4.71c1.307-1.312,3.435-1.312,4.725,0  C2161.199,676.887,2161.199,679.006,2159.894,680.317z"
   id="path4449" />
<path
   fill="none"
   stroke="#231F20"
   stroke-width="4"
   stroke-linecap="round"
   stroke-linejoin="round"
   stroke-miterlimit="10"
   d="  M1926.147,913.005c-1.308,1.28-3.416,1.28-4.719-0.011c-1.298-1.303-1.309-3.416-0.011-4.719c1.313-1.304,3.427-1.304,4.729,0  C1927.445,909.579,1927.456,911.692,1926.147,913.005z"
   id="path4451" />
<path
   fill="none"
   stroke="#231F20"
   stroke-width="4"
   stroke-linecap="round"
   stroke-linejoin="round"
   stroke-miterlimit="10"
   d="  M1694.85,1145.513c-1.301,1.301-3.418,1.301-4.707-0.011c-1.306-1.29-1.306-3.42-0.018-4.71c1.307-1.312,3.435-1.312,4.725,0  C1696.155,1142.083,1696.155,1144.202,1694.85,1145.513z"
   id="path4453" />
<path
   fill="none"
   stroke="#231F20"
   stroke-width="4"
   stroke-linecap="round"
   stroke-linejoin="round"
   stroke-miterlimit="10"
   d="  M1458.659,1381.645c-1.308,1.28-3.416,1.28-4.719-0.011c-1.298-1.303-1.309-3.416-0.011-4.719c1.313-1.304,3.427-1.304,4.729,0  C1459.957,1378.218,1459.968,1380.332,1458.659,1381.645z"
   id="path4455" />
<path
   fill="none"
   stroke="#231F20"
   stroke-width="4"
   stroke-linecap="round"
   stroke-linejoin="round"
   stroke-miterlimit="10"
   d="  M1226.802,1611.84c-1.301,1.301-3.418,1.301-4.707-0.011c-1.306-1.29-1.306-3.42-0.018-4.71c1.307-1.312,3.435-1.312,4.725,0  C1228.108,1608.409,1228.108,1610.528,1226.802,1611.84z"
   id="path4457" />
<path
   fill="none"
   stroke="#231F20"
   stroke-width="4"
   stroke-linecap="round"
   stroke-linejoin="round"
   stroke-miterlimit="10"
   d="  M992.779,1847.592c-1.308,1.28-3.416,1.28-4.719-0.011c-1.298-1.303-1.309-3.416-0.011-4.719c1.313-1.304,3.427-1.304,4.729,0  C994.077,1844.165,994.087,1846.278,992.779,1847.592z"
   id="path4459" />
<path
   fill="none"
   stroke="#231F20"
   stroke-width="4"
   stroke-linecap="round"
   stroke-linejoin="round"
   stroke-miterlimit="10"
   d="  M758.755,2079.886c-1.301,1.301-3.418,1.301-4.707-0.011c-1.307-1.29-1.307-3.42-0.018-4.71c1.307-1.312,3.434-1.312,4.725,0  C760.06,2076.455,760.06,2078.574,758.755,2079.886z"
   id="path4461" />
<path
   fill="none"
   stroke="#231F20"
   stroke-width="4"
   stroke-linecap="round"
   stroke-linejoin="round"
   stroke-miterlimit="10"
   d="  M522.236,2314.461c-1.309,1.28-3.416,1.28-4.719-0.011c-1.299-1.303-1.309-3.416-0.012-4.719c1.314-1.304,3.428-1.304,4.73,0  C523.533,2311.034,523.544,2313.147,522.236,2314.461z"
   id="path4463" />
<path
   fill="none"
   stroke="#231F20"
   stroke-width="4"
   stroke-linecap="round"
   stroke-linejoin="round"
   stroke-miterlimit="10"
   d="  M289.367,2544.943c-1.301,1.301-3.418,1.301-4.707-0.011c-1.307-1.29-1.307-3.42-0.018-4.71c1.307-1.312,3.434-1.312,4.725,0  C290.672,2541.513,290.672,2543.632,289.367,2544.943z"
   id="path4465" />
<path
   fill="none"
   stroke="#231F20"
   stroke-width="4"
   stroke-linecap="round"
   stroke-linejoin="round"
   stroke-miterlimit="10"
   d="  M2083.85,289.716c-1.301,1.301-3.418,1.301-4.707-0.011c-1.305-1.29-1.305-3.42-0.018-4.71c1.307-1.312,3.436-1.312,4.725,0  C2085.156,286.285,2085.156,288.404,2083.85,289.716z"
   id="path4467" />
<path
   fill="none"
   stroke="#231F20"
   stroke-width="4"
   stroke-linecap="round"
   stroke-linejoin="round"
   stroke-miterlimit="10"
   d="  M1846.547,523.242c-1.307,1.28-3.416,1.28-4.719-0.011c-1.297-1.303-1.309-3.416-0.01-4.719c1.313-1.304,3.426-1.304,4.729,0  C1847.846,519.815,1847.855,521.928,1846.547,523.242z"
   id="path4469" />
<path
   fill="none"
   stroke="#231F20"
   stroke-width="4"
   stroke-linecap="round"
   stroke-linejoin="round"
   stroke-miterlimit="10"
   d="  M1612.441,757.161c-1.301,1.301-3.418,1.301-4.707-0.011c-1.307-1.29-1.307-3.42-0.018-4.71c1.307-1.312,3.434-1.312,4.725,0  C1613.746,753.73,1613.746,755.85,1612.441,757.161z"
   id="path4471" />
<path
   fill="none"
   stroke="#231F20"
   stroke-width="4"
   stroke-linecap="round"
   stroke-linejoin="round"
   stroke-miterlimit="10"
   d="  M1381.418,989.913c-1.308,1.28-3.416,1.28-4.719-0.011c-1.298-1.303-1.309-3.416-0.011-4.719c1.313-1.304,3.427-1.304,4.729,0  C1382.716,986.486,1382.727,988.6,1381.418,989.913z"
   id="path4473" />
<path
   fill="none"
   stroke="#231F20"
   stroke-width="4"
   stroke-linecap="round"
   stroke-linejoin="round"
   stroke-miterlimit="10"
   d="  M1147.397,1226.928c-1.301,1.301-3.418,1.301-4.707-0.011c-1.306-1.29-1.306-3.42-0.018-4.71c1.307-1.312,3.435-1.312,4.725,0  C1148.703,1223.498,1148.703,1225.617,1147.397,1226.928z"
   id="path4475" />
<path
   fill="none"
   stroke="#231F20"
   stroke-width="4"
   stroke-linecap="round"
   stroke-linejoin="round"
   stroke-miterlimit="10"
   d="  M913.374,1459.231c-1.308,1.28-3.416,1.28-4.719-0.011c-1.298-1.303-1.309-3.416-0.011-4.719c1.313-1.304,3.427-1.304,4.729,0  C914.671,1455.805,914.682,1457.918,913.374,1459.231z"
   id="path4477" />
<path
   fill="none"
   stroke="#231F20"
   stroke-width="4"
   stroke-linecap="round"
   stroke-linejoin="round"
   stroke-miterlimit="10"
   d="  M679.35,1693.255c-1.301,1.301-3.418,1.301-4.707-0.011c-1.307-1.29-1.307-3.42-0.018-4.71c1.307-1.312,3.434-1.312,4.725,0  C680.655,1689.824,680.655,1691.943,679.35,1693.255z"
   id="path4479" />
<path
   fill="none"
   stroke="#231F20"
   stroke-width="4"
   stroke-linecap="round"
   stroke-linejoin="round"
   stroke-miterlimit="10"
   d="  M445.326,1929.007c-1.308,1.28-3.416,1.28-4.719-0.011c-1.298-1.303-1.309-3.416-0.011-4.719c1.313-1.304,3.427-1.304,4.729,0  C446.624,1925.58,446.635,1927.693,445.326,1929.007z"
   id="path4481" />
<path
   fill="none"
   stroke="#231F20"
   stroke-width="4"
   stroke-linecap="round"
   stroke-linejoin="round"
   stroke-miterlimit="10"
   d="  M211.303,2161.301c-1.301,1.301-3.418,1.301-4.707-0.011c-1.307-1.29-1.307-3.42-0.018-4.71c1.307-1.312,3.434-1.312,4.725,0  C212.607,2157.87,212.607,2159.989,211.303,2161.301z"
   id="path4483" />
<path
   fill="none"
   stroke="#231F20"
   stroke-width="4"
   stroke-linecap="round"
   stroke-linejoin="round"
   stroke-miterlimit="10"
   d="  M291.258,211.421c-1.301,1.301-3.418,1.301-4.707-0.011c-1.306-1.29-1.306-3.42-0.018-4.71c1.307-1.312,3.435-1.312,4.725,0  C292.563,207.991,292.563,210.11,291.258,211.421z"
   id="path4485" />
<path
   fill="none"
   stroke="#231F20"
   stroke-width="4"
   stroke-linecap="round"
   stroke-linejoin="round"
   stroke-miterlimit="10"
   d="  M1458.659,446.555c-1.308,1.28-3.416,1.28-4.719-0.011c-1.298-1.303-1.309-3.416-0.011-4.719c1.313-1.304,3.427-1.304,4.729,0  C1459.957,443.128,1459.968,445.241,1458.659,446.555z"
   id="path4487" />
<path
   fill="none"
   stroke="#231F20"
   stroke-width="4"
   stroke-linecap="round"
   stroke-linejoin="round"
   stroke-miterlimit="10"
   d="  M1224.801,679.139c-1.301,1.301-3.418,1.301-4.707-0.011c-1.306-1.29-1.306-3.42-0.018-4.71c1.307-1.312,3.435-1.312,4.725,0  C1226.106,675.708,1226.106,677.828,1224.801,679.139z"
   id="path4489" />
<path
   fill="none"
   stroke="#231F20"
   stroke-width="4"
   stroke-linecap="round"
   stroke-linejoin="round"
   stroke-miterlimit="10"
   d="  M990.28,913.005c-1.308,1.28-3.416,1.28-4.719-0.011c-1.298-1.303-1.309-3.416-0.011-4.719c1.313-1.304,3.427-1.304,4.729,0  C991.578,909.578,991.589,911.691,990.28,913.005z"
   id="path4491" />
<path
   fill="none"
   stroke="#231F20"
   stroke-width="4"
   stroke-linecap="round"
   stroke-linejoin="round"
   stroke-miterlimit="10"
   d="  M756.259,1147.068c-1.301,1.301-3.418,1.301-4.707-0.011c-1.306-1.29-1.306-3.42-0.018-4.71c1.307-1.312,3.435-1.312,4.725,0  C757.564,1143.637,757.564,1145.756,756.259,1147.068z"
   id="path4493" />
<path
   fill="none"
   stroke="#231F20"
   stroke-width="4"
   stroke-linecap="round"
   stroke-linejoin="round"
   stroke-miterlimit="10"
   d="  M522.235,1379.371c-1.308,1.28-3.416,1.28-4.719-0.011c-1.298-1.303-1.309-3.416-0.011-4.719c1.313-1.304,3.427-1.304,4.729,0  C523.533,1375.944,523.544,1378.058,522.235,1379.371z"
   id="path4495" />
<path
   fill="none"
   stroke="#231F20"
   stroke-width="4"
   stroke-linecap="round"
   stroke-linejoin="round"
   stroke-miterlimit="10"
   d="  M288.212,1613.395c-1.301,1.301-3.418,1.301-4.707-0.011c-1.307-1.29-1.307-3.42-0.018-4.71c1.307-1.312,3.434-1.312,4.725,0  C289.517,1609.964,289.517,1612.083,288.212,1613.395z"
   id="path4497" />
<path
   fill="none"
   stroke="#231F20"
   stroke-width="4"
   stroke-linecap="round"
   stroke-linejoin="round"
   stroke-miterlimit="10"
   d="  M913.374,523.242c-1.308,1.28-3.416,1.28-4.719-0.011c-1.298-1.303-1.309-3.416-0.011-4.719c1.313-1.304,3.427-1.304,4.729,0  C914.671,519.815,914.682,521.928,913.374,523.242z"
   id="path4499" />
<path
   fill="none"
   stroke="#231F20"
   stroke-width="4"
   stroke-linecap="round"
   stroke-linejoin="round"
   stroke-miterlimit="10"
   d="  M679.349,757.161c-1.301,1.301-3.418,1.301-4.707-0.011c-1.306-1.29-1.306-3.42-0.018-4.71c1.307-1.312,3.435-1.312,4.725,0  C680.655,753.73,680.655,755.85,679.349,757.161z"
   id="path4501" />
<path
   fill="none"
   stroke="#231F20"
   stroke-width="4"
   stroke-linecap="round"
   stroke-linejoin="round"
   stroke-miterlimit="10"
   d="  M445.275,992.531c-1.308,1.28-3.416,1.28-4.719-0.011c-1.298-1.303-1.309-3.416-0.011-4.719c1.313-1.304,3.427-1.304,4.729,0  C446.573,989.104,446.583,991.218,445.275,992.531z"
   id="path4503" />
<path
   fill="none"
   stroke="#231F20"
   stroke-width="4"
   stroke-linecap="round"
   stroke-linejoin="round"
   stroke-miterlimit="10"
   d="  M211.413,1227.464c-1.301,1.301-3.418,1.301-4.707-0.011c-1.306-1.29-1.306-3.42-0.018-4.71c1.307-1.312,3.435-1.312,4.725,0  C212.719,1224.033,212.719,1226.152,211.413,1227.464z"
   id="path4505" />
<path
   fill="none"
   stroke="#231F20"
   stroke-width="4"
   stroke-linecap="round"
   stroke-linejoin="round"
   stroke-miterlimit="10"
   d="  M2313.91,212.42c-1.301,1.301-3.418,1.301-4.707-0.011c-1.305-1.29-1.305-3.42-0.018-4.71c1.307-1.312,3.436-1.312,4.725,0  C2315.217,208.989,2315.217,211.108,2313.91,212.42z"
   id="path4507" />
<path
   fill="none"
   stroke="#231F20"
   stroke-width="4"
   stroke-linecap="round"
   stroke-linejoin="round"
   stroke-miterlimit="10"
   d="  M1380.814,215.136c-1.301,1.301-3.418,1.301-4.707-0.011c-1.305-1.29-1.305-3.42-0.018-4.71c1.307-1.312,3.436-1.312,4.725,0  C1382.121,211.706,1382.121,213.825,1380.814,215.136z"
   id="path4509" />
<path
   fill="none"
   stroke="#231F20"
   stroke-width="4"
   stroke-linecap="round"
   stroke-linejoin="round"
   stroke-miterlimit="10"
   d="  M523.227,443.303c-1.308,1.28-3.416,1.28-4.719-0.011c-1.298-1.303-1.309-3.416-0.011-4.719c1.313-1.304,3.427-1.304,4.729,0  C524.525,439.876,524.536,441.989,523.227,443.303z"
   id="path4511" />
<path
   fill="none"
   stroke="#231F20"
   stroke-width="4"
   stroke-linecap="round"
   stroke-linejoin="round"
   stroke-miterlimit="10"
   d="  M288.212,680.318c-1.301,1.301-3.418,1.301-4.707-0.011c-1.306-1.29-1.306-3.42-0.018-4.71c1.307-1.312,3.435-1.312,4.725,0  C289.518,676.887,289.518,679.006,288.212,680.318z"
   id="path4513" />
<path
   fill="none"
   stroke="#231F20"
   stroke-width="4"
   stroke-linecap="round"
   stroke-linejoin="round"
   stroke-miterlimit="10"
   d="  M750.952,2546.41c1.301-1.301,3.418-1.301,4.707,0.01c1.305,1.291,1.305,3.42,0.018,4.711c-1.307,1.311-3.436,1.311-4.725,0  C749.646,2549.84,749.646,2547.721,750.952,2546.41z"
   id="path4515" />
<path
   fill="none"
   stroke="#231F20"
   stroke-width="4"
   stroke-linecap="round"
   stroke-linejoin="round"
   stroke-miterlimit="10"
   d="  M986.225,2309.711c1.307-1.281,3.416-1.281,4.719,0.01c1.297,1.303,1.309,3.416,0.01,4.719c-1.313,1.305-3.426,1.305-4.729,0  C984.926,2313.137,984.917,2311.023,986.225,2309.711z"
   id="path4517" />
<path
   fill="none"
   stroke="#231F20"
   stroke-width="4"
   stroke-linecap="round"
   stroke-linejoin="round"
   stroke-miterlimit="10"
   d="  M1222.36,2078.965c1.301-1.301,3.418-1.301,4.707,0.01c1.307,1.291,1.307,3.42,0.018,4.711c-1.307,1.311-3.434,1.311-4.725,0  C1221.056,2082.395,1221.056,2080.275,1222.36,2078.965z"
   id="path4519" />
<path
   fill="none"
   stroke="#231F20"
   stroke-width="4"
   stroke-linecap="round"
   stroke-linejoin="round"
   stroke-miterlimit="10"
   d="  M1456.107,1843.688c1.307-1.281,3.416-1.281,4.719,0.01c1.297,1.303,1.309,3.416,0.01,4.719c-1.313,1.305-3.426,1.305-4.729,0  C1454.809,1847.113,1454.799,1845,1456.107,1843.688z"
   id="path4521" />
<path
   fill="none"
   stroke="#231F20"
   stroke-width="4"
   stroke-linecap="round"
   stroke-linejoin="round"
   stroke-miterlimit="10"
   d="  M1687.405,1609.197c1.301-1.301,3.418-1.301,4.707,0.01c1.305,1.291,1.305,3.42,0.018,4.711c-1.307,1.311-3.436,1.311-4.725,0  C1686.099,1612.627,1686.099,1610.508,1687.405,1609.197z"
   id="path4523" />
<path
   fill="none"
   stroke="#231F20"
   stroke-width="4"
   stroke-linecap="round"
   stroke-linejoin="round"
   stroke-miterlimit="10"
   d="  M1921.429,1376.894c1.307-1.28,3.416-1.28,4.719,0.011c1.297,1.303,1.309,3.416,0.01,4.719c-1.313,1.304-3.426,1.304-4.729,0  C1920.13,1380.321,1920.12,1378.208,1921.429,1376.894z"
   id="path4525" />
<path
   fill="none"
   stroke="#231F20"
   stroke-width="4"
   stroke-linecap="round"
   stroke-linejoin="round"
   stroke-miterlimit="10"
   d="  M2155.452,1142.871c1.301-1.301,3.418-1.301,4.707,0.011c1.307,1.29,1.307,3.42,0.018,4.71c-1.307,1.312-3.434,1.312-4.725,0  C2154.147,1146.301,2154.147,1144.182,2155.452,1142.871z"
   id="path4527" />
<path
   fill="none"
   stroke="#231F20"
   stroke-width="4"
   stroke-linecap="round"
   stroke-linejoin="round"
   stroke-miterlimit="10"
   d="  M2389.476,907.119c1.308-1.28,3.416-1.28,4.719,0.011c1.298,1.303,1.309,3.416,0.011,4.719c-1.313,1.304-3.427,1.304-4.729,0  C2388.178,910.545,2388.167,908.432,2389.476,907.119z"
   id="path4529" />
<path
   fill="none"
   stroke="#231F20"
   stroke-width="4"
   stroke-linecap="round"
   stroke-linejoin="round"
   stroke-miterlimit="10"
   d="  M2623.499,674.825c1.301-1.301,3.418-1.301,4.707,0.011c1.307,1.29,1.307,3.42,0.018,4.71c-1.307,1.312-3.434,1.312-4.725,0  C2622.194,678.255,2622.194,676.136,2623.499,674.825z"
   id="path4531" />
<path
   fill="none"
   stroke="#231F20"
   stroke-width="4"
   stroke-linecap="round"
   stroke-linejoin="round"
   stroke-miterlimit="10"
   d="  M2542.09,2622.27c1.301-1.301,3.418-1.301,4.707,0.012c1.306,1.289,1.306,3.42,0.018,4.709c-1.307,1.313-3.435,1.313-4.725,0  C2540.784,2625.701,2540.784,2623.582,2542.09,2622.27z"
   id="path4533" />
<path
   fill="none"
   stroke="#231F20"
   stroke-width="4"
   stroke-linecap="round"
   stroke-linejoin="round"
   stroke-miterlimit="10"
   d="  M1379.393,2389.57c1.308-1.279,3.416-1.279,4.719,0.012c1.298,1.303,1.309,3.416,0.011,4.719c-1.313,1.303-3.427,1.303-4.729,0  C1378.095,2392.998,1378.084,2390.885,1379.393,2389.57z"
   id="path4535" />
<path
   fill="none"
   stroke="#231F20"
   stroke-width="4"
   stroke-linecap="round"
   stroke-linejoin="round"
   stroke-miterlimit="10"
   d="  M1613.499,2158.824c1.301-1.301,3.418-1.301,4.707,0.012c1.306,1.289,1.306,3.42,0.018,4.709c-1.307,1.313-3.435,1.313-4.725,0  C1612.193,2162.256,1612.193,2160.137,1613.499,2158.824z"
   id="path4537" />
<path
   fill="none"
   stroke="#231F20"
   stroke-width="4"
   stroke-linecap="round"
   stroke-linejoin="round"
   stroke-miterlimit="10"
   d="  M1843.703,1926.072c1.308-1.279,3.416-1.279,4.719,0.012c1.298,1.303,1.309,3.416,0.011,4.719c-1.313,1.303-3.427,1.303-4.729,0  C1842.405,1929.5,1842.395,1927.387,1843.703,1926.072z"
   id="path4539" />
<path
   fill="none"
   stroke="#231F20"
   stroke-width="4"
   stroke-linecap="round"
   stroke-linejoin="round"
   stroke-miterlimit="10"
   d="  M2078.543,1689.057c1.301-1.301,3.418-1.301,4.707,0.012c1.306,1.289,1.306,3.42,0.018,4.709c-1.307,1.313-3.435,1.313-4.725,0  C2077.237,1692.488,2077.237,1690.369,2078.543,1689.057z"
   id="path4541" />
<path
   fill="none"
   stroke="#231F20"
   stroke-width="4"
   stroke-linecap="round"
   stroke-linejoin="round"
   stroke-miterlimit="10"
   d="  M2312.566,1456.754c1.308-1.279,3.416-1.279,4.719,0.012c1.298,1.303,1.309,3.416,0.011,4.719c-1.313,1.303-3.427,1.303-4.729,0  C2311.269,1460.182,2311.258,1458.068,2312.566,1456.754z"
   id="path4543" />
<path
   fill="none"
   stroke="#231F20"
   stroke-width="4"
   stroke-linecap="round"
   stroke-linejoin="round"
   stroke-miterlimit="10"
   d="  M2543.543,1222.731c1.301-1.301,3.418-1.301,4.707,0.011c1.307,1.29,1.307,3.42,0.018,4.71c-1.307,1.312-3.434,1.312-4.725,0  C2542.238,1226.162,2542.238,1224.042,2543.543,1222.731z"
   id="path4545" />
<path
   fill="none"
   stroke="#231F20"
   stroke-width="4"
   stroke-linecap="round"
   stroke-linejoin="round"
   stroke-miterlimit="10"
   d="  M1921.429,2311.405c1.307-1.279,3.416-1.279,4.719,0.012c1.297,1.303,1.309,3.416,0.01,4.719c-1.313,1.303-3.426,1.303-4.729,0  C1920.13,2314.833,1920.12,2312.72,1921.429,2311.405z"
   id="path4547" />
<path
   fill="none"
   stroke="#231F20"
   stroke-width="4"
   stroke-linecap="round"
   stroke-linejoin="round"
   stroke-miterlimit="10"
   d="  M2155.452,2076.346c1.301-1.301,3.418-1.301,4.707,0.012c1.307,1.289,1.307,3.42,0.018,4.709c-1.307,1.313-3.434,1.313-4.725,0  C2154.147,2079.777,2154.147,2077.658,2155.452,2076.346z"
   id="path4549" />
<path
   fill="none"
   stroke="#231F20"
   stroke-width="4"
   stroke-linecap="round"
   stroke-linejoin="round"
   stroke-miterlimit="10"
   d="  M2389.375,1843.687c1.307-1.279,3.416-1.279,4.719,0.012c1.297,1.303,1.309,3.416,0.01,4.719c-1.313,1.303-3.426,1.303-4.729,0  C2388.076,1847.114,2388.066,1845.001,2389.375,1843.687z"
   id="path4551" />
<path
   fill="none"
   stroke="#231F20"
   stroke-width="4"
   stroke-linecap="round"
   stroke-linejoin="round"
   stroke-miterlimit="10"
   d="  M2623.236,1606.578c1.301-1.301,3.418-1.301,4.707,0.012c1.305,1.289,1.305,3.42,0.018,4.709c-1.307,1.313-3.436,1.313-4.725,0  C2621.93,1610.01,2621.93,1607.891,2623.236,1606.578z"
   id="path4553" />
<path
   fill="none"
   stroke="#231F20"
   stroke-width="4"
   stroke-linecap="round"
   stroke-linejoin="round"
   stroke-miterlimit="10"
   d="  M1453.987,2620.988c1.301-1.301,3.418-1.301,4.707,0.012c1.305,1.289,1.305,3.42,0.018,4.709c-1.307,1.313-3.436,1.313-4.725,0  C1452.681,2624.42,1452.681,2622.301,1453.987,2620.988z"
   id="path4555" />
<path
   fill="none"
   stroke="#231F20"
   stroke-width="4"
   stroke-linecap="round"
   stroke-linejoin="round"
   stroke-miterlimit="10"
   d="  M2311.422,2389.358c1.307-1.279,3.416-1.279,4.719,0.012c1.297,1.303,1.309,3.416,0.01,4.719c-1.313,1.303-3.426,1.303-4.729,0  C2310.123,2392.786,2310.113,2390.673,2311.422,2389.358z"
   id="path4557" />
<path
   fill="none"
   stroke="#231F20"
   stroke-width="4"
   stroke-linecap="round"
   stroke-linejoin="round"
   stroke-miterlimit="10"
   d="  M2543.544,2155.807c1.301-1.301,3.418-1.301,4.707,0.012c1.305,1.289,1.305,3.42,0.018,4.709c-1.307,1.313-3.436,1.313-4.725,0  C2542.237,2159.238,2542.237,2157.119,2543.544,2155.807z"
   id="path4559" />
<path
   fill="none"
   stroke="#231F20"
   stroke-width="4"
   stroke-linecap="round"
   stroke-linejoin="round"
   stroke-miterlimit="10"
   d="  M2623.232,1921.639c1.307-1.279,3.416-1.279,4.719,0.012c1.297,1.303,1.309,3.416,0.01,4.719c-1.313,1.303-3.426,1.303-4.729,0  C2621.934,1925.066,2621.924,1922.953,2623.232,1921.639z"
   id="path4561" />
<path
   fill="none"
   stroke="#231F20"
   stroke-width="4"
   stroke-linecap="round"
   stroke-linejoin="round"
   stroke-miterlimit="10"
   d="  M2623.232,985.162c1.307-1.279,3.416-1.279,4.719,0.012c1.297,1.303,1.309,3.416,0.01,4.719c-1.313,1.303-3.426,1.303-4.729,0  C2621.934,988.589,2621.924,986.476,2623.232,985.162z"
   id="path4563" />
<path
   fill="none"
   stroke="#231F20"
   stroke-width="4"
   stroke-linecap="round"
   stroke-linejoin="round"
   stroke-miterlimit="10"
   d="  M518.003,2624.207c1.307-1.279,3.416-1.279,4.719,0.012c1.297,1.303,1.309,3.416,0.01,4.719c-1.313,1.303-3.426,1.303-4.729,0  C516.704,2627.635,516.694,2625.521,518.003,2624.207z"
   id="path4565" />
<path
   fill="none"
   stroke="#231F20"
   stroke-width="4"
   stroke-linecap="round"
   stroke-linejoin="round"
   stroke-miterlimit="10"
   d="  M206.586,1843.594c1.307-1.279,3.416-1.279,4.719,0.012c1.297,1.303,1.309,3.416,0.01,4.719c-1.313,1.303-3.426,1.303-4.729,0  C205.288,1847.021,205.278,1844.908,206.586,1843.594z"
   id="path4567" />
<path
   fill="none"
   stroke="#231F20"
   stroke-width="4"
   stroke-linecap="round"
   stroke-linejoin="round"
   stroke-miterlimit="10"
   d="  M1142.681,284.632c1.307-1.279,3.416-1.279,4.719,0.012c1.297,1.303,1.309,3.416,0.01,4.719c-1.313,1.303-3.426,1.303-4.729,0  C1141.382,288.06,1141.372,285.946,1142.681,284.632z"
   id="path4569" />
<path
   fill="none"
   stroke="#231F20"
   stroke-width="4"
   stroke-linecap="round"
   stroke-linejoin="round"
   stroke-miterlimit="10"
   d="  M206.697,908.254c1.307-1.279,3.416-1.279,4.719,0.012c1.297,1.303,1.309,3.416,0.01,4.719c-1.313,1.303-3.426,1.303-4.729,0  C205.398,911.682,205.388,909.568,206.697,908.254z"
   id="path4571" />
<path
   fill="none"
   stroke="#231F20"
   stroke-width="4"
   stroke-linecap="round"
   stroke-linejoin="round"
   stroke-miterlimit="10"
   d="  M1690.133,2545.263c1.307-1.279,3.416-1.279,4.719,0.012c1.297,1.303,1.309,3.416,0.01,4.719c-1.313,1.303-3.426,1.303-4.729,0  C1688.834,2548.69,1688.824,2546.577,1690.133,2545.263z"
   id="path4573" />
<path
   style="fill:none;stroke:#000000;stroke-width:1px;stroke-linecap:butt;stroke-linejoin:miter;stroke-opacity:1"
   d="m 1580.8008,2688.9381 -0.2654,-0.2654"
   id="path4581"
   inkscape:connector-curvature="0" /><path
   style="fill:none;stroke:#000000;stroke-width:1px;stroke-linecap:butt;stroke-linejoin:miter;stroke-opacity:1"
   d="m 2530.9799,2626.566 -212.3306,-237.8102 229.317,-233.5636 67.9458,-233.5636 8.4932,-310.0025 -233.5636,233.5635 -242.0568,220.8238 -242.0568,250.55 -212.3305,225.0704 -237.8102,89.1788 -67.9458,-242.0568 229.317,-229.317 229.317,-225.0703 233.5636,-237.8102 229.3169,-233.5636 233.5636,-242.0568 93.4254,-233.56358 -16.9864,-305.75596 -229.317,233.56358 -233.5636,220.82376 -233.5635,237.8102 -229.317,229.3169 -237.8102,237.8102"
   id="maryte"
   inkscape:connector-curvature="0"
   inkscape:label="#path5834" /></svg>